<svg height="64px" style="enable-background:new 0 0 54 64;" version="1.1" viewBox="0 0 54 64" width="54px" xml:space="preserve" xmlns="http://www.w3.org/2000/svg" xmlns:xlink="http://www.w3.org/1999/xlink">
    <g id="_x33_1_x5F_employer_x5F_avatar">
        <g>
            <g>
                <line style="fill:none;stroke:#839496;stroke-width:2;stroke-linejoin:round;stroke-miterlimit:10;" x1="11" x2="11" y1="56" y2="64"/>
                <line style="fill:none;stroke:#839496;stroke-width:2;stroke-linejoin:round;stroke-miterlimit:10;" x1="43" x2="43" y1="56" y2="64"/>
                <path d="M24,7c0,3,3,10,12,10l0,0     c0,7.18-1,14-9,14s-9-6.82-9-14v-2c0-2.209,1.791-4,4-4" style="fill:none;stroke:#839496;stroke-width:2;stroke-linejoin:round;stroke-miterlimit:10;"/><path d="M21,32c-3,0-9-2-9-2     s2-8,2-13c0-4,0-6,0-6c0-5.523,4.477-10,10-10h6c5.523,0,10,4.477,10,10c0,0,0,3,0,6c0,5,2,13,2,13s-6,2-9,2" style="fill:none;stroke:#839496;stroke-width:2;stroke-linejoin:round;stroke-miterlimit:10;"/><polyline points="21,29 21,38      27,61 33,38 33,29    " style="fill:none;stroke:#839496;stroke-width:2;stroke-linejoin:round;stroke-miterlimit:10;"/><path d="M33,36     c0,2.209-2.687,4-6,4s-6-1.791-6-4" style="fill:none;stroke:#839496;stroke-width:2;stroke-linejoin:round;stroke-miterlimit:10;"/><polyline points="27,61 18,47      12,47 21,34    " style="fill:none;stroke:#839496;stroke-width:2;stroke-linejoin:round;stroke-miterlimit:10;"/><polyline points="27,61 36,47      42,47 33,34    " style="fill:none;stroke:#839496;stroke-width:2;stroke-linejoin:round;stroke-miterlimit:10;"/><path d="M53,64V53c0-6.075-3-9-9-11l-8-4" style="fill:none;stroke:#839496;stroke-width:2;stroke-miterlimit:10;"/><path d="M1,64V53c0-6.075,3-9,9-11l8-4" style="fill:none;stroke:#839496;stroke-width:2;stroke-miterlimit:10;"/></g></g></g><g id="Layer_1"/></svg>