<svg height="64px" style="enable-background:new 0 0 56 64;" version="1.1" viewBox="0 0 56 64" width="56px" xml:space="preserve" xmlns="http://www.w3.org/2000/svg" xmlns:xlink="http://www.w3.org/1999/xlink"><g id="_x33_1_x5F_entrepreneur_x5F_avatar"><g><g><path d="M39,35l7,3     c6,2,9,3.925,9,10v16" style="fill:none;stroke:#839496;stroke-width:2;stroke-linejoin:round;stroke-miterlimit:10;"/><path d="M17,35l-7,3     c-6,2-9,3.925-9,10v16" style="fill:none;stroke:#839496;stroke-width:2;stroke-linejoin:round;stroke-miterlimit:10;"/><line style="fill:none;stroke:#839496;stroke-width:2;stroke-linejoin:round;stroke-miterlimit:10;" x1="11" x2="11" y1="56" y2="64"/><line style="fill:none;stroke:#839496;stroke-width:2;stroke-linejoin:round;stroke-miterlimit:10;" x1="45" x2="45" y1="56" y2="64"/><polyline points="25,64 25,37      22,34 22,28    " style="fill:none;stroke:#839496;stroke-width:2;stroke-linejoin:round;stroke-miterlimit:10;"/><polyline points="31,64 31,37      34,34 34,28    " style="fill:none;stroke:#839496;stroke-width:2;stroke-linejoin:round;stroke-miterlimit:10;"/><polyline points="21,64 21,54      15,40 21,39 15,33 18,31 22,30    " style="fill:none;stroke:#839496;stroke-width:2;stroke-linejoin:round;stroke-miterlimit:10;"/><polyline points="35,64 35,54      41,40 35,39 41,33 38,31 34,30    " style="fill:none;stroke:#839496;stroke-width:2;stroke-linejoin:round;stroke-miterlimit:10;"/><path d="M18,15l-1-3.003V7     c0-1.656,1.344-3,3-3h1c0-1.656,1.344-3,3-3h11c2.209,0,4,1.791,4,4v7.003L38,15" style="fill:none;stroke:#839496;stroke-width:2;stroke-linejoin:round;stroke-miterlimit:10;"/><path d="M36,12v-2     c0-1.104-0.896-2-2-2V6l-4,2h-8c-1.104,0-2,0.896-2,2v2" style="fill:none;stroke:#839496;stroke-width:2;stroke-linejoin:round;stroke-miterlimit:10;"/><path d="M19,19c0,5,2,12,9,12     s9-7,9-12" style="fill:none;stroke:#839496;stroke-width:2;stroke-linejoin:round;stroke-miterlimit:10;"/><g><path d="M36,20c-2,0-1,0-3,0      s-3-3-3-3v-1c0-0.553,0.447-1,1-1h7c0.553,0,1,0.447,1,1v1C39,17,38,20,36,20z" style="fill:none;stroke:#839496;stroke-width:2;stroke-linejoin:round;stroke-miterlimit:10;"/><path d="M23,20c-2,0-1,0-3,0      s-3-3-3-3v-1c0-0.553,0.447-1,1-1h7c0.553,0,1,0.447,1,1v1C26,17,25,20,23,20z" style="fill:none;stroke:#839496;stroke-width:2;stroke-linejoin:round;stroke-miterlimit:10;"/><line style="fill:none;stroke:#839496;stroke-width:2;stroke-linejoin:round;stroke-miterlimit:10;" x1="26" x2="30" y1="17" y2="17"/></g></g></g></g><g id="Layer_1"/></svg>