<?xml version="1.0" ?><svg viewBox="0 0 64 64" xmlns="http://www.w3.org/2000/svg"><defs><style>.cls-1{fill:#999;}.cls-2{fill:#ccc;}.cls-3{fill:#5f443e;}.cls-4{fill:#7f5b53;}.cls-5{fill:#71c285;}.cls-6{fill:#f2f2f2;}.cls-7{fill:#cbb292;}.cls-8{fill:#559264;}.cls-9{fill:none;stroke:#000;stroke-linejoin:round;stroke-width:2px;}</style></defs><title/><g data-name="Layer 5" id="Layer_5"><path class="cls-1" d="M57,2a5,5,0,0,0-5,5,4.94,4.94,0,0,0,.13,1.1A4,4,0,0,0,49,12a4,4,0,0,0,.73,2.29,3,3,0,1,0,4.06,1.63A4,4,0,0,0,57,12,5,5,0,0,0,57,2Z"/><path class="cls-2" d="M52,7a4.94,4.94,0,0,0,.13,1.1A4,4,0,0,0,49,12a4,4,0,0,0,.73,2.29A3,3,0,0,0,48,17a2.89,2.89,0,0,0,.18,1,3,3,0,0,0,2.61-4.06A4,4,0,0,0,54,10a5,5,0,0,0,4.08-7.88A5.5,5.5,0,0,0,57,2,5,5,0,0,0,52,7Z"/><rect class="cls-3" height="18" width="6" x="48" y="24"/><rect class="cls-4" height="18" width="3" x="48" y="24"/><polygon class="cls-5" points="60 58 32 58 32 32 60 42 60 58"/><polyline class="cls-2" points="36 58 36 48 44 48 44 58"/><rect class="cls-6" height="10" width="5" x="36" y="48"/><polyline class="cls-2" points="48 58 48 48 56 48 56 58"/><rect class="cls-6" height="10" width="5" x="48" y="48"/><polyline class="cls-7" points="4 58 4 10 32 10 32 58"/><rect class="cls-6" height="12" width="4" x="4" y="46"/><rect class="cls-2" height="12" width="4" x="8" y="46"/><rect class="cls-6" height="12" width="4" x="12" y="46"/><rect class="cls-2" height="12" width="4" x="16" y="46"/><rect class="cls-6" height="12" width="4" x="20" y="46"/><rect class="cls-2" height="12" width="4" x="24" y="46"/><rect class="cls-6" height="12" width="4" x="28" y="46"/><rect class="cls-2" height="4" width="20" x="8" y="14"/><rect class="cls-6" height="4" width="17" x="8" y="14"/><rect class="cls-2" height="4" width="20" x="8" y="22"/><rect class="cls-6" height="4" width="17" x="8" y="22"/><rect class="cls-2" height="4" width="20" x="8" y="30"/><rect class="cls-6" height="4" width="17" x="8" y="30"/><rect class="cls-2" height="4" width="20" x="8" y="38"/><rect class="cls-6" height="4" width="17" x="8" y="38"/><polyline class="cls-8" points="6 10 6 2 30 2 30 10"/><rect class="cls-5" height="8" width="21" x="6" y="2"/><rect class="cls-3" height="4" width="60" x="2" y="58"/><rect class="cls-4" height="4" width="57" x="2" y="58"/><rect class="cls-9" height="4" width="60" x="2" y="58"/><polyline class="cls-9" points="4 58 4 10 32 10 32 58"/><polygon class="cls-9" points="60 58 32 58 32 32 60 42 60 58"/><polyline class="cls-9" points="54 39.86 54 24 48 24 48 37.71"/><path class="cls-9" d="M57,2a5,5,0,0,0-5,5,4.94,4.94,0,0,0,.13,1.1A4,4,0,0,0,49,12a4,4,0,0,0,.73,2.29,3,3,0,1,0,4.06,1.63A4,4,0,0,0,57,12,5,5,0,0,0,57,2Z"/><line class="cls-9" x1="48" x2="54" y1="28" y2="28"/><polyline class="cls-9" points="6 10 6 2 30 2 30 10"/><polyline class="cls-9" points="36 58 36 48 44 48 44 58"/><polyline class="cls-9" points="48 58 48 48 56 48 56 58"/><rect class="cls-9" height="4" width="20" x="8" y="14"/><rect class="cls-9" height="4" width="20" x="8" y="22"/><rect class="cls-9" height="4" width="20" x="8" y="30"/><rect class="cls-9" height="4" width="20" x="8" y="38"/><line class="cls-9" x1="4" x2="32" y1="46" y2="46"/><line class="cls-9" x1="8" x2="8" y1="58" y2="46"/><line class="cls-9" x1="12" x2="12" y1="58" y2="46"/><line class="cls-9" x1="16" x2="16" y1="58" y2="46"/><line class="cls-9" x1="20" x2="20" y1="58" y2="46"/><line class="cls-9" x1="24" x2="24" y1="58" y2="46"/><line class="cls-9" x1="28" x2="28" y1="58" y2="46"/><line class="cls-9" x1="9" x2="11" y1="6" y2="6"/><line class="cls-9" x1="13" x2="15" y1="6" y2="6"/><line class="cls-9" x1="17" x2="19" y1="6" y2="6"/><line class="cls-9" x1="21" x2="23" y1="6" y2="6"/><line class="cls-9" x1="25" x2="27" y1="6" y2="6"/></g></svg>