<svg id="Capa_1" enable-background="new 0 0 510.748 510.748" height="512" viewBox="0 0 510.748 510.748" width="512" xmlns="http://www.w3.org/2000/svg"><g><g><g id="XMLID_233_"><g><path d="m259.796 297.768-46.88-3.034-95.8 82.12 80.12 105.34 100.25-90.22 13.269-32.673z" fill="#01d0fb"/><path d="m305.621 255.374-36.715-8.63-55.99 47.99 84.57 97.24 56.69-51.02 4.76-26.628z" fill="#62dbfb"/><path d="m372.512 198.968-45.746-1.824-57.86 49.6 85.27 94.21 56.91-51.22 15.76-31.702z" fill="#99e6fc"/><path d="m443.356 211.764c13.44 14.86 12.28 37.81-2.58 51.26l-29.69 26.71-84.32-92.59 59.42-50.93 25.66 30.71z" fill="#c8effe"/></g></g></g><path d="m221.754 246.825-48.198 16.559-93.9 151.27 130.76 53.52 85.85-124.13 4.797-46.276z" fill="#05e39c"/><g><g id="XMLID_199_"><g><path d="m273.433 182.19-55.107 9.064-44.77 72.13 122.71 80.66 45.67-66.04 5.688-44.994z" fill="#00f2a6"/><path d="m386.511 174.804-85.448-54.872-41.267 4.502-41.47 66.82 123.61 86.75 47.1-68.11z" fill="#6cf5c2"/><path d="m404.246 124.114c16.48 11.4 20.6 34 9.2 50.49l-24.41 35.29-129.24-85.46 41.82-67.37 59.18 37z" fill="#9cf8d2"/></g></g></g><g id="XMLID_134_"><path d="m131.248 221.331-67.046 166.078c-17.306 42.869 3.413 91.641 46.281 108.947 42.859 17.302 91.641-3.413 108.947-46.281l66.295-164.219z" fill="#fed402"/><g id="XMLID_186_"><g><path d="m308.98 205.457-114.081-53.375-33.984 10.279-33.43 80.57 151.733 59.044 31.537-78.234z" fill="#fee45a"/><path d="m339.261 114.504-121.433-38.93-25.219 11.45-31.3 75.46 149.499 61.24 31.801-78.78z" fill="#fee97d"/><path d="m339.722 54.192c18.62 7.43 27.69 28.54 20.27 47.16l-17.38 43.59-150-57.92 27.17-65.49c9.34-5.49 21.02-6.78 31.87-2.45z" fill="#fef0ae"/></g></g><g><path d="m58.026 343.934v-84.57-84.56-84.57-46.44c0-20.05 16.25-36.29 36.29-36.29h94.81c20.05 0 36.3 16.24 36.3 36.29v375.75c0 46.23-37.48 83.7-83.7 83.7-46.23 0-83.7-37.47-83.7-83.7z" fill="#f9f7f8"/></g><g><g id="XMLID_173_"><g><path d="m225.426 43.794v46.44h-167.4v-46.44c0-20.05 16.25-36.29 36.29-36.29h94.81c20.05 0 36.3 16.24 36.3 36.29z" fill="#f9b1b1"/><path d="m58.026 90.234h167.4v84.57h-167.4z" fill="#f79595"/><path d="m58.026 174.804h167.4v84.56h-167.4z" fill="#f47c7c"/><path d="m58.026 259.364h167.4v84.57h-167.4z" fill="#ee6161"/></g></g></g></g><circle cx="140.023" cy="419.823" fill="#e5e1e5" r="28.466"/><g><path d="m448.914 206.73-27.603-30.529c5.365-9.065 7.28-19.631 5.372-30.096-2.098-11.507-8.552-21.509-18.172-28.163l-39.826-27.544c.251-6.43-.931-12.888-3.547-18.974-4.62-10.746-13.147-19.05-24.014-23.383l-88.073-35.116c-10.675-4.256-22.306-4.141-32.75.146-7.946-8.062-18.983-13.071-31.171-13.071h-94.815c-24.147 0-43.792 19.645-43.792 43.792v375.757c0 50.288 40.912 91.199 91.199 91.199 22.885 0 43.826-8.475 59.855-22.448.23-.164.455-.338.67-.531l170.744-153.661c3.078-2.771 3.328-7.513.558-10.592-2.772-3.08-7.517-3.329-10.592-.558l-7.034 6.331-22.855-25.277 35.882-51.883 32.621 36.078-14.842 13.358c-3.078 2.771-3.328 7.513-.558 10.592 1.481 1.646 3.525 2.483 5.577 2.483 1.788 0 3.582-.635 5.016-1.925l49.037-44.132c8.677-7.845 13.778-18.6 14.366-30.282s-3.408-22.895-11.253-31.571zm-36.988-57.935c1.379 7.565-.271 15.216-4.646 21.541l-20.365 29.447-46.364-32.064 24.546-61.563 34.881 24.124c6.326 4.374 10.569 10.949 11.948 18.515zm-71.287 117.9-31.002-21.441 25.214-63.239 43.531 30.105zm-46.276 66.912-15.641-10.817 25.215-63.24 28.169 19.482zm11.544-119.498-21.736-8.667c-3.846-1.533-8.209.341-9.744 4.189-1.534 3.848.342 8.21 4.189 9.745l21.735 8.666-25.764 64.618-41.665-16.613v-74.89l15.874 6.329c.911.363 1.851.535 2.775.535 2.979 0 5.798-1.788 6.969-4.724 1.534-3.848-.341-8.21-4.188-9.745l-21.43-8.544v-74.89l98.749 39.373zm-87.985-46.809h-84.956c-4.142 0-7.5 3.358-7.5 7.5s3.358 7.5 7.5 7.5h84.956v69.565h-152.399v-69.565h35.48c4.142 0 7.5-3.358 7.5-7.5s-3.358-7.5-7.5-7.5h-35.48v-69.565h152.398v69.565zm-152.399 99.565h152.398v69.565h-152.398zm167.399 25.33 36.11 14.398-36.11 90.566zm46.735 89.047 8.317 9.198-38.873 34.983zm-32.411 20.494 25.777-64.651 12.809 8.858zm.25-374.877 88.073 35.116c7.144 2.848 12.75 8.308 15.787 15.373 2.089 4.857 2.79 10.074 2.099 15.181-.012.059-.018.119-.029.178-.32 2.261-.91 4.5-1.778 6.675l-14.423 36.175-104.303-41.588v-50.177c0-6.378-1.382-12.437-3.844-17.908 6.018-1.701 12.447-1.406 18.418.975zm-153.181-11.859h94.815c15.875 0 28.792 12.916 28.792 28.792v38.944h-152.399v-38.944c0-15.876 12.916-28.792 28.792-28.792zm-28.792 404.549v-68.119h152.398v68.119c0 42.017-34.183 76.199-76.199 76.199s-76.199-34.183-76.199-76.199zm279.25-80.225-45.649 41.081-10.703-11.837 35.882-51.883zm100.413-101.777c-.386 7.681-3.74 14.751-9.433 19.898l-23.032 20.728-35.007-38.717 34.916-50.487 25.156 27.821c5.159 5.705 7.787 13.076 7.4 20.757z"/><path d="m140.023 383.857c-19.832 0-35.966 16.134-35.966 35.966s16.134 35.966 35.966 35.966 35.966-16.134 35.966-35.966-16.134-35.966-35.966-35.966zm0 56.933c-11.561 0-20.966-9.405-20.966-20.966s9.405-20.966 20.966-20.966 20.966 9.405 20.966 20.966-9.405 20.966-20.966 20.966z"/></g></g></svg>