<svg height="512pt" viewBox="0 -35 512 512" width="512pt" xmlns="http://www.w3.org/2000/svg"><path d="m7.5 7.5h209.355469v356.203125h-209.355469zm0 0" fill="#666"/><path d="m192.855469 7.5h24v356.199219h-24zm0 0" fill="#403d3c"/><path d="m7.5 77.5h497v356.203125h-497zm0 0" fill="#fff4f1"/><path d="m273.460938 325.851562h75.808593v69.746094h-75.808593zm0 0" fill="#f9e075"/><path d="m168.0625 325.851562h75.8125v69.746094h-75.8125zm0 0" fill="#f9cd45"/><path d="m62.667969 325.851562h75.808593v69.746094h-75.808593zm0 0" fill="#ffb271"/><path d="m273.460938 223.226562h75.808593v69.746094h-75.808593zm0 0" fill="#f85e49"/><path d="m378.855469 223.226562h75.8125v69.746094h-75.8125zm0 0" fill="#ff9f4d"/><path d="m62.667969 223.226562h75.808593v69.746094h-75.808593zm0 0" fill="#9b43a9"/><path d="m168.0625 223.226562h75.8125v69.746094h-75.8125zm0 0" fill="#9b43a9"/><path d="m378.855469 120.605469h75.8125v69.746093h-75.8125zm0 0" fill="#f195d6"/><path d="m480.5 77.5h24v356.199219h-24zm0 0" fill="#ecedef"/><path d="m62.667969 120.605469h75.808593v69.746093h-75.808593zm0 0" fill="#a3e2ee"/><path d="m168.0625 120.605469h75.8125v69.746093h-75.8125zm0 0" fill="#a3e2ee"/><path d="m431.667969 120.605469h23v69.746093h-23zm0 0" fill="#e480be"/><path d="m115.476562 120.605469h23v69.746093h-23zm0 0" fill="#65cee3"/><path d="m273.460938 120.605469h75.808593v69.746093h-75.808593zm0 0" fill="#65cee3"/><path d="m220.875 120.605469h23v69.746093h-23zm0 0" fill="#65cee3"/><path d="m431.667969 223.226562h23v69.746094h-23zm0 0" fill="#fb900d"/><path d="m326.269531 120.605469h23v69.746093h-23zm0 0" fill="#1bacd6"/><path d="m115.476562 223.226562h23v69.746094h-23zm0 0" fill="#893aa8"/><path d="m220.875 223.226562h23v69.746094h-23zm0 0" fill="#672c7e"/><path d="m326.269531 223.226562h23v69.746094h-23zm0 0" fill="#ba4737"/><path d="m115.476562 325.851562h23v69.746094h-23zm0 0" fill="#fca63d"/><path d="m220.875 325.851562h23v69.746094h-23zm0 0" fill="#f8b53c"/><path d="m326.269531 325.851562h23v69.746094h-23zm0 0" fill="#f9cd45"/><path d="m378.855469 325.851562h75.8125v69.746094h-75.8125zm0 0" fill="#16b770"/><path d="m431.667969 325.851562h23v69.746094h-23zm0 0" fill="#009c56"/><g fill="#18191b"><path d="m504.5 70h-117.050781c-4.144531 0-7.5 3.359375-7.5 7.5s3.355469 7.5 7.5 7.5h109.550781v341.199219h-482v-341.199219h338.882812c4.140626 0 7.5-3.359375 7.5-7.5s-3.359374-7.5-7.5-7.5h-129.527343v-62.5c0-4.140625-3.359375-7.5-7.5-7.5h-209.355469c-4.144531 0-7.5 3.359375-7.5 7.5v67.816406h.324219c-.210938.691406-.324219 1.425782-.324219 2.183594v356.199219c0 4.144531 3.355469 7.5 7.5 7.5h497c4.144531 0 7.5-3.355469 7.5-7.5v-356.199219c0-4.140625-3.355469-7.5-7.5-7.5zm-489.5-55h194.355469v55h-194.355469zm0 0"/><path d="m145.980469 120.605469c0-4.140625-3.359375-7.5-7.5-7.5h-75.8125c-4.144531 0-7.5 3.359375-7.5 7.5v69.746093c0 4.140626 3.355469 7.5 7.5 7.5h75.8125c4.140625 0 7.5-3.359374 7.5-7.5zm-15 62.246093h-60.8125v-54.746093h60.8125zm0 0"/><path d="m251.375 120.605469c0-4.140625-3.355469-7.5-7.5-7.5h-75.8125c-4.140625 0-7.5 3.359375-7.5 7.5v69.746093c0 4.140626 3.359375 7.5 7.5 7.5h75.8125c4.144531 0 7.5-3.359374 7.5-7.5zm-15 62.246093h-60.8125v-54.746093h60.8125zm0 0"/><path d="m356.769531 120.605469c0-4.140625-3.355469-7.5-7.5-7.5h-75.808593c-4.144532 0-7.5 3.359375-7.5 7.5v69.746093c0 4.140626 3.355468 7.5 7.5 7.5h75.808593c4.144531 0 7.5-3.359374 7.5-7.5zm-15 62.246093h-60.808593v-54.746093h60.808593zm0 0"/><path d="m145.980469 223.226562c0-4.140624-3.359375-7.5-7.5-7.5h-75.8125c-4.144531 0-7.5 3.359376-7.5 7.5v69.746094c0 4.144532 3.355469 7.5 7.5 7.5h75.8125c4.140625 0 7.5-3.355468 7.5-7.5zm-15 62.246094h-60.8125v-54.746094h60.8125zm0 0"/><path d="m251.375 223.226562c0-4.140624-3.355469-7.5-7.5-7.5h-75.8125c-4.140625 0-7.5 3.359376-7.5 7.5v69.746094c0 4.144532 3.359375 7.5 7.5 7.5h75.8125c4.144531 0 7.5-3.355468 7.5-7.5zm-15 62.246094h-60.8125v-54.746094h60.8125zm0 0"/><path d="m356.769531 223.226562c0-4.140624-3.355469-7.5-7.5-7.5h-75.808593c-4.144532 0-7.5 3.359376-7.5 7.5v69.746094c0 4.144532 3.355468 7.5 7.5 7.5h75.808593c4.144531 0 7.5-3.355468 7.5-7.5zm-15 62.246094h-60.808593v-54.746094h60.808593zm0 0"/><path d="m462.167969 223.226562c0-4.140624-3.359375-7.5-7.5-7.5h-75.8125c-4.144531 0-7.5 3.359376-7.5 7.5v69.746094c0 4.144532 3.355469 7.5 7.5 7.5h75.8125c4.140625 0 7.5-3.355468 7.5-7.5zm-15 62.246094h-60.8125v-54.746094h60.8125zm0 0"/><path d="m138.480469 318.351562h-75.8125c-4.144531 0-7.5 3.359376-7.5 7.5v69.746094c0 4.140625 3.355469 7.5 7.5 7.5h75.8125c4.140625 0 7.5-3.359375 7.5-7.5v-69.746094c0-4.144531-3.359375-7.5-7.5-7.5zm-7.5 69.746094h-60.8125v-54.746094h60.8125zm0 0"/><path d="m243.875 318.351562h-75.8125c-4.140625 0-7.5 3.359376-7.5 7.5v69.746094c0 4.140625 3.359375 7.5 7.5 7.5h75.8125c4.144531 0 7.5-3.359375 7.5-7.5v-69.746094c0-4.144531-3.355469-7.5-7.5-7.5zm-7.5 69.746094h-60.8125v-54.746094h60.8125zm0 0"/><path d="m349.269531 318.351562h-75.808593c-4.144532 0-7.5 3.359376-7.5 7.5v69.746094c0 4.140625 3.355468 7.5 7.5 7.5h75.808593c4.144531 0 7.5-3.359375 7.5-7.5v-69.746094c0-4.144531-3.355469-7.5-7.5-7.5zm-7.5 69.746094h-60.808593v-54.746094h60.808593zm0 0"/><path d="m378.855469 403.097656h75.8125c4.140625 0 7.5-3.359375 7.5-7.5v-69.746094c0-4.140624-3.359375-7.5-7.5-7.5h-75.8125c-4.144531 0-7.5 3.359376-7.5 7.5v69.746094c0 4.140625 3.359375 7.5 7.5 7.5zm7.5-69.746094h60.8125v54.746094h-60.8125zm0 0"/><path d="m462.167969 120.605469c0-4.140625-3.359375-7.5-7.5-7.5h-75.8125c-4.144531 0-7.5 3.359375-7.5 7.5v69.746093c0 4.140626 3.355469 7.5 7.5 7.5h75.8125c4.140625 0 7.5-3.359374 7.5-7.5zm-15 62.246093h-60.8125v-54.746093h60.8125zm0 0"/></g></svg>