<?xml version="1.0" ?><svg viewBox="0 0 64 64" xmlns="http://www.w3.org/2000/svg"><g data-name="filed outline" id="filed_outline"><circle cx="12" cy="36" r="4" style="fill:none;stroke:#000;stroke-linecap:round;stroke-linejoin:round;stroke-width:2px"/><circle cx="32" cy="32" r="29" style="fill:#e8a73b"/><ellipse cx="31" cy="32" rx="28" ry="28.975" style="fill:#fbb540"/><path d="M3.127,34.67q.1,1.081.277,2.137c.023.136.048.27.072.405.13.716.28,1.426.462,2.124.015.056.032.11.047.166.182.681.391,1.352.62,2.012.031.089.059.179.09.267.24.669.507,1.325.794,1.971.05.114.1.227.154.341.3.646.613,1.282.956,1.9.035.064.073.126.109.19.352.627.725,1.242,1.122,1.839.018.027.035.056.053.083.405.6.836,1.191,1.285,1.762.059.077.119.153.179.228q.675.843,1.407,1.634c.047.051.1.1.143.15a29.069,29.069,0,0,0,3.321,3.02l.136.107q.882.676,1.816,1.287l.149.1A28.991,28.991,0,0,0,20.4,58.58l.043.019c.7.306,1.422.582,2.152.833l.159.053c.737.248,1.485.47,2.247.659A29,29,0,0,0,25,3.856c-.761.189-1.509.411-2.245.658l-.162.055q-1.1.375-2.151.832L20.4,5.42A28.926,28.926,0,0,0,16.32,7.61l-.151.1q-.931.609-1.814,1.285l-.138.108A29.219,29.219,0,0,0,10.9,12.119c-.048.051-.1.1-.144.151q-.733.789-1.407,1.634c-.06.075-.12.151-.179.227-.449.572-.88,1.158-1.285,1.763-.018.027-.035.056-.053.083-.4.6-.769,1.211-1.122,1.838-.036.064-.074.127-.11.191-.342.62-.658,1.255-.955,1.9-.052.114-.1.227-.154.341-.287.645-.554,1.3-.794,1.971-.031.088-.059.178-.09.267-.229.66-.438,1.331-.62,2.012-.015.056-.032.11-.047.166-.182.7-.332,1.408-.462,2.124-.024.135-.049.269-.072.4q-.177,1.057-.277,2.138c-.011.127-.019.256-.029.383C3.039,30.469,3,31.23,3,32s.039,1.531.1,2.287C3.108,34.414,3.116,34.543,3.127,34.67Z" style="fill:#fbedbf"/><path d="M22.941,4.451a29,29,0,0,0,0,55.1,28.947,28.947,0,0,0,0-55.1Z" style="fill:#428dc5"/><circle cx="53.5" cy="35.5" r="3.5" style="fill:#ea9d2d"/><circle cx="51" cy="21" r="2" style="fill:#ea9d2d"/><circle cx="35" cy="39" r="2" style="fill:#3775a4"/><path d="M29.981,16.387a4,4,0,1,0-7.963-.773,3.956,3.956,0,0,0,0,.566,8.651,8.651,0,0,0-3.606.021c-3.98.854-6.64,4.188-5.941,7.447s4.493,5.21,8.473,4.356,6.641-4.189,5.941-7.448a4.836,4.836,0,0,0-.183-.636A3.988,3.988,0,0,0,29.981,16.387Z" style="fill:#3775a4"/><circle cx="24.5" cy="48.5" r="4" style="fill:#3775a4"/><circle cx="37" cy="27" r="4" style="fill:#3775a4"/><rect height="2" style="fill:#3775a4" width="2" x="20" y="37"/><rect height="2" style="fill:#ea9d2d" width="2" x="47" y="48"/><rect height="2" style="fill:#3775a4" width="2" x="34" y="47"/><rect height="2" style="fill:#3775a4" width="2" x="12" y="45"/><rect height="2" style="fill:#3775a4" width="2" x="36" y="17"/><path d="M12,31a5,5,0,1,0,5,5A5.006,5.006,0,0,0,12,31Zm0,8a3,3,0,1,1,3-3A3,3,0,0,1,12,39Z"/><path d="M32,2a29.963,29.963,0,0,0-7.209.881.311.311,0,0,1-.032,0L24.7,2.9c-.726.182-1.439.394-2.143.628q-.258.086-.514.175c-.615.217-1.223.45-1.82.705-.282.12-.557.25-.835.378-.312.145-.62.3-.926.452-.628.316-1.24.655-1.84,1.012l-.244.145A29.88,29.88,0,0,0,6.355,16.446l-.015.025q-.652,1.082-1.215,2.217c-.076.153-.153.306-.227.46-.174.368-.344.736-.5,1.112Q4.08,21,3.8,21.757c-.1.279-.194.562-.287.844q-.242.731-.446,1.475c-.059.216-.119.431-.173.649-.154.616-.285,1.24-.4,1.87-.032.179-.067.357-.1.537q-.172,1.05-.27,2.123c-.013.147-.023.294-.034.442-.058.761-.1,1.527-.1,2.3s.039,1.542.1,2.3c.011.148.021.3.034.442q.1,1.073.27,2.123c.029.18.064.358.1.537.115.63.246,1.254.4,1.87.054.218.114.433.173.649q.2.745.446,1.475c.093.282.185.565.287.844q.276.759.592,1.5c.159.376.329.744.5,1.112.074.154.151.307.227.46q.563,1.136,1.215,2.217l.015.025A29.88,29.88,0,0,0,16.381,57.6l.244.145c.6.357,1.212.7,1.84,1.012.306.155.614.307.926.452.278.128.553.258.835.378.6.255,1.205.488,1.82.7q.256.09.514.175c.7.234,1.417.446,2.143.628l.056.017a.311.311,0,0,1,.032,0A30,30,0,1,0,32,2ZM23.006,58.51c-.153-.053-.308-.1-.46-.156-.557-.2-1.1-.42-1.641-.651-.275-.12-.549-.244-.82-.372s-.536-.263-.8-.4c-.573-.294-1.138-.6-1.688-.933l-.185-.112A28.19,28.19,0,0,1,6.9,44.392c-.068-.14-.139-.278-.205-.419q-.249-.522-.478-1.055-.289-.685-.544-1.386c-.1-.266-.185-.536-.273-.806-.151-.46-.293-.924-.42-1.394q-.086-.315-.164-.633-.2-.831-.357-1.679c-.03-.166-.061-.331-.089-.5q-.158-.975-.249-1.969c-.012-.14-.021-.281-.032-.421C4.036,33.427,4,32.717,4,32s.036-1.427.089-2.132c.011-.14.02-.281.032-.421q.09-.993.249-1.969c.028-.167.059-.332.089-.5q.155-.848.357-1.679.078-.318.164-.633c.127-.47.269-.934.42-1.394.088-.27.176-.54.273-.806q.253-.7.544-1.387.228-.533.478-1.054c.066-.141.137-.279.205-.419a28.19,28.19,0,0,1,10.51-11.5L17.6,8c.55-.331,1.115-.639,1.688-.933.266-.135.531-.272.8-.4s.544-.252.82-.372c.538-.231,1.083-.452,1.641-.651.152-.054.307-.1.46-.156.655-.221,1.316-.428,1.994-.6a28,28,0,0,1,0,54.226C24.322,58.938,23.661,58.731,23.006,58.51ZM32,60a28.043,28.043,0,0,1-2.9-.15,29.97,29.97,0,0,0,0-55.7A28,28,0,1,1,32,60Z"/><path d="M50.048,32.613A4.5,4.5,0,1,0,53.1,31.018,4.469,4.469,0,0,0,50.048,32.613ZM53.5,33a2.5,2.5,0,1,1-.226.01C53.354,33,53.429,33,53.5,33Z"/><path d="M48,21a3,3,0,1,0,3-3A3,3,0,0,0,48,21Zm4,0a1,1,0,1,1-1-1A1,1,0,0,1,52,21Z"/><path d="M38,39a3,3,0,1,0-3,3A3,3,0,0,0,38,39Zm-4,0a1,1,0,1,1,1,1A1,1,0,0,1,34,39Z"/><path d="M26.483,11.024a5,5,0,0,0-5.39,4.011,9.879,9.879,0,0,0-2.888.188c-4.513.968-7.522,4.842-6.708,8.635a6.484,6.484,0,0,0,3.526,4.4,8.84,8.84,0,0,0,4.045.948,9.951,9.951,0,0,0,2.089-.225c4.412-.946,7.388-4.67,6.758-8.38a4.99,4.99,0,0,0-1.432-9.577Zm.045,7.912a1,1,0,0,0-.764,1.321,3.917,3.917,0,0,1,.147.509c.582,2.715-1.739,5.523-5.174,6.26a7.217,7.217,0,0,1-4.8-.547,4.528,4.528,0,0,1-2.485-3.041c-.582-2.714,1.738-5.522,5.173-6.259A7.947,7.947,0,0,1,20.288,17a7.385,7.385,0,0,1,1.524.157,1.014,1.014,0,0,0,.855-.247,1.068,1.068,0,0,0,.35-.84,2.414,2.414,0,0,1,0-.361,3,3,0,1,1,3.514,3.226Z"/><path d="M24.5,43.5a5,5,0,1,0,5,5A5.006,5.006,0,0,0,24.5,43.5Zm0,8a3,3,0,1,1,3-3A3,3,0,0,1,24.5,51.5Z"/><path d="M37,32a5,5,0,1,0-5-5A5.006,5.006,0,0,0,37,32Zm0-8a3,3,0,1,1-3,3A3,3,0,0,1,37,24Z"/><rect height="2" width="2" x="20" y="37"/><rect height="2" width="2" x="47" y="48"/><rect height="2" width="2" x="34" y="47"/><rect height="2" width="2" x="12" y="45"/><rect height="2" width="2" x="36" y="17"/></g></svg>