<?xml version="1.0" ?><svg viewBox="0 0 512 512" xmlns="http://www.w3.org/2000/svg"><g data-name="filled outline" id="filled_outline"><path d="M24,320v24a16,16,0,0,0,16,16h88v1.37a54.627,54.627,0,0,1-4.16,20.91c-.24.58-.49,1.15-.75,1.72A54.511,54.511,0,0,1,112,400v24h96V400a54.665,54.665,0,0,1-16-38.63V360h88a16,16,0,0,0,16-16V320Z" style="fill:#eaeae8"/><path d="M196.91,384H123.09c.26-.57.51-1.14.75-1.72A54.627,54.627,0,0,0,128,361.37V360h64v1.37A54.538,54.538,0,0,0,196.91,384Z" style="fill:#dbdbdb"/><path d="M296,152V328H24V152a16,16,0,0,1,16-16H280A16,16,0,0,1,296,152Z" style="fill:#3bd6d0"/><path d="M88,176H72a8,8,0,0,1,0-16H88a8,8,0,0,1,0,16Z" style="fill:#3fe6e0"/><path d="M488,104v24a8,8,0,0,1-16,0V104a8.011,8.011,0,0,0-8-8H352a8.011,8.011,0,0,0-8,8v24a8,8,0,0,1-16,0V104a24.022,24.022,0,0,1,16-22.62A23.6,23.6,0,0,1,352,80H464A24.032,24.032,0,0,1,488,104Z" style="fill:#428dc5"/><polygon points="488 392 328 400 328 120 488 120 488 392" style="fill:#4799cf"/><polygon points="488 392 344 400 344 120 488 120 488 392" style="fill:#6cbae5"/><rect height="40" style="fill:#4799cf" width="96" x="360" y="152"/><rect height="40" style="fill:#428dc5" width="96" x="360" y="192"/><path d="M488,392v16a16,16,0,0,1-16,16H344a16,16,0,0,1-16-16V392Z" style="fill:#3775a4"/><path d="M488,392v16a16,16,0,0,1-16,16H360a16,16,0,0,1-16-16V392Z" style="fill:#428dc5"/><rect height="16" style="fill:#428dc5" width="16" x="368" y="272"/><rect height="16" style="fill:#428dc5" width="16" x="400" y="272"/><rect height="16" style="fill:#428dc5" width="16" x="432" y="272"/><rect height="16" style="fill:#428dc5" width="16" x="432" y="304"/><rect height="16" style="fill:#428dc5" width="16" x="400" y="304"/><rect height="16" style="fill:#428dc5" width="16" x="368" y="304"/><path d="M272,176V328H256V176H120a8,8,0,0,1,0-16H256A16.021,16.021,0,0,1,272,176Z" style="fill:#3fe6e0"/><path d="M344,81.38V120H328V104A24.022,24.022,0,0,1,344,81.38Z" style="fill:#3775a4"/><path d="M488,112v-8a24.027,24.027,0,0,0-24-24H352a24.027,24.027,0,0,0-24,24v8a8,8,0,0,0-8,8V408a24.028,24.028,0,0,0,24,24H472a24.028,24.028,0,0,0,24-24V120A8,8,0,0,0,488,112Zm-144-8a8.009,8.009,0,0,1,8-8H464a8.009,8.009,0,0,1,8,8v8H344ZM480,408a8.009,8.009,0,0,1-8,8H344a8.009,8.009,0,0,1-8-8v-8H480Zm0-24H336V128H480Z"/><path d="M360,240h96a8,8,0,0,0,8-8V152a8,8,0,0,0-8-8H360a8,8,0,0,0-8,8v80A8,8,0,0,0,360,240Zm8-80h80v24H368Zm0,40h80v24H368Z"/><rect height="16" width="16" x="368" y="272"/><rect height="16" width="16" x="400" y="272"/><rect height="16" width="16" x="432" y="272"/><rect height="16" width="16" x="432" y="304"/><rect height="16" width="16" x="400" y="304"/><rect height="16" width="16" x="368" y="304"/><path d="M40,368h79.529a46.267,46.267,0,0,1-13.186,26.343A8,8,0,0,0,104,400v24a8,8,0,0,0,8,8h96a8,8,0,0,0,8-8V400a8,8,0,0,0-2.343-5.657A46.267,46.267,0,0,1,200.471,368H280a24.028,24.028,0,0,0,24-24V152a24.028,24.028,0,0,0-24-24H40a24.028,24.028,0,0,0-24,24V344A24.028,24.028,0,0,0,40,368Zm160,48H120V403.186A62.064,62.064,0,0,0,135.656,368h48.688A62.064,62.064,0,0,0,200,403.186ZM32,152a8.009,8.009,0,0,1,8-8H280a8.009,8.009,0,0,1,8,8V320H272V176a16.019,16.019,0,0,0-16-16H120a8,8,0,0,0,0,16H256V320H32Zm0,184H288v8a8.009,8.009,0,0,1-8,8H40a8.009,8.009,0,0,1-8-8Z"/><path d="M88,160H72a8,8,0,0,0,0,16H88a8,8,0,0,0,0-16Z"/></g></svg>