<?xml version="1.0" encoding="iso-8859-1"?>
<!-- Generator: Adobe Illustrator 19.0.0, SVG Export Plug-In . SVG Version: 6.00 Build 0)  -->
<svg xmlns="http://www.w3.org/2000/svg" xmlns:xlink="http://www.w3.org/1999/xlink" version="1.1" id="Layer_1" x="0px" y="0px" viewBox="0 0 511.804 511.804" style="enable-background:new 0 0 511.804 511.804;" xml:space="preserve" width="512" height="512">
<g>
	<g>
		<g>
			<g>
				<circle style="fill:#71D8FD;" cx="255.902" cy="255.904" r="248.396"/>
			</g>
		</g>
		<g>
			<g>
				<g>
					<path style="fill:#FFCD74;" d="M382.041,334.385H129.762c-9.395,0-17.012-7.616-17.012-17.012V194.435       c0-9.395,7.616-17.012,17.012-17.012h252.279c9.395,0,17.012,7.616,17.012,17.012v122.939       C399.053,326.769,391.437,334.385,382.041,334.385z"/>
				</g>
			</g>
		</g>
		<g>
			<g>
				<path style="fill:#60C3F7;" d="M255.902,7.508c-1.734,0-3.461,0.03-5.186,0.066C357.35,39.029,435.183,137.661,435.183,254.487      c0,120.084-82.228,220.96-193.449,249.401c4.691,0.264,9.412,0.411,14.168,0.411c137.185,0,248.396-111.211,248.396-248.396      S393.087,7.508,255.902,7.508z"/>
			</g>
		</g>
	</g>
	<g>
		<path d="M437.251,75.357C389.207,27.1,325.267,0.344,257.195,0.014c-0.008,0-0.016,0-0.024,0c-0.866-0.02-1.81-0.018-2.56,0    c0,0-0.001,0-0.002,0C186.537,0.344,122.597,27.1,74.552,75.357C26.477,123.644,0.001,187.763,0.001,255.904    c0,33.607,6.417,66.281,19.072,97.112c1.572,3.831,5.952,5.662,9.786,4.09c3.832-1.573,5.663-5.955,4.091-9.787    c-4.999-12.179-8.95-24.667-11.868-37.397c22.251,27.135,61.156,49.988,112.078,64.521    c14.717,52.573,38.368,92.803,66.652,115.758c-23.15-5.524-45.424-14.46-66.01-26.587c-35.462-20.891-65.192-50.71-85.977-86.233    c-2.092-3.575-6.688-4.778-10.261-2.686c-3.575,2.092-4.778,6.686-2.687,10.261c22.074,37.727,53.648,69.396,91.311,91.583    c38.778,22.844,83.182,35.035,128.419,35.255c0.425,0.01,0.858,0.01,1.293,0.01c0.447,0,0.89-0.001,1.273-0.01    c0.007,0,0.013,0,0.02,0c68.072-0.33,132.012-27.086,180.057-75.343c48.075-48.287,74.551-112.406,74.551-180.546    S485.327,123.644,437.251,75.357z M386.313,170.304c-1.026-5.405-2.151-10.737-3.365-15.984    c32.645,10.217,60.15,24.223,80.058,40.867c19.502,16.305,30.888,34.563,33.304,53.217h-89.759v-53.97    C406.552,182.376,397.798,172.332,386.313,170.304z M263.402,136.123c35.868,0.565,71.212,5.189,102.957,13.452    c1.689,6.619,3.246,13.411,4.621,20.349H263.402V136.123z M263.402,121.123V15.463c19.885,2.422,39.3,14.454,56.515,35.123    c17.181,20.629,31.501,48.933,41.785,82.372C330.98,125.698,297.392,121.644,263.402,121.123z M248.402,15.468v105.654    c-18.152,0.273-36.163,1.535-53.644,3.765c-4.108,0.524-7.015,4.28-6.49,8.389c0.523,4.109,4.287,7.017,8.389,6.491    c16.856-2.15,34.228-3.373,51.745-3.644v33.802H140.824c1.376-6.941,2.933-13.736,4.624-20.358    c5.743-1.496,11.628-2.888,17.566-4.14c4.053-0.855,6.646-4.833,5.791-8.886c-0.855-4.053-4.835-6.649-8.887-5.791    c-3.292,0.694-6.565,1.436-9.815,2.206c10.282-33.437,24.603-61.74,41.783-82.369C209.089,29.932,228.489,17.904,248.402,15.468z     M125.49,170.304c-11.485,2.028-20.239,12.072-20.239,24.129v53.97H15.493c2.416-18.654,13.803-36.913,33.304-53.217    c19.907-16.644,47.413-30.65,80.058-40.867C127.641,159.567,126.517,164.9,125.49,170.304z M120.251,194.434    c0-5.244,4.267-9.51,9.511-9.51h126.14h124.069c0.011,0,0.022,0.001,0.033,0.001c0.011,0,0.022-0.001,0.034-0.001h2.004    c5.244,0,9.511,4.266,9.511,9.51v61.47v61.47c0,5.244-4.267,9.51-9.511,9.51h-2.029h-124.11h-126.14    c-5.244,0-9.511-4.266-9.511-9.51V194.434z M145.445,362.233c-1.689-6.619-3.246-13.411-4.621-20.349h107.578v33.801    C212.534,375.119,177.189,370.495,145.445,362.233z M263.402,341.884H370.98c-1.375,6.938-2.932,13.73-4.621,20.349    c-31.744,8.262-67.088,12.886-102.957,13.452V341.884z M386.313,341.504c11.485-2.028,20.239-12.072,20.239-24.129v-53.97h89.759    c-2.416,18.654-13.803,36.913-33.304,53.217c-19.907,16.644-47.413,30.65-80.058,40.867    C384.163,352.241,385.287,346.908,386.313,341.504z M490.753,201.926c-22.246-27.153-61.164-50.022-112.111-64.561    c-14.733-52.631-38.42-92.891-66.746-115.834c43.125,10.218,82.683,32.227,114.724,64.41    C458.902,118.363,480.828,158.372,490.753,201.926z M85.182,85.94c32.046-32.188,71.612-54.199,114.745-64.415    c-28.343,22.942-52.033,63.205-66.766,115.839c-50.948,14.54-89.865,37.409-112.111,64.561    C30.975,158.372,52.901,118.363,85.182,85.94z M15.493,263.404h89.759v53.97c0,12.057,8.754,22.102,20.239,24.129    c1.026,5.405,2.151,10.737,3.365,15.984c-32.645-10.217-60.15-24.223-80.058-40.867C29.296,300.316,17.909,282.058,15.493,263.404    z M150.103,378.849c30.721,7.261,64.309,11.315,98.299,11.835v105.66c-19.885-2.422-39.3-14.454-56.515-35.123    C174.706,440.593,160.386,412.289,150.103,378.849z M426.622,425.867c-32.063,32.205-71.654,54.223-114.813,64.431    c13.066-10.558,25.227-24.845,35.993-42.528c2.154-3.538,1.032-8.152-2.506-10.307c-3.539-2.153-8.152-1.032-10.307,2.506    c-20.332,33.394-45.518,53.145-71.587,56.357V390.684c33.992-0.52,67.581-4.575,98.304-11.836    c-2.747,8.925-5.79,17.54-9.106,25.715c-1.557,3.838,0.292,8.212,4.131,9.769c0.924,0.375,1.878,0.552,2.816,0.552    c2.963,0,5.771-1.768,6.953-4.683c4.562-11.246,8.634-23.259,12.136-35.757c50.951-14.539,89.871-37.41,112.118-64.563    C480.828,353.436,458.902,393.444,426.622,425.867z"/>
		<path d="M146.924,304.636c1.571,1.179,3.601,1.777,6.031,1.777h24.741c10.047,0,18.199-2.627,24.229-7.809    c6.052-5.201,9.12-13.511,9.12-24.701v-38.161c0-11.188-3.068-19.499-9.12-24.701c-6.032-5.181-14.184-7.809-24.229-7.809h-24.741    c-2.431,0-4.46,0.598-6.031,1.777c-1.617,1.212-2.437,2.664-2.437,4.314v90.998C144.488,301.972,145.307,303.424,146.924,304.636z     M191.874,273.903c0,10.48-4.638,15.575-14.177,15.575H163.66v-69.31h14.037c9.539,0,14.177,5.095,14.177,15.575V273.903z"/>
		<path d="M228.464,304.808c1.835,1.065,4.083,1.605,6.681,1.605c2.501,0,4.724-0.539,6.606-1.602    c1.977-1.115,2.979-2.672,2.979-4.629v-54.197l29.112,54.434c2.132,3.978,5.808,5.995,10.924,5.995    c2.501,0,4.724-0.539,6.605-1.602c1.978-1.115,2.98-2.672,2.98-4.629v-90.858c0-2.054-0.983-3.613-2.923-4.636    c-1.838-0.965-4.08-1.455-6.663-1.455c-2.585,0-4.826,0.49-6.663,1.456c-1.938,1.021-2.922,2.581-2.922,4.636v54.138    l-26.038-50.32c-2.203-4.116-4.175-6.734-6.028-8.005c-1.85-1.263-4.531-1.904-7.971-1.904c-2.592,0-4.837,0.515-6.672,1.53    c-1.934,1.068-2.914,2.65-2.914,4.701v90.718C225.559,302.137,226.537,303.693,228.464,304.808z"/>
		<path d="M348.224,287.749c-2.883,1.982-6.55,2.987-10.899,2.987c-3.18,0-6.123-0.573-8.749-1.702    c-2.636-1.133-4.678-2.394-6.069-3.748c-1.466-1.421-2.986-2.73-4.519-3.889c-1.619-1.224-3.108-1.844-4.426-1.844    c-2.207,0-4.2,1.173-5.923,3.486c-1.688,2.267-2.545,4.555-2.545,6.799c0,4.46,3.283,8.603,9.757,12.315    c6.383,3.661,14.133,5.518,23.033,5.518c10.048,0,18.27-2.66,24.437-7.907c6.191-5.268,9.331-12.84,9.331-22.506    c0-5.738-1.148-10.825-3.412-15.12c-2.264-4.292-5.117-7.621-8.479-9.896c-3.305-2.234-6.945-4.338-10.821-6.254    c-3.877-1.913-7.514-3.519-10.808-4.771c-3.238-1.231-5.983-2.846-8.16-4.798c-2.146-1.921-3.189-4.108-3.189-6.686    c0-3.21,1.278-5.659,3.909-7.487c2.651-1.842,6.482-2.776,11.387-2.776c4.466,0,8.579,0.877,12.226,2.607    c5.1,2.424,6.474,2.704,7.064,2.704c2.414,0,4.346-1.201,5.742-3.571c1.345-2.286,2.026-4.538,2.026-6.692    c0-2.343-1.023-4.403-3.042-6.123c-1.962-1.668-4.522-2.911-7.61-3.692c-3.034-0.766-5.946-1.325-8.657-1.663    c-2.716-0.336-5.323-0.506-7.749-0.506c-4.305,0-8.438,0.506-12.287,1.505c-3.849,1-7.518,2.597-10.905,4.744    c-3.415,2.166-6.179,5.237-8.213,9.128c-2.031,3.882-3.062,8.423-3.062,13.498c0,4.528,0.839,8.62,2.493,12.163    c1.653,3.548,3.865,6.43,6.573,8.568c2.665,2.105,5.654,4.027,8.884,5.712c3.231,1.686,6.465,3.22,9.61,4.56    c3.146,1.343,6.072,2.748,8.693,4.173c2.579,1.404,4.688,3.19,6.269,5.311c1.558,2.094,2.347,4.51,2.347,7.18    C352.48,282.944,351.088,285.781,348.224,287.749z"/>
	</g>
</g>















</svg>
