<?xml version="1.0" ?><svg viewBox="0 0 512 512" xmlns="http://www.w3.org/2000/svg"><title/><g data-name="filled outline" id="filled_outline"><rect height="336" rx="20" style="fill:#dcdbd6" width="464" x="24" y="48"/><polygon points="328 432 184 432 200 384 312 384 328 432" style="fill:#bbbab6"/><path d="M160,432H352a16,16,0,0,1,16,16v16a0,0,0,0,1,0,0H144a0,0,0,0,1,0,0V448A16,16,0,0,1,160,432Z" style="fill:#dcdbd6"/><rect height="272" style="fill:#529fff" width="400" x="56" y="80"/><rect height="252.872" style="fill:#5ebef7" width="371.871" x="70.064" y="89.564"/><path d="M104,160H408a0,0,0,0,1,0,0V294a10,10,0,0,1-10,10H114a10,10,0,0,1-10-10V160A0,0,0,0,1,104,160Z" style="fill:#dcdbd6"/><path d="M408,160V294a10,10,0,0,1-10,10H312V160Z" style="fill:#dcdbd6"/><path d="M114,128H398a10,10,0,0,1,10,10v22a0,0,0,0,1,0,0H104a0,0,0,0,1,0,0V138A10,10,0,0,1,114,128Z" style="fill:#007af6"/><path d="M408,160V294a10,10,0,0,1-10,10H312V160Z" style="fill:#b5cf7f"/><path d="M468,40H44A28.032,28.032,0,0,0,16,68V364a28.032,28.032,0,0,0,28,28H188.9l-10.667,32H160a24.028,24.028,0,0,0-24,24v16a8,8,0,0,0,8,8H368a8,8,0,0,0,8-8V448a24.028,24.028,0,0,0-24-24H333.767L323.1,392H468a28.032,28.032,0,0,0,28-28V68A28.032,28.032,0,0,0,468,40ZM352,440a8.009,8.009,0,0,1,8,8v8H152v-8a8.009,8.009,0,0,1,8-8ZM195.1,424l10.666-32H306.234L316.9,424ZM480,364a12.013,12.013,0,0,1-12,12H44a12.013,12.013,0,0,1-12-12V68A12.013,12.013,0,0,1,44,56H468a12.013,12.013,0,0,1,12,12Z"/><path d="M456,72H56a8,8,0,0,0-8,8V352a8,8,0,0,0,8,8H456a8,8,0,0,0,8-8V80A8,8,0,0,0,456,72Zm-8,272H64V88H448Z"/><path d="M114,312H398a18.021,18.021,0,0,0,18-18V138a18.021,18.021,0,0,0-18-18H114a18.021,18.021,0,0,0-18,18V294A18.021,18.021,0,0,0,114,312Zm286-18a2,2,0,0,1-2,2H320V168h80ZM112,138a2,2,0,0,1,2-2H398a2,2,0,0,1,2,2v14H112Zm0,30H304V296H114a2,2,0,0,1-2-2Z"/><path d="M149.011,234.99a8,8,0,0,0,11.312-11.314l-13.01-13.009,13.011-13.01a8,8,0,0,0-11.314-11.314L130.343,205.01a8,8,0,0,0,0,11.314Z"/><path d="M236.687,210.667l-13.01,13.009a8,8,0,1,0,11.312,11.314l18.667-18.666a8,8,0,0,0,0-11.314L234.99,186.343a8,8,0,0,0-11.314,11.314Z"/><path d="M179.089,236.488a7.993,7.993,0,0,0,10.733-3.578l18.666-37.332a8,8,0,1,0-14.31-7.155l-18.666,37.332A8,8,0,0,0,179.089,236.488Z"/><path d="M272,232h8a8,8,0,0,0,0-16h-8a8,8,0,0,0,0,16Z"/><path d="M136,264a8,8,0,0,0,8,8h24a8,8,0,0,0,0-16H144A8,8,0,0,0,136,264Z"/><path d="M192,264a8,8,0,0,0,8,8h16a8,8,0,0,0,0-16H200A8,8,0,0,0,192,264Z"/><path d="M280,256H248a8,8,0,0,0,0,16h32a8,8,0,0,0,0-16Z"/><path d="M344,200h8a8,8,0,0,0,0-16h-8a8,8,0,0,0,0,16Z"/><path d="M344,232h32a8,8,0,0,0,0-16H344a8,8,0,0,0,0,16Z"/><path d="M344,264h16a8,8,0,0,0,0-16H344a8,8,0,0,0,0,16Z"/><circle cx="384" cy="192" r="8"/></g></svg>