<svg id="Capa_1" enable-background="new 0 0 512 512" height="512" viewBox="0 0 512 512" width="512" xmlns="http://www.w3.org/2000/svg"><g><g><path d="m192.974 320.025c-.003-.001-.007-.003-.01-.004 0 .002 0 .004-.001.006-50.369-22.386-86.305-71.071-91.185-128.052-54.081 24.137-91.778 78.377-91.778 141.427 0 85.496 69.308 154.804 154.804 154.804 34.1 0 65.617-11.034 91.196-29.714-.673-.802-69.908-45.047-63.026-138.467z" fill="#b4bdd1"/><path d="m410.222 191.975c-4.733 55.286-39.131 104.843-91.196 128.05 4.694 54.807-19.594 106.748-63.026 138.466 25.579 18.68 57.097 29.714 91.196 29.714 85.496 0 154.804-69.308 154.804-154.804 0-63.049-37.697-117.289-91.778-141.426z" fill="#4ab7ff"/><path d="m101.778 191.975c49.591-22.133 108.702-16.917 154.222 16.329-3.706 2.711 33.597-29.706 91.196-29.706 22.446 0 43.773 4.784 63.026 13.376-1.483 17.32-1.483 17.321 0 0 .377-4.41.582-8.869.582-13.377 0-85.496-69.308-154.804-154.804-154.804-90.558.001-161.99 77.423-154.222 168.182.459 5.362.459 5.362 0 0z" fill="#dcaee7"/><path d="m256 208.304c-45.457-33.2-104.567-38.49-154.222-16.329 4.941 57.703 41.49 105.965 91.185 128.052 6.596-46.738 21.231-81.149 63.037-111.723z" fill="#fff398"/><path d="m410.222 191.975c-52.063-23.236-114.743-16.362-161.109 21.673 2.244-1.84 4.54-3.621 6.887-5.335 35.172 25.686 59.097 65.841 63.026 111.71 51.188-22.837 86.378-71.771 91.196-128.048z" fill="#fff398"/><path d="m319.026 320.025v-.001c-3.929-45.87-27.854-86.025-63.026-111.711-85.149 62.183-84.359 188.563-.007 250.173.002.002.005.003.007.005 43.356-31.663 67.728-83.566 63.026-138.466z" fill="#d2edff"/></g><g><path d="m420.633 185.843c4.134-94.372-71.543-172.101-164.633-172.101-93.235 0-168.731 77.875-164.635 172.048-55.726 27.769-91.365 84.929-91.365 147.56 0 131.629 147.34 209.665 256 137.201 108.645 72.453 256-5.547 256-137.201 0-64.501-37.252-120.456-91.367-147.507zm-93.534 118.81c-6.616-37.738-26.047-71.289-54.023-95.652 38.935-23.297 85.721-26.48 126.374-10.696-6.113 44.657-32.96 84.052-72.351 106.348zm-71.099 141.086c-33.067-26.883-53.28-67.237-53.592-111.314 36.857 12.519 74.655 11.233 107.184 0-.299 42.23-19.098 83.271-53.592 111.314zm-52.254-132.148c.598-4.368 1.334-8.461 2.353-12.869.009-.041.019-.081.029-.121 7.393-31.855 25.333-59.707 49.919-79.679 27.799 22.616 47.058 55.268 52.195 92.672-32.978 12.803-70.408 13.23-104.496-.003zm52.254-279.849c79.486 0 144.21 64.379 144.79 143.73-47.957-16.529-101.758-10.024-144.731 18.556-15.491-10.289-32.894-18.065-51.688-22.698-5.358-1.32-10.78 1.953-12.103 7.315-1.322 5.362 1.954 10.781 7.316 12.103 14.164 3.492 27.424 9.023 39.501 16.229-29.465 25.648-47.683 59.548-54.064 94.984-.042.23-.081.461-.122.692-38.228-21.639-66.062-60.391-72.354-106.384 3.685-1.426 7.434-2.704 11.209-3.818 5.296-1.564 8.322-7.127 6.758-12.423-1.564-5.297-7.125-8.317-12.423-6.759-2.305.681-4.597 1.435-6.879 2.22.571-79.36 65.298-143.747 144.79-143.747zm-236 299.608c0-52.521 28.53-100.654 73.695-126.15.043.245.085.491.129.736 9.445 52.448 43.446 95.609 88.737 118.177-2.119 48.64 17.19 97.29 56.448 131.536-95.434 57.188-219.009-11.474-219.009-124.299zm252.992 124.299c38.708-33.767 58.594-82.192 56.439-131.532 45.202-22.52 79.282-65.63 88.745-118.181.042-.23.081-.461.122-.692 43.962 24.885 73.702 72.085 73.702 126.106 0 112.856-123.606 181.468-219.008 124.299z"/><path d="m160.67 188.597c5.545 0 10-4.498 10-10 0-6.402-5.892-11.02-11.95-9.8-4.801.975-8.05 5.149-8.05 9.8 0 5.463 4.432 10 10 10z"/></g></g></svg>