<svg id="Layer_1" enable-background="new 0 0 512 512" height="512" viewBox="0 0 512 512" width="512" xmlns="http://www.w3.org/2000/svg"><g><g clip-rule="evenodd" fill-rule="evenodd"><path d="m13.323 446.634h46.234c3.203 0 5.811 2.636 5.811 5.839v46.204c0 3.203-2.608 5.84-5.811 5.84h-46.234c-3.203 0-5.811-2.637-5.811-5.84v-46.204c0-3.203 2.608-5.839 5.811-5.839zm0-219.547h46.234c3.203 0 5.811 2.608 5.811 5.812v46.204c0 3.203-2.608 5.839-5.811 5.839h-46.234c-3.203 0-5.811-2.636-5.811-5.839v-46.204c0-3.204 2.608-5.812 5.811-5.812zm0-219.574h46.234c3.203 0 5.811 2.607 5.811 5.811v46.232c0 3.203-2.608 5.812-5.811 5.812h-46.234c-3.203 0-5.811-2.608-5.811-5.812v-46.233c0-3.203 2.608-5.81 5.811-5.81zm219.574 0h46.206c3.203 0 5.839 2.607 5.839 5.811v46.232c0 3.203-2.636 5.812-5.839 5.812h-46.206c-3.203 0-5.811-2.608-5.811-5.812v-46.233c0-3.203 2.608-5.81 5.811-5.81zm219.575 0h46.206c3.203 0 5.839 2.607 5.839 5.811v46.232c0 3.203-2.636 5.812-5.839 5.812h-46.206c-3.203 0-5.839-2.608-5.839-5.812v-46.233c-.001-3.203 2.636-5.81 5.839-5.81zm0 219.574h46.206c3.203 0 5.839 2.608 5.839 5.812v46.204c0 3.203-2.636 5.839-5.839 5.839h-46.206c-3.203 0-5.839-2.636-5.839-5.839v-46.204c-.001-3.204 2.636-5.812 5.839-5.812zm0 219.547h46.206c3.203 0 5.839 2.636 5.839 5.839v46.204c0 3.203-2.636 5.84-5.839 5.84h-46.206c-3.203 0-5.839-2.637-5.839-5.84v-46.204c-.001-3.203 2.636-5.839 5.839-5.839zm-219.575 0h46.206c3.203 0 5.839 2.636 5.839 5.839v46.204c0 3.203-2.636 5.84-5.839 5.84h-46.206c-3.203 0-5.811-2.637-5.811-5.84v-46.204c0-3.203 2.608-5.839 5.811-5.839z" fill="#95d6a4"/><path d="m141.054 109.787h212.771c3.203 0 5.839 2.637 5.839 5.84v46.206c0 3.203-2.636 5.839-5.839 5.839h-71.633c-3.77 0-5.811 2.041-5.811 5.811v214.302c0 3.203-2.637 5.811-5.84 5.811h-46.205c-3.203 0-5.839-2.607-5.839-5.811v-214.302c0-4.479-1.842-5.811-5.811-5.811h-71.632c-3.203 0-5.839-2.636-5.839-5.839v-46.206c-.001-3.203 2.636-5.84 5.839-5.84z" fill="#90d8f9"/><path d="m324.713 109.787h29.112c3.203 0 5.839 2.637 5.839 5.84v46.206c0 3.203-2.636 5.839-5.839 5.839h-29.112c3.203 0 5.811-2.636 5.811-5.839v-46.206c0-3.203-2.608-5.84-5.811-5.84zm-42.521 57.885c-3.77 0-5.811 2.041-5.811 5.811v214.302c0 3.203-2.637 5.811-5.84 5.811h-29.111c3.203 0 5.811-2.607 5.811-5.811v-214.302c0-3.77 2.041-5.811 5.84-5.811z" fill="#6bbef6"/><path d="m252.258 207.669h154.575c3.203 0 5.839 2.607 5.839 5.811v31.21c0 3.203-2.636 5.84-5.839 5.84h-50.032c-3.855 0-5.811 1.899-5.811 5.811v131.445c0 3.203-2.636 5.811-5.84 5.811h-31.21c-3.203 0-5.811-2.607-5.811-5.811v-131.446c0-3.543-2.013-5.811-5.84-5.811h-50.032c-3.203 0-5.839-2.637-5.839-5.84v-31.21c.001-3.203 2.637-5.81 5.84-5.81z" fill="#fc7070"/><path d="m377.721 207.669h29.112c3.203 0 5.839 2.607 5.839 5.811v31.21c0 3.203-2.636 5.84-5.839 5.84h-29.112c3.203 0 5.84-2.637 5.84-5.84v-31.21c0-3.204-2.637-5.811-5.84-5.811zm-20.92 42.86c-3.855 0-5.811 1.899-5.811 5.811v131.445c0 3.203-2.636 5.811-5.84 5.811h-29.112c3.203 0 5.811-2.607 5.811-5.811v-131.445c0-3.911 1.984-5.811 5.839-5.811z" fill="#d15a63"/></g><path d="m446.632 439.148h21.459v-146.722h-21.459c-4.139 0-7.483-3.346-7.483-7.484v-57.855c0-4.167 3.345-7.513 7.483-7.513h21.459v-146.693h-21.459c-4.139 0-7.483-3.375-7.483-7.514v-21.43h-146.723v21.43c0 4.139-3.345 7.514-7.483 7.514h-57.857c-4.167 0-7.512-3.375-7.512-7.514v-21.43h-146.695v21.43c0 4.139-3.373 7.514-7.512 7.514h-21.43v146.693h21.431c4.139 0 7.512 3.346 7.512 7.513v57.855c0 4.139-3.373 7.484-7.512 7.484h-21.431v146.723h21.431c4.139 0 7.512 3.347 7.512 7.485v21.457h146.695v-21.457c0-4.139 3.345-7.485 7.512-7.485h57.857c4.139 0 7.483 3.347 7.483 7.485v21.457h146.723v-21.457c-.001-4.139 3.344-7.486 7.482-7.486zm-349.941-181.135c-4.139 0-7.512-3.345-7.512-7.483s3.373-7.512 7.512-7.512h90.511c4.139 0 7.483 3.373 7.483 7.512s-3.345 7.483-7.483 7.483zm0 71.547c-4.139 0-7.512-3.344-7.512-7.512 0-4.139 3.373-7.483 7.512-7.483h90.511c4.139 0 7.483 3.344 7.483 7.483 0 4.168-3.345 7.512-7.483 7.512zm0 71.547c-4.139 0-7.512-3.373-7.512-7.512s3.373-7.483 7.512-7.483h90.511c4.139 0 7.483 3.345 7.483 7.483s-3.345 7.512-7.483 7.512zm0-107.32c-4.139 0-7.512-3.346-7.512-7.484 0-4.167 3.373-7.512 7.512-7.512h90.511c4.139 0 7.483 3.345 7.483 7.512 0 4.139-3.345 7.484-7.483 7.484zm0 71.547c-4.139 0-7.512-3.374-7.512-7.513s3.373-7.482 7.512-7.482h90.511c4.139 0 7.483 3.344 7.483 7.482s-3.345 7.513-7.483 7.513zm215.861-165.177c4.139 0 7.512 3.373 7.512 7.512s-3.373 7.482-7.512 7.482h-58.622v27.866h54.199c4.139 0 7.484 3.345 7.484 7.512v135.583h27.864v-135.583c0-4.167 3.345-7.512 7.512-7.512h54.171v-27.866h-58.62c-4.139 0-7.512-3.344-7.512-7.482 0-4.139 3.373-7.512 7.512-7.512h66.133c4.139 0 7.484 3.373 7.484 7.512v42.86c0 4.139-3.345 7.483-7.484 7.483h-54.199v135.583c0 4.139-3.345 7.512-7.483 7.512h-42.86c-4.139 0-7.512-3.373-7.512-7.512v-135.582h-16.753v135.583c0 4.139-3.345 7.512-7.483 7.512h-57.885c-4.139 0-7.483-3.373-7.483-7.512v-218.44h-75.799c-4.139 0-7.512-3.346-7.512-7.483v-57.885c0-4.139 3.373-7.483 7.512-7.483h95.245c4.138 0 7.483 3.345 7.483 7.483 0 4.139-3.345 7.512-7.483 7.512h-87.733v42.86h75.771c4.139 0 7.512 3.346 7.512 7.513v218.44h42.86v-128.1h-22.45c-4.139 0-7.483-3.345-7.483-7.483v-42.86c0-4.139 3.345-7.512 7.483-7.512h22.45v-32.485c0-4.167 3.345-7.513 7.513-7.513h75.771v-42.86h-87.733c-4.139 0-7.483-3.373-7.483-7.512s3.345-7.483 7.483-7.483h95.246c4.139 0 7.483 3.345 7.483 7.483v57.885c0 4.138-3.345 7.483-7.483 7.483h-75.799v25.002h28.683zm170.534 238.991h21.43c4.139 0 7.483 3.347 7.483 7.485v57.883c0 4.14-3.345 7.483-7.483 7.483h-57.884c-4.139 0-7.483-3.344-7.483-7.483v-21.43h-146.723v21.43c0 4.14-3.345 7.483-7.483 7.483h-57.857c-4.167 0-7.512-3.344-7.512-7.483v-21.43h-146.695v21.43c0 4.14-3.373 7.483-7.512 7.483h-57.855c-4.139.001-7.512-3.343-7.512-7.482v-57.883c0-4.139 3.373-7.485 7.512-7.485h21.43v-146.723h-21.43c-4.139 0-7.512-3.346-7.512-7.484v-57.855c0-4.167 3.373-7.513 7.512-7.513h21.43v-146.693h-21.43c-4.139 0-7.512-3.375-7.512-7.514v-57.854c0-4.139 3.373-7.513 7.512-7.513h57.856c4.139 0 7.512 3.374 7.512 7.513v21.43h146.695v-21.43c0-4.139 3.345-7.513 7.512-7.513h57.857c4.139 0 7.483 3.374 7.483 7.513v21.43h146.723v-21.43c0-4.139 3.345-7.513 7.483-7.513h57.884c4.138 0 7.483 3.374 7.483 7.513v57.855c0 4.139-3.345 7.514-7.483 7.514h-21.43v146.693h21.43c4.139 0 7.483 3.346 7.483 7.513v57.855c0 4.139-3.345 7.484-7.483 7.484h-21.43v146.721zm13.919 14.998h-42.861v42.859h42.861zm-439.149-439.151h-42.861v42.86h42.861zm219.575 0h-42.861v42.86h42.861zm219.574 0h-42.861v42.86h42.861zm0 219.575h-42.861v42.859h42.861zm-439.149 0h-42.861v42.859h42.861zm0 219.576h-42.861v42.859h42.861zm219.575 0h-42.861v42.859h42.861z"/></g></svg>