<?xml version="1.0" encoding="iso-8859-1"?>
<!-- Generator: Adobe Illustrator 19.0.0, SVG Export Plug-In . SVG Version: 6.00 Build 0)  -->
<svg version="1.1" id="Capa_1" xmlns="http://www.w3.org/2000/svg" xmlns:xlink="http://www.w3.org/1999/xlink" x="0px" y="0px"
	 viewBox="0 0 512 512" style="enable-background:new 0 0 512 512;" xml:space="preserve">
<rect x="15.53" y="87.671" style="fill:#E7DFF1;" width="480.939" height="336.658"/>
<rect x="15.53" y="87.671" style="fill:#855FB8;" width="96.188" height="336.658"/>
<polygon style="fill:#7B49AD;" points="39.577,400.282 39.577,87.671 15.53,87.671 15.53,424.329 111.718,424.329 111.718,400.282 
	"/>
<rect x="111.718" y="87.671" style="fill:#9E7FC6;" width="96.188" height="336.658"/>
<rect x="207.906" y="87.671" style="fill:#B69FD4;" width="96.188" height="336.658"/>
<rect x="304.094" y="87.671" style="fill:#CEBFE2;" width="96.188" height="336.658"/>
<rect x="111.718" y="400.282" style="fill:#855FB8;" width="96.188" height="24.047"/>
<rect x="207.906" y="400.282" style="fill:#9E7FC6;" width="96.188" height="24.047"/>
<rect x="304.094" y="400.282" style="fill:#B69FD4;" width="96.188" height="24.047"/>
<rect x="400.282" y="400.282" style="fill:#CEBFE2;" width="96.188" height="24.047"/>
<polygon style="fill:#FF9D4A;" points="191.875,55.609 159.812,71.64 127.75,55.609 127.75,7.515 191.875,7.515 "/>
<polygon style="fill:#F48A16;" points="143.781,7.515 127.75,7.515 127.75,55.609 159.812,71.64 175.843,63.624 143.781,47.593 "/>
<polygon style="fill:#FF9D4A;" points="320.125,456.391 352.188,440.36 384.25,456.391 384.25,504.485 320.125,504.485 "/>
<polygon style="fill:#F48A16;" points="336.157,464.407 368.219,448.376 352.188,440.36 320.125,456.391 320.125,504.485 
	336.157,504.485 "/>
<path d="M496.47,80.157H15.53c-4.151,0-7.515,3.365-7.515,7.515v336.658c0,4.15,3.364,7.515,7.515,7.515H496.47
	c4.151,0,7.515-3.365,7.515-7.515V87.671C503.984,83.521,500.621,80.157,496.47,80.157z M23.045,95.186h81.159v321.628H23.045
	V95.186z M119.233,416.814V95.186h81.159v41.581c0,4.15,3.364,7.515,7.515,7.515s7.515-3.365,7.515-7.515V95.186h81.159v321.628
	h-81.159V171.836c0-4.15-3.364-7.515-7.515-7.515s-7.515,3.365-7.515,7.515v244.978H119.233z M311.609,416.814V95.186h81.159
	v321.628H311.609z M488.955,416.814h-81.159V95.186h81.159V416.814z"/>
<path d="M124.389,62.33l32.063,16.031c2.097,1.048,4.625,1.048,6.722,0l32.063-16.031c2.545-1.272,4.154-3.875,4.154-6.721V7.515
	c0-4.15-3.364-7.515-7.515-7.515h-64.125c-4.151,0-7.515,3.365-7.515,7.515v48.094C120.235,58.455,121.843,61.057,124.389,62.33z
	 M135.264,15.029h49.096v35.935l-24.548,12.274l-24.548-12.274V15.029z"/>
<path d="M387.611,449.67l-32.063-16.031c-2.115-1.058-4.607-1.058-6.722,0l-32.063,16.031c-2.545,1.272-4.154,3.875-4.154,6.721
	v48.094c0,4.15,3.364,7.515,7.515,7.515h64.125c4.151,0,7.515-3.365,7.515-7.515v-48.094
	C391.765,453.545,390.157,450.943,387.611,449.67z M376.736,496.971H327.64v-35.935l24.548-12.274l24.548,12.274V496.971z"/>
<g>
</g>
<g>
</g>
<g>
</g>
<g>
</g>
<g>
</g>
<g>
</g>
<g>
</g>
<g>
</g>
<g>
</g>
<g>
</g>
<g>
</g>
<g>
</g>
<g>
</g>
<g>
</g>
<g>
</g>
</svg>
