<svg id="Capa_1" enable-background="new 0 0 512 512" height="512" viewBox="0 0 512 512" width="512" xmlns="http://www.w3.org/2000/svg"><g><g><path d="m498.787 87.5 5.713 16v94.875l-16.266 17 16.266 17v127.25l-16.266 18.133 16.266 15.867v95.875c0 8.28-6.72 15-15 15h-85.25l-17-3.755-17 3.755h-97.25l-17-4.734-17 4.734h-97.25l-17-5.074-17 5.074h-84.25l-1.309-1.33c-8.28 0-13.191-7.209-13.191-15.489l4.34-400.181z" fill="#857e87"/><path d="m504.5 87.5-257.968-13-239.032 13v110.88l4.564 15.599-4.564 18.401v127.25l3.579 17-3.579 17v95.87c0 8.284 6.716 15 15 15h1v-391c0-5.523 4.477-10 10-10h471z" fill="#6f6571"/><g fill="#f9f8f9"><path d="m239 87.5h34v417h-34z"/><path d="m370.25 87.5h34v417h-34z"/><path d="m107.75 87.5h34v417h-34z"/></g><g fill="#e8e8e8"><path d="m273 75.83v27.67h-34v-28.59l7.53-.41z"/><path d="m404.25 82.45v21.05h-34v-22.77z"/><path d="m141.75 80.2v23.3h-34v-21.45z"/></g><path d="m11.079 390.83 12.421 2.795h481v-34h-481l-12.421 2.524z" fill="#e8e8e8"/><path d="m11.079 229.383 12.421 2.992h481v-34h-481l-12.421 2.157z" fill="#e8e8e8"/><g fill="#dcdbdd"><path d="m370.25 359.63h34v34h-34z"/><path d="m239 359.63h34v34h-34z"/><path d="m107.75 359.63h34v34h-34z"/><path d="m107.75 198.38h34v34h-34z"/><path d="m239 198.38h34v34h-34z"/><path d="m370.25 198.38h34v34h-34z"/><g><path d="m7.5 359.63h16v34h-16z"/><path d="m7.5 198.38h16v34h-16z"/></g></g><path d="m504.5 22.5v65h-497v-65c0-8.28 6.72-15 15-15h467c8.28 0 15 6.72 15 15z" fill="#f9f8f9"/><g><g><path d="m114.042 58.17-22.602-19.59-9.736 10.506.018-.005c-2.609 2.7-4.222 6.368-4.222 10.419 0 8.284 6.716 15 15 15 4.227 0 8.038-1.755 10.765-4.568l-.001.013z" fill="#e8e8e8"/><circle cx="103.5" cy="47.5" fill="#ffe07d" r="15"/></g><g><path d="m170.042 58.17-22.602-19.59-9.736 10.506.018-.005c-2.61 2.699-4.222 6.368-4.222 10.418 0 8.284 6.716 15 15 15 4.227 0 8.038-1.755 10.765-4.568l-.001.013z" fill="#e8e8e8"/><circle cx="159.5" cy="47.5" fill="#afefa5" r="15"/></g><g><path d="m58.042 58.17-22.602-19.59-9.736 10.506.018-.005c-2.609 2.7-4.222 6.368-4.222 10.419 0 8.284 6.716 15 15 15 4.227 0 8.038-1.755 10.765-4.568l-.001.013z" fill="#e8e8e8"/><circle cx="47.5" cy="47.5" fill="#e15f78" r="15"/></g></g></g><g><path d="m504.5 269.25c4.143 0 7.5-3.358 7.5-7.5v-239.25c0-12.407-10.094-22.5-22.5-22.5h-467c-12.406 0-22.5 10.093-22.5 22.5v98.5c0 4.142 3.357 7.5 7.5 7.5s7.5-3.358 7.5-7.5v-26h85.25v95.875h-85.25v-33.375c0-4.142-3.357-7.5-7.5-7.5s-7.5 3.358-7.5 7.5v332c0 12.407 10.094 22.5 22.5 22.5h467c12.406 0 22.5-10.093 22.5-22.5v-192.5c0-4.142-3.357-7.5-7.5-7.5s-7.5 3.358-7.5 7.5v55.125h-85.25v-112.25h85.25v21.875c0 4.142 3.357 7.5 7.5 7.5zm-164.5 97.875h22.75v19h-82.25v-19h24.5c4.143 0 7.5-3.358 7.5-7.5s-3.357-7.5-7.5-7.5h-24.5v-112.25h82.25v112.25h-22.75c-4.143 0-7.5 3.358-7.5 7.5s3.357 7.5 7.5 7.5zm-325-127.25h85.25v112.25h-85.25zm100.25 0h19v112.25h-19zm116.25-144.875v95.875h-82.25v-95.875zm34 0v95.875h-19v-95.875zm97.25 0v95.875h-82.25v-95.875zm-131.25 272.125v19h-82.25v-19zm-82.25-15v-112.25h82.25v112.25zm97.25 15h19v19h-19zm0-15v-112.25h19v112.25zm0-127.25v-19h19v19zm-15-19v19h-82.25v-19zm-97.25 19h-19v-19h19zm0 142.25v19h-19v-19zm0 34v95.875h-19v-95.875zm15 0h82.25v95.875h-82.25zm97.25 0h19v95.875h-19zm34 0h82.25v95.875h-82.25zm97.25 0h19v95.875h-19zm0-15v-19h19v19zm-97.25-161.25v-19h82.25v19zm97.25-19h19v19h-19zm0-15v-95.875h19v95.875zm34-95.875h85.25v95.875h-85.25zm-396.75-72.5c0-4.136 3.364-7.5 7.5-7.5h467c4.136 0 7.5 3.364 7.5 7.5v57.5h-482zm100.25 72.5h19v95.875h-19zm-15 110.875v19h-85.25v-19zm-85.25 283.625v-88.375h24c4.143 0 7.5-3.358 7.5-7.5s-3.357-7.5-7.5-7.5h-24v-19h85.25v19h-26.25c-4.143 0-7.5 3.358-7.5 7.5s3.357 7.5 7.5 7.5h26.25v95.875h-77.75c-4.136 0-7.5-3.364-7.5-7.5zm474.5 7.5h-77.75v-95.875h85.25v88.375c0 4.136-3.364 7.5-7.5 7.5zm7.5-129.875v19h-85.25v-19zm-100.25-15h-19v-112.25h19zm15-127.25v-19h85.25v19z"/><path d="m47.5 25c-12.406 0-22.5 10.093-22.5 22.5s10.094 22.5 22.5 22.5 22.5-10.093 22.5-22.5-10.094-22.5-22.5-22.5zm0 30c-4.136 0-7.5-3.364-7.5-7.5s3.364-7.5 7.5-7.5 7.5 3.364 7.5 7.5-3.364 7.5-7.5 7.5z"/><path d="m126 47.5c0-12.407-10.094-22.5-22.5-22.5s-22.5 10.093-22.5 22.5 10.094 22.5 22.5 22.5 22.5-10.093 22.5-22.5zm-22.5 7.5c-4.136 0-7.5-3.364-7.5-7.5s3.364-7.5 7.5-7.5 7.5 3.364 7.5 7.5-3.364 7.5-7.5 7.5z"/><path d="m159.5 70c12.406 0 22.5-10.093 22.5-22.5s-10.094-22.5-22.5-22.5-22.5 10.093-22.5 22.5 10.094 22.5 22.5 22.5zm0-30c4.136 0 7.5 3.364 7.5 7.5s-3.364 7.5-7.5 7.5-7.5-3.364-7.5-7.5 3.364-7.5 7.5-7.5z"/></g></g></svg>