<svg height="512pt" viewBox="0 0 512 512" width="512pt" xmlns="http://www.w3.org/2000/svg"><path d="m485.808594 504.5h-459.617188c-10.324218 0-18.691406-8.367188-18.691406-18.691406v-459.617188c0-10.324218 8.367188-18.691406 18.691406-18.691406h459.617188c10.324218 0 18.691406 8.367188 18.691406 18.691406v459.617188c0 10.324218-8.367188 18.691406-18.691406 18.691406zm0 0" fill="#e9feff"/><path d="m485.808594 7.5h-37.980469v497h37.980469c10.324218 0 18.691406-8.367188 18.691406-18.691406v-459.617188c0-10.324218-8.367188-18.691406-18.691406-18.691406zm0 0" fill="#c4f2f2"/><path d="m485.808594 7.5h-459.617188c-10.324218 0-18.691406 8.367188-18.691406 18.691406v55.730469h497v-55.730469c0-10.324218-8.367188-18.691406-18.691406-18.691406zm0 0" fill="#67dde0"/><path d="m485.808594 7.5h-37.980469v74.421875h56.671875v-55.730469c0-10.324218-8.367188-18.691406-18.691406-18.691406zm0 0" fill="#20aba7"/><g fill="#e9feff"><path d="m379.925781 44.710938c0 5.195312-4.214843 9.410156-9.410156 9.410156s-9.410156-4.214844-9.410156-9.410156c0-5.195313 4.214843-9.410157 9.410156-9.410157s9.410156 4.214844 9.410156 9.410157zm0 0"/><path d="m425.03125 44.710938c0 5.195312-4.214844 9.410156-9.410156 9.410156-5.195313 0-9.410156-4.214844-9.410156-9.410156 0-5.195313 4.214843-9.410157 9.410156-9.410157 5.195312 0 9.410156 4.214844 9.410156 9.410157zm0 0"/><path d="m470.136719 44.710938c0 5.195312-4.214844 9.410156-9.410157 9.410156-5.195312 0-9.410156-4.214844-9.410156-9.410156 0-5.195313 4.214844-9.410157 9.410156-9.410157 5.195313 0 9.410157 4.214844 9.410157 9.410157zm0 0"/></g><path d="m279.042969 238.867188v-37.238282c0-12.707031-10.335938-23.042968-23.042969-23.042968s-23.042969 10.335937-23.042969 23.042968v37.238282h-24.523437v-37.238282c0-26.230468 21.335937-47.570312 47.566406-47.570312s47.566406 21.339844 47.566406 47.570312v37.238282zm0 0" fill="#45748c"/><path d="m313.4375 324.351562h-114.875c-5.300781 0-9.597656-4.296874-9.597656-9.597656v-70.042968c0-5.300782 4.296875-9.597657 9.597656-9.597657h114.875c5.296875 0 9.59375 4.296875 9.59375 9.597657v70.042968c.003906 5.300782-4.292969 9.597656-9.59375 9.597656zm0 0" fill="#465058"/><path d="m428.953125 451.933594h-345.90625c-8.960937 0-16.226563-7.265625-16.226563-16.226563v-57.679687c0-8.960938 7.265626-16.226563 16.226563-16.226563h345.90625c8.960937 0 16.226563 7.265625 16.226563 16.226563v57.679687c0 8.960938-7.265626 16.226563-16.226563 16.226563zm0 0" fill="#ff8c51"/><path d="m233.511719 37.210938h-182.652344c-4.140625 0-7.5 3.355468-7.5 7.5 0 4.140624 3.359375 7.5 7.5 7.5h182.652344c4.144531 0 7.5-3.359376 7.5-7.5 0-4.144532-3.355469-7.5-7.5-7.5zm0 0"/><path d="m99.191406 425.894531c1.464844 1.464844 3.382813 2.199219 5.300782 2.199219 1.921874 0 3.839843-.734375 5.304687-2.199219l8.421875-8.421875 8.421875 8.421875c1.464844 1.464844 3.386719 2.199219 5.304687 2.199219 1.917969 0 3.839844-.734375 5.304688-2.199219 2.929688-2.925781 2.929688-7.675781 0-10.605469l-8.421875-8.421874 8.421875-8.421876c2.929688-2.929687 2.929688-7.675781 0-10.605468-2.929688-2.929688-7.675781-2.929688-10.605469 0l-8.421875 8.421875-8.421875-8.421875c-2.933593-2.929688-7.679687-2.929688-10.609375 0-2.929687 2.929687-2.929687 7.679687 0 10.605468l8.421875 8.421876-8.421875 8.421874c-2.929687 2.929688-2.929687 7.679688 0 10.605469zm0 0"/><path d="m168.082031 425.894531c1.464844 1.464844 3.382813 2.199219 5.304688 2.199219 1.917969 0 3.835937-.734375 5.300781-2.199219l8.421875-8.421875 8.421875 8.421875c1.464844 1.464844 3.382812 2.199219 5.304688 2.199219 1.917968 0 3.839843-.734375 5.304687-2.199219 2.925781-2.925781 2.925781-7.675781 0-10.605469l-8.421875-8.421874 8.421875-8.421876c2.925781-2.929687 2.925781-7.675781 0-10.605468-2.929687-2.929688-7.679687-2.929688-10.609375 0l-8.421875 8.421875-8.417969-8.421875c-2.929687-2.929688-7.679687-2.929688-10.609375 0-2.929687 2.929687-2.929687 7.679687 0 10.605468l8.421875 8.421876-8.421875 8.421874c-2.929687 2.929688-2.929687 7.679688 0 10.605469zm0 0"/><path d="m236.972656 425.894531c1.464844 1.464844 3.382813 2.199219 5.300782 2.199219 1.921874 0 3.839843-.734375 5.304687-2.199219l8.421875-8.421875 8.421875 8.421875c1.464844 1.464844 3.386719 2.199219 5.304687 2.199219 1.917969 0 3.839844-.734375 5.304688-2.199219 2.929688-2.925781 2.929688-7.675781 0-10.605469l-8.421875-8.421874 8.421875-8.421876c2.929688-2.929687 2.929688-7.675781 0-10.605468-2.929688-2.929688-7.675781-2.929688-10.605469 0l-8.425781 8.421875-8.421875-8.421875c-2.929687-2.929688-7.679687-2.929688-10.605469 0-2.929687 2.925781-2.929687 7.675781 0 10.605468l8.421875 8.421876-8.421875 8.421874c-2.929687 2.929688-2.929687 7.679688 0 10.605469zm0 0"/><path d="m305.859375 425.894531c1.464844 1.464844 3.386719 2.199219 5.304687 2.199219 1.921876 0 3.839844-.734375 5.304688-2.199219l8.421875-8.421875 8.421875 8.421875c1.464844 1.464844 3.382812 2.199219 5.300781 2.199219 1.921875 0 3.839844-.734375 5.304688-2.199219 2.929687-2.925781 2.929687-7.675781 0-10.605469l-8.421875-8.421874 8.421875-8.421876c2.929687-2.929687 2.929687-7.675781 0-10.605468-2.929688-2.929688-7.675781-2.929688-10.605469 0l-8.421875 8.421875-8.421875-8.421875c-2.929688-2.929688-7.675781-2.929688-10.605469 0-2.929687 2.929687-2.929687 7.679687 0 10.605468l8.421875 8.421876-8.421875 8.421874c-2.929687 2.929688-2.929687 7.679688-.003906 10.605469zm0 0"/><path d="m374.75 425.894531c1.464844 1.464844 3.386719 2.199219 5.304688 2.199219 1.917968 0 3.839843-.734375 5.304687-2.199219l8.421875-8.421875 8.421875 8.421875c1.464844 1.464844 3.386719 2.199219 5.304687 2.199219 1.917969 0 3.839844-.734375 5.304688-2.199219 2.925781-2.925781 2.925781-7.675781 0-10.605469l-8.421875-8.421874 8.421875-8.421876c2.925781-2.929687 2.925781-7.675781 0-10.605468-2.929688-2.929688-7.679688-2.929688-10.609375 0l-8.421875 8.421875-8.421875-8.421875c-2.929687-2.929688-7.675781-2.929688-10.605469 0-2.929687 2.929687-2.929687 7.679687 0 10.605468l8.421875 8.421876-8.421875 8.421874c-2.933594 2.929688-2.933594 7.679688-.003906 10.605469zm0 0"/><path d="m485.808594 0h-459.617188c-14.441406 0-26.191406 11.75-26.191406 26.191406v459.617188c0 14.441406 11.75 26.191406 26.191406 26.191406h459.617188c14.441406 0 26.191406-11.75 26.191406-26.191406v-459.617188c0-14.441406-11.75-26.191406-26.191406-26.191406zm11.191406 74.421875h-404.886719c-4.140625 0-7.5 3.355469-7.5 7.5 0 4.140625 3.359375 7.5 7.5 7.5h404.886719v396.386719c0 6.171875-5.019531 11.191406-11.191406 11.191406h-459.617188c-6.171875 0-11.191406-5.019531-11.191406-11.191406v-396.386719h47.117188c4.144531 0 7.5-3.359375 7.5-7.5 0-4.144531-3.355469-7.5-7.5-7.5h-47.117188v-48.230469c0-6.171875 5.019531-11.191406 11.191406-11.191406h459.617188c6.171875 0 11.191406 5.019531 11.191406 11.191406zm0 0"/><path d="m198.5625 331.851562h114.875c9.425781 0 17.09375-7.667968 17.09375-17.097656v-20.023437c0-4.140625-3.355469-7.5-7.5-7.5-4.140625 0-7.5 3.359375-7.5 7.5v20.023437c0 1.15625-.9375 2.097656-2.09375 2.097656h-114.875c-1.15625 0-2.097656-.941406-2.097656-2.097656v-70.042968c0-1.15625.941406-2.097657 2.097656-2.097657h114.875c1.15625 0 2.09375.941407 2.09375 2.097657v20.023437c0 4.140625 3.359375 7.5 7.5 7.5 4.144531 0 7.5-3.359375 7.5-7.5v-20.023437c0-9.429688-7.667969-17.097657-17.09375-17.097657h-2.371094v-25.984375c0-30.367187-24.703125-55.070312-55.066406-55.070312s-55.066406 24.703125-55.066406 55.070312v25.984375h-2.371094c-9.425781 0-17.09375 7.667969-17.09375 17.097657v70.042968c0 9.429688 7.667969 17.097656 17.09375 17.097656zm72.980469-104.238281h-31.085938v-25.984375c0-8.574218 6.972657-15.546875 15.542969-15.546875s15.542969 6.972657 15.542969 15.546875zm-55.609375-25.984375c0-22.09375 17.972656-40.070312 40.066406-40.070312s40.066406 17.976562 40.066406 40.070312v25.984375h-9.523437v-25.984375c0-16.84375-13.699219-30.546875-30.542969-30.546875s-30.542969 13.703125-30.542969 30.546875v25.984375h-9.523437zm0 0"/><path d="m59.320312 378.027344v57.679687c0 13.082031 10.644532 23.726563 23.726563 23.726563h345.90625c13.082031 0 23.726563-10.644532 23.726563-23.726563v-57.679687c0-13.082032-10.644532-23.726563-23.726563-23.726563h-345.90625c-13.082031 0-23.726563 10.644531-23.726563 23.726563zm378.359376 0v57.679687c0 4.8125-3.914063 8.726563-8.726563 8.726563h-345.90625c-4.8125 0-8.726563-3.914063-8.726563-8.726563v-57.679687c0-4.8125 3.914063-8.726563 8.726563-8.726563h345.90625c4.8125 0 8.726563 3.914063 8.726563 8.726563zm0 0"/></svg>