<svg version="1.1" id="Capa_1" xmlns="http://www.w3.org/2000/svg" xmlns:xlink="http://www.w3.org/1999/xlink" x="0px" y="0px"
	 viewBox="0 0 512.004 512.004" style="enable-background:new 0 0 512.004 512.004;" xml:space="preserve"><path style="fill:#135370;" d="M424.542,221.563c0-0.047,0.006-0.094,0.006-0.141c0-28.631-75.461-213.872-168.547-213.872
	S87.454,192.792,87.454,221.423c0,0.047,0.005,0.093,0.006,0.14c0,0.044-0.006,0.088-0.006,0.132
	c0,26.67,113.643,166.877,168.547,166.877c53.723,0,168.547-140.207,168.547-166.877c0-0.045-0.006-0.091-0.006-0.136
	C424.542,221.56,424.542,221.562,424.542,221.563z"/><g><path style="fill:#F4C892;" d="M368.618,217.773h-19.142v-55.515h19.142c9.864,0,17.861,7.997,17.861,17.861v19.793
		C386.479,209.776,378.482,217.773,368.618,217.773z"/><path style="fill:#F4C892;" d="M143.384,217.773h19.142v-55.515h-19.142c-9.864,0-17.861,7.997-17.861,17.861v19.793
		C125.523,209.776,133.52,217.773,143.384,217.773z"/></g><g><?xml version="1.0" encoding="iso-8859-1"?><svg version="1.1" id="Capa_1" xmlns="http://www.w3.org/2000/svg" xmlns:xlink="http://www.w3.org/1999/xlink" x="0px" y="0px"
	 viewBox="0 0 512.004 512.004" style="enable-background:new 0 0 512.004 512.004;" xml:space="preserve"><path style="fill:#135370;" d="M424.542,221.563c0-0.047,0.006-0.094,0.006-0.141c0-28.631-75.461-213.872-168.547-213.872
	S87.454,192.792,87.454,221.423c0,0.047,0.005,0.093,0.006,0.14c0,0.044-0.006,0.088-0.006,0.132
	c0,26.67,113.643,166.877,168.547,166.877c53.723,0,168.547-140.207,168.547-166.877c0-0.045-0.006-0.091-0.006-0.136
	C424.542,221.56,424.542,221.562,424.542,221.563z"/><g><path style="fill:#F4C892;" d="M368.618,217.773h-19.142v-55.515h19.142c9.864,0,17.861,7.997,17.861,17.861v19.793
		C386.479,209.776,378.482,217.773,368.618,217.773z"/><path style="fill:#F4C892;" d="M143.384,217.773h19.142v-55.515h-19.142c-9.864,0-17.861,7.997-17.861,17.861v19.793
		C125.523,209.776,133.52,217.773,143.384,217.773z"/></g><g><path style="fill:#FFDFB8;" d="M321.205,316.632l-12.075-2.427c-8.568-1.722-14.732-9.248-14.732-17.988V278.82h-78.981v17.837
		c0,8.739-6.164,16.266-14.732,17.988l-9.889,1.987v66.414h130.409V316.632z"/><path style="fill:#FFDFB8;" d="M256.001,291.915L256.001,291.915c-57.021,0-103.246-46.225-103.246-103.246v-29.015
		c0-57.021,46.225-103.246,103.246-103.246l0,0c57.021,0,103.246,46.225,103.246,103.246v29.015
		C359.247,245.69,313.022,291.915,256.001,291.915z"/></g><path style="fill:#F4CFA6;" d="M256.001,56.408L256.001,56.408c-9.318,0-18.345,1.242-26.931,3.556
	c43.96,11.847,76.314,51.987,76.314,99.69v29.016c0,47.703-32.355,87.843-76.314,99.69c8.587,2.314,17.613,3.556,26.931,3.556l0,0
	c57.021,0,103.246-46.225,103.246-103.246v-29.016C359.247,102.633,313.022,56.408,256.001,56.408z"/><path style="fill:#1E608B;" d="M256.001,162.718c92.933,0,168.294,32.201,168.541,58.845c0-0.047,0.006-0.094,0.006-0.141
	c0-28.631-75.461-213.872-168.547-213.872S87.454,192.792,87.454,221.423c0,0.047,0.005,0.094,0.006,0.141
	C87.707,194.919,163.068,162.718,256.001,162.718z"/><path style="fill:#135370;" d="M256.001,7.551c-8.196,0-16.255,1.442-24.138,4.081c60.116,20.123,109.99,110.18,132.116,166.708
	c36.903,11.767,60.426,28.359,60.564,43.224c0-0.047,0.006-0.094,0.006-0.141C424.548,192.792,349.087,7.551,256.001,7.551z"/><path style="fill:#1E608B;" d="M483.594,493.179c-4.488-33.007-22.733-128.718-85.394-153.862l-71.47-22.284H185.272l-71.47,22.284
	c-62.661,25.144-80.906,120.855-85.394,153.862c-0.811,5.965,3.84,11.27,9.86,11.27h435.466
	C479.754,504.449,484.405,499.144,483.594,493.179z"/><path style="fill:#135370;" d="M483.594,493.179c-4.488-33.007-22.733-128.718-85.394-153.862l-71.47-22.284H271.7l71.47,22.284
	c76.094,30.534,86.686,165.131,86.686,165.132h43.878C479.754,504.449,484.405,499.144,483.594,493.179z"/><path style="fill:#CFCFCF;" d="M397.303,313.418H114.699c-9.379,0-16.982,7.603-16.982,16.982v161.035h316.568V330.399
	C414.285,321.021,406.682,313.418,397.303,313.418z"/><path style="fill:#C2C4C6;" d="M397.303,313.418H343.44c9.379,0,16.982,7.603,16.982,16.982v161.035h53.863V330.399
	C414.285,321.021,406.682,313.418,397.303,313.418z"/><path style="fill:#9C9DA0;" d="M424.501,478.804h-337c-6.391,0-11.571,5.181-11.571,11.571v2.503
	c0,6.391,5.181,11.571,11.571,11.571h337c6.391,0,11.571-5.181,11.571-11.571v-2.503
	C436.072,483.984,430.892,478.804,424.501,478.804z"/><path style="fill:#8D8F93;" d="M424.501,478.804h-42.625v25.645h42.625c6.391,0,11.571-5.181,11.571-11.571v-2.503
	C436.072,483.984,430.892,478.804,424.501,478.804z"/><circle style="fill:#FFFFFF;" cx="256.001" cy="402.87" r="23.76"/><g><path style="fill:#4D4D4D;" d="M226.386,216.499h-38.244c-4.213,0-7.628-3.415-7.628-7.628V187.1c0-4.213,3.415-7.628,7.628-7.628
		h47.669c4.213,0,7.628,3.415,7.628,7.628v12.346C243.44,208.864,235.805,216.499,226.386,216.499z"/><path style="fill:#4D4D4D;" d="M285.616,216.499h38.244c4.213,0,7.628-3.415,7.628-7.628V187.1c0-4.213-3.415-7.628-7.628-7.628
		h-47.669c-4.213,0-7.628,3.415-7.628,7.628v12.346C268.562,208.864,276.197,216.499,285.616,216.499z"/></g><path d="M256.001,371.558c-17.264,0-31.31,14.046-31.31,31.31c0,17.265,14.046,31.311,31.31,31.311
	c17.265,0,31.311-14.046,31.311-31.311C287.312,385.604,273.266,371.558,256.001,371.558z M256.001,419.078
	c-8.937,0-16.209-7.272-16.209-16.21s7.272-16.209,16.209-16.209c8.938,0,16.21,7.272,16.21,16.209
	C272.21,411.806,264.939,419.078,256.001,419.078z"/><path d="M491.076,492.162c-1.992-14.645-6.968-43.594-17.92-72.935c-12.829-34.37-30.084-59.656-51.32-75.251V330.4
	c0-13.527-11.005-24.533-24.533-24.533h-18.509c27.997-32.45,53.304-68.924,53.304-84.172c0-0.048,0-0.097-0.001-0.145
	c0.001-0.046,0.001-0.089,0.001-0.127c0-15.687-18.494-68.371-48.612-118.537c-2.146-3.575-6.785-4.734-10.36-2.587
	c-3.575,2.147-4.733,6.785-2.587,10.36c17.523,29.187,30.396,58.123,38.091,79.436c-14.401-9.33-34.617-17.462-58.332-23.528
	c-0.705-0.182-1.413-0.361-2.122-0.538c-0.492-0.122-0.989-0.241-1.483-0.361c-22.774-5.585-47.502-9.012-72.91-10.105
	c-0.529-0.023-1.059-0.046-1.589-0.067c-1.087-0.043-2.174-0.087-3.263-0.12c-1.722-0.055-3.448-0.097-5.177-0.13
	c-0.579-0.011-1.159-0.019-1.738-0.028c-2.001-0.03-4.005-0.051-6.014-0.051c-2.116,0-4.226,0.02-6.333,0.053
	c-1.045,0.016-2.086,0.044-3.129,0.068c-0.965,0.023-1.931,0.043-2.893,0.073c-1.486,0.044-2.967,0.1-4.449,0.161
	c-0.371,0.015-0.742,0.03-1.112,0.047c-26.933,1.168-53.102,4.955-76.983,11.158c-1.391,0.359-2.77,0.723-4.136,1.096
	c-0.263,0.072-0.525,0.145-0.788,0.218c-21.314,5.879-39.52,13.447-52.786,22.035c0.372-1.029,0.759-2.08,1.157-3.149
	c0.12-0.322,0.245-0.651,0.367-0.977c0.317-0.843,0.642-1.697,0.975-2.563c0.137-0.357,0.273-0.712,0.413-1.073
	c0.457-1.178,0.923-2.371,1.41-3.591c9.524-23.89,22.149-49.117,35.549-71.034c21.139-34.579,63.896-92.588,112.737-92.588
	c38.527,0,73.009,36.026,95.151,66.248c2.465,3.364,7.189,4.093,10.553,1.629c3.364-2.465,4.093-7.19,1.628-10.554
	c-15.823-21.598-32.162-38.662-48.562-50.718C295.178,7.303,275.405,0,256.001,0c-29.47,0-75.187,17.317-125.623,99.812
	c-31.272,51.151-50.474,105.304-50.474,121.611c0,0.049,0,0.097,0.001,0.146c-0.001,0.045-0.001,0.088-0.001,0.127
	c0,15.345,25.122,51.795,52.92,84.172H114.7c-13.527,0-24.533,11.005-24.533,24.533v13.582
	C70.9,358.138,54.86,380.339,42.461,410.07c-1.606,3.849,0.213,8.27,4.062,9.875c3.846,1.605,8.269-0.213,9.875-4.062
	c9.287-22.269,20.61-39.777,33.768-52.251v107.624H87.5c-10.543,0-19.122,8.578-19.122,19.122v2.503
	c0,0.675,0.037,1.341,0.106,1.999c0.023,0.218,0.069,0.429,0.099,0.645c0.06,0.434,0.118,0.869,0.207,1.293
	c0.006,0.028,0.008,0.057,0.014,0.085H38.268c-0.951,0-1.544-0.516-1.812-0.823c-0.265-0.304-0.691-0.952-0.565-1.879
	c1.443-10.615,4.239-27.157,9.363-45.682c1.112-4.019-1.245-8.179-5.264-9.29c-4.019-1.111-8.178,1.246-9.29,5.264
	c-5.348,19.337-8.266,36.598-9.772,47.673c-0.679,4.998,0.835,10.045,4.154,13.846c3.325,3.808,8.132,5.992,13.187,5.992l0,0
	h435.466l0,0c5.055,0,9.863-2.184,13.188-5.992C490.241,502.206,491.755,497.16,491.076,492.162z M364.913,209.039
	c0.068-0.363,0.137-0.726,0.201-1.091c0.087-0.497,0.167-0.995,0.248-1.492c0.068-0.417,0.137-0.834,0.2-1.253
	c0.069-0.458,0.13-0.917,0.193-1.377c0.063-0.455,0.127-0.91,0.184-1.367c0.055-0.44,0.102-0.881,0.152-1.322
	c0.053-0.472,0.109-0.944,0.156-1.418c0.044-0.445,0.08-0.892,0.119-1.338c0.041-0.469,0.085-0.936,0.12-1.407
	c0.019-0.251,0.033-0.503,0.05-0.755c0.034-0.29,0.056-0.583,0.056-0.882c0-0.004-0.001-0.009-0.001-0.013
	c0.022-0.368,0.048-0.735,0.067-1.104c0.028-0.558,0.045-1.118,0.064-1.677c0.013-0.364,0.031-0.726,0.04-1.091
	c0.023-0.927,0.035-1.855,0.035-2.783v-1.443c1.596,0.55,3.172,1.114,4.73,1.689c2.538,0.936,5.012,1.895,7.4,2.883v8.113
	c0,5.685-4.625,10.31-10.31,10.31h-3.923C364.773,209.829,364.84,209.433,364.913,209.039z M368.618,225.323
	c14.012,0,25.411-11.399,25.411-25.411v-0.965c15.648,8.565,22.909,16.989,22.962,22.686c0,0.006,0.001,0.011,0.001,0.017
	c0.001,0.057,0.001,0.114,0.003,0.171c-0.208,8.415-20.936,42.729-58.341,84.047h-50.711c-3.625-1.805-5.994-5.545-5.994-9.65
	v-6.738c27.247-12.468,48.592-35.666,58.609-64.156h8.06V225.323z M351.696,182.564v5.224h-12.657V187.1
	c0-3.065-0.92-5.915-2.488-8.304C342.088,180.028,347.148,181.305,351.696,182.564z M323.937,187.099v6.985
	c-0.069,0.409-0.113,0.826-0.113,1.254s0.044,0.845,0.113,1.254v12.278c0,0.043-0.035,0.078-0.078,0.078h-38.244
	c-5.24,0-9.503-4.264-9.503-9.504v-12.346c0-0.043,0.035-0.078,0.078-0.078h47.669C323.902,187.022,323.937,187.057,323.937,187.099
	z M256.001,170.268c12.142,0,24.194,0.572,35.995,1.652h-15.805c-8.011,0-14.576,6.243-15.125,14.116h-10.128
	c-0.549-7.874-7.114-14.116-15.125-14.116h-15.805C231.807,170.841,243.859,170.268,256.001,170.268z M188.064,187.099
	c0-0.043,0.035-0.078,0.078-0.078h47.669c0.043,0,0.078,0.035,0.078,0.078v12.346c0,5.24-4.263,9.504-9.503,9.504h-38.244
	c-0.043,0-0.078-0.035-0.078-0.078L188.064,187.099L188.064,187.099z M188.142,224.05h38.244c12.998,0,23.666-10.133,24.54-22.912
	h10.15c0.874,12.78,11.542,22.912,24.54,22.912h38.244c8.37,0,15.179-6.809,15.179-15.18v-5.982h11.596
	c-0.132,0.882-0.27,1.764-0.426,2.642c-0.043,0.239-0.091,0.477-0.136,0.716c-0.137,0.735-0.282,1.467-0.436,2.198
	c-0.09,0.424-0.182,0.847-0.277,1.27c-0.12,0.533-0.247,1.064-0.376,1.594c-0.21,0.861-0.431,1.717-0.663,2.568
	c-0.097,0.355-0.191,0.71-0.291,1.064c-8.316,29.088-30.086,52.551-58.114,63.209c-0.472,0.179-0.944,0.358-1.418,0.53
	c-0.782,0.283-1.569,0.555-2.361,0.819c-0.707,0.235-1.416,0.463-2.128,0.681c-0.588,0.18-1.177,0.358-1.77,0.528
	c-0.916,0.261-1.836,0.506-2.759,0.739c-0.543,0.138-1.088,0.272-1.635,0.4c-0.986,0.231-1.975,0.446-2.969,0.645
	c-0.48,0.096-0.962,0.188-1.444,0.277c-1.072,0.197-2.148,0.38-3.228,0.541c-0.394,0.059-0.789,0.112-1.184,0.166
	c-1.175,0.16-2.353,0.304-3.537,0.42c-0.285,0.028-0.572,0.051-0.858,0.076c-1.291,0.115-2.585,0.212-3.885,0.275
	c-0.155,0.008-0.312,0.011-0.467,0.018c-1.42,0.062-2.843,0.1-4.272,0.1c-43.659,0-80.582-29.389-92.028-69.423
	c-0.101-0.354-0.195-0.709-0.291-1.064c-0.233-0.851-0.454-1.708-0.663-2.568c-0.129-0.531-0.256-1.062-0.376-1.594
	c-0.095-0.422-0.188-0.845-0.277-1.27c-0.154-0.731-0.299-1.464-0.436-2.198c-0.045-0.239-0.093-0.476-0.136-0.716
	c-0.156-0.878-0.295-1.759-0.426-2.642h11.596v5.982C172.963,217.241,179.772,224.05,188.142,224.05z M288.73,305.867h-67.461
	c1.104-2.892,1.698-6.005,1.698-9.21v-2.2c1.758,0.55,3.531,1.037,5.312,1.497c0.09,0.023,0.18,0.045,0.27,0.068
	c1.533,0.392,3.074,0.749,4.622,1.074c0.247,0.052,0.494,0.106,0.742,0.156c0.753,0.152,1.507,0.298,2.264,0.435
	c0.401,0.073,0.805,0.138,1.207,0.207c1.085,0.183,2.172,0.353,3.264,0.504c0.61,0.085,1.222,0.168,1.835,0.243
	c0.553,0.067,1.107,0.132,1.662,0.19c0.946,0.101,1.895,0.191,2.848,0.268c0.391,0.031,0.782,0.06,1.174,0.087
	c1.009,0.071,2.021,0.127,3.037,0.17c0.36,0.015,0.72,0.029,1.081,0.041c1.235,0.041,2.472,0.069,3.717,0.069
	c1.171,0,2.336-0.025,3.498-0.061c0.363-0.011,0.726-0.027,1.089-0.042c0.836-0.034,1.67-0.078,2.501-0.131
	c0.378-0.024,0.757-0.045,1.134-0.072c1.069-0.079,2.134-0.171,3.194-0.28c0.474-0.048,0.945-0.108,1.418-0.163
	c0.631-0.073,1.261-0.149,1.889-0.233c0.577-0.077,1.153-0.157,1.729-0.243c0.504-0.075,1.006-0.158,1.507-0.24
	c1.182-0.193,2.359-0.405,3.533-0.636c0.315-0.062,0.631-0.12,0.945-0.185c0.725-0.149,1.447-0.309,2.169-0.473
	c0.293-0.067,0.585-0.135,0.877-0.204c1.797-0.424,3.588-0.877,5.364-1.392v1.106C286.848,299.585,287.511,302.852,288.73,305.867z
	 M160.306,182.564c4.548-1.259,9.608-2.536,15.146-3.768c-1.568,2.389-2.488,5.239-2.488,8.304v0.688h-12.657L160.306,182.564
	L160.306,182.564z M133.074,191.799c2.388-0.988,4.863-1.948,7.401-2.884c1.558-0.575,3.133-1.139,4.729-1.688v1.443
	c0,0.929,0.012,1.856,0.035,2.783c0.009,0.365,0.027,0.727,0.04,1.091c0.019,0.559,0.036,1.119,0.064,1.677
	c0.022,0.44,0.053,0.878,0.08,1.316c0.003,0.041,0.005,0.082,0.007,0.123c0.007,0.168,0.013,0.336,0.03,0.501
	c0.018,0.271,0.033,0.543,0.053,0.814c0.035,0.47,0.079,0.938,0.12,1.407c0.039,0.446,0.075,0.892,0.119,1.338
	c0.047,0.474,0.103,0.946,0.156,1.418c0.05,0.441,0.097,0.882,0.152,1.322c0.057,0.457,0.122,0.911,0.184,1.367
	c0.063,0.459,0.124,0.918,0.193,1.377c0.063,0.419,0.132,0.835,0.2,1.253c0.081,0.498,0.161,0.996,0.248,1.492
	c0.064,0.365,0.134,0.727,0.201,1.091c0.073,0.394,0.141,0.789,0.219,1.183h-3.922c-5.685,0-10.31-4.625-10.31-10.31v-8.114H133.074
	z M95.006,221.804c0.002-0.054,0.002-0.101,0.003-0.151c0-0.007,0.001-0.013,0.001-0.019c0.053-5.698,7.314-14.121,22.962-22.686
	v0.965c0,14.012,11.4,25.411,25.412,25.411h8.059c9.747,27.723,30.221,50.438,56.423,63.129v8.204c0,3.793-2.005,7.272-5.201,9.21
	h-49.743C117.129,266.123,95.191,230.44,95.006,221.804z M114.699,320.968h282.604c5.2,0,9.431,4.231,9.431,9.431l0,0v140.854
	H105.268V330.4l0,0C105.268,325.199,109.498,320.968,114.699,320.968 M428.521,492.878c0,2.217-1.804,4.021-4.02,4.021h-337
	c-2.217,0-4.02-1.804-4.02-4.021v-2.503c0-2.217,1.804-4.02,4.02-4.02l0,0h337l0,0c2.217,0,4.02,1.804,4.02,4.02V492.878z
	 M475.547,496.075c-0.269,0.308-0.862,0.824-1.813,0.824h-30.536c0.006-0.028,0.008-0.057,0.014-0.085
	c0.089-0.424,0.147-0.859,0.207-1.293c0.03-0.216,0.076-0.427,0.099-0.645c0.069-0.657,0.106-1.324,0.106-1.999v-2.503
	c0-10.543-8.578-19.122-19.122-19.122h-2.665V363.65c38.705,36.83,51.212,108.015,54.276,130.547
	C476.238,495.123,475.812,495.771,475.547,496.075z"/><g></g><g></g><g></g><g></g><g></g><g></g><g></g><g></g><g></g><g></g><g></g><g></g><g></g><g></g><g></g></svg><path style="fill:#FFDFB8;" d="M321.205,316.632l-12.075-2.427c-8.568-1.722-14.732-9.248-14.732-17.988V278.82h-78.981v17.837
		c0,8.739-6.164,16.266-14.732,17.988l-9.889,1.987v66.414h130.409V316.632z"/><path style="fill:#FFDFB8;" d="M256.001,291.915L256.001,291.915c-57.021,0-103.246-46.225-103.246-103.246v-29.015
		c0-57.021,46.225-103.246,103.246-103.246l0,0c57.021,0,103.246,46.225,103.246,103.246v29.015
		C359.247,245.69,313.022,291.915,256.001,291.915z"/></g><path style="fill:#F4CFA6;" d="M256.001,56.408L256.001,56.408c-9.318,0-18.345,1.242-26.931,3.556
	c43.96,11.847,76.314,51.987,76.314,99.69v29.016c0,47.703-32.355,87.843-76.314,99.69c8.587,2.314,17.613,3.556,26.931,3.556l0,0
	c57.021,0,103.246-46.225,103.246-103.246v-29.016C359.247,102.633,313.022,56.408,256.001,56.408z"/><path style="fill:#1E608B;" d="M256.001,162.718c92.933,0,168.294,32.201,168.541,58.845c0-0.047,0.006-0.094,0.006-0.141
	c0-28.631-75.461-213.872-168.547-213.872S87.454,192.792,87.454,221.423c0,0.047,0.005,0.094,0.006,0.141
	C87.707,194.919,163.068,162.718,256.001,162.718z"/><path style="fill:#135370;" d="M256.001,7.551c-8.196,0-16.255,1.442-24.138,4.081c60.116,20.123,109.99,110.18,132.116,166.708
	c36.903,11.767,60.426,28.359,60.564,43.224c0-0.047,0.006-0.094,0.006-0.141C424.548,192.792,349.087,7.551,256.001,7.551z"/><path style="fill:#1E608B;" d="M483.594,493.179c-4.488-33.007-22.733-128.718-85.394-153.862l-71.47-22.284H185.272l-71.47,22.284
	c-62.661,25.144-80.906,120.855-85.394,153.862c-0.811,5.965,3.84,11.27,9.86,11.27h435.466
	C479.754,504.449,484.405,499.144,483.594,493.179z"/><path style="fill:#135370;" d="M483.594,493.179c-4.488-33.007-22.733-128.718-85.394-153.862l-71.47-22.284H271.7l71.47,22.284
	c76.094,30.534,86.686,165.131,86.686,165.132h43.878C479.754,504.449,484.405,499.144,483.594,493.179z"/><path style="fill:#CFCFCF;" d="M397.303,313.418H114.699c-9.379,0-16.982,7.603-16.982,16.982v161.035h316.568V330.399
	C414.285,321.021,406.682,313.418,397.303,313.418z"/><path style="fill:#C2C4C6;" d="M397.303,313.418H343.44c9.379,0,16.982,7.603,16.982,16.982v161.035h53.863V330.399
	C414.285,321.021,406.682,313.418,397.303,313.418z"/><path style="fill:#9C9DA0;" d="M424.501,478.804h-337c-6.391,0-11.571,5.181-11.571,11.571v2.503
	c0,6.391,5.181,11.571,11.571,11.571h337c6.391,0,11.571-5.181,11.571-11.571v-2.503
	C436.072,483.984,430.892,478.804,424.501,478.804z"/><path style="fill:#8D8F93;" d="M424.501,478.804h-42.625v25.645h42.625c6.391,0,11.571-5.181,11.571-11.571v-2.503
	C436.072,483.984,430.892,478.804,424.501,478.804z"/><circle style="fill:#FFFFFF;" cx="256.001" cy="402.87" r="23.76"/><g><path style="fill:#4D4D4D;" d="M226.386,216.499h-38.244c-4.213,0-7.628-3.415-7.628-7.628V187.1c0-4.213,3.415-7.628,7.628-7.628
		h47.669c4.213,0,7.628,3.415,7.628,7.628v12.346C243.44,208.864,235.805,216.499,226.386,216.499z"/><path style="fill:#4D4D4D;" d="M285.616,216.499h38.244c4.213,0,7.628-3.415,7.628-7.628V187.1c0-4.213-3.415-7.628-7.628-7.628
		h-47.669c-4.213,0-7.628,3.415-7.628,7.628v12.346C268.562,208.864,276.197,216.499,285.616,216.499z"/></g><path d="M256.001,371.558c-17.264,0-31.31,14.046-31.31,31.31c0,17.265,14.046,31.311,31.31,31.311
	c17.265,0,31.311-14.046,31.311-31.311C287.312,385.604,273.266,371.558,256.001,371.558z M256.001,419.078
	c-8.937,0-16.209-7.272-16.209-16.21s7.272-16.209,16.209-16.209c8.938,0,16.21,7.272,16.21,16.209
	C272.21,411.806,264.939,419.078,256.001,419.078z"/><path d="M491.076,492.162c-1.992-14.645-6.968-43.594-17.92-72.935c-12.829-34.37-30.084-59.656-51.32-75.251V330.4
	c0-13.527-11.005-24.533-24.533-24.533h-18.509c27.997-32.45,53.304-68.924,53.304-84.172c0-0.048,0-0.097-0.001-0.145
	c0.001-0.046,0.001-0.089,0.001-0.127c0-15.687-18.494-68.371-48.612-118.537c-2.146-3.575-6.785-4.734-10.36-2.587
	c-3.575,2.147-4.733,6.785-2.587,10.36c17.523,29.187,30.396,58.123,38.091,79.436c-14.401-9.33-34.617-17.462-58.332-23.528
	c-0.705-0.182-1.413-0.361-2.122-0.538c-0.492-0.122-0.989-0.241-1.483-0.361c-22.774-5.585-47.502-9.012-72.91-10.105
	c-0.529-0.023-1.059-0.046-1.589-0.067c-1.087-0.043-2.174-0.087-3.263-0.12c-1.722-0.055-3.448-0.097-5.177-0.13
	c-0.579-0.011-1.159-0.019-1.738-0.028c-2.001-0.03-4.005-0.051-6.014-0.051c-2.116,0-4.226,0.02-6.333,0.053
	c-1.045,0.016-2.086,0.044-3.129,0.068c-0.965,0.023-1.931,0.043-2.893,0.073c-1.486,0.044-2.967,0.1-4.449,0.161
	c-0.371,0.015-0.742,0.03-1.112,0.047c-26.933,1.168-53.102,4.955-76.983,11.158c-1.391,0.359-2.77,0.723-4.136,1.096
	c-0.263,0.072-0.525,0.145-0.788,0.218c-21.314,5.879-39.52,13.447-52.786,22.035c0.372-1.029,0.759-2.08,1.157-3.149
	c0.12-0.322,0.245-0.651,0.367-0.977c0.317-0.843,0.642-1.697,0.975-2.563c0.137-0.357,0.273-0.712,0.413-1.073
	c0.457-1.178,0.923-2.371,1.41-3.591c9.524-23.89,22.149-49.117,35.549-71.034c21.139-34.579,63.896-92.588,112.737-92.588
	c38.527,0,73.009,36.026,95.151,66.248c2.465,3.364,7.189,4.093,10.553,1.629c3.364-2.465,4.093-7.19,1.628-10.554
	c-15.823-21.598-32.162-38.662-48.562-50.718C295.178,7.303,275.405,0,256.001,0c-29.47,0-75.187,17.317-125.623,99.812
	c-31.272,51.151-50.474,105.304-50.474,121.611c0,0.049,0,0.097,0.001,0.146c-0.001,0.045-0.001,0.088-0.001,0.127
	c0,15.345,25.122,51.795,52.92,84.172H114.7c-13.527,0-24.533,11.005-24.533,24.533v13.582
	C70.9,358.138,54.86,380.339,42.461,410.07c-1.606,3.849,0.213,8.27,4.062,9.875c3.846,1.605,8.269-0.213,9.875-4.062
	c9.287-22.269,20.61-39.777,33.768-52.251v107.624H87.5c-10.543,0-19.122,8.578-19.122,19.122v2.503
	c0,0.675,0.037,1.341,0.106,1.999c0.023,0.218,0.069,0.429,0.099,0.645c0.06,0.434,0.118,0.869,0.207,1.293
	c0.006,0.028,0.008,0.057,0.014,0.085H38.268c-0.951,0-1.544-0.516-1.812-0.823c-0.265-0.304-0.691-0.952-0.565-1.879
	c1.443-10.615,4.239-27.157,9.363-45.682c1.112-4.019-1.245-8.179-5.264-9.29c-4.019-1.111-8.178,1.246-9.29,5.264
	c-5.348,19.337-8.266,36.598-9.772,47.673c-0.679,4.998,0.835,10.045,4.154,13.846c3.325,3.808,8.132,5.992,13.187,5.992l0,0
	h435.466l0,0c5.055,0,9.863-2.184,13.188-5.992C490.241,502.206,491.755,497.16,491.076,492.162z M364.913,209.039
	c0.068-0.363,0.137-0.726,0.201-1.091c0.087-0.497,0.167-0.995,0.248-1.492c0.068-0.417,0.137-0.834,0.2-1.253
	c0.069-0.458,0.13-0.917,0.193-1.377c0.063-0.455,0.127-0.91,0.184-1.367c0.055-0.44,0.102-0.881,0.152-1.322
	c0.053-0.472,0.109-0.944,0.156-1.418c0.044-0.445,0.08-0.892,0.119-1.338c0.041-0.469,0.085-0.936,0.12-1.407
	c0.019-0.251,0.033-0.503,0.05-0.755c0.034-0.29,0.056-0.583,0.056-0.882c0-0.004-0.001-0.009-0.001-0.013
	c0.022-0.368,0.048-0.735,0.067-1.104c0.028-0.558,0.045-1.118,0.064-1.677c0.013-0.364,0.031-0.726,0.04-1.091
	c0.023-0.927,0.035-1.855,0.035-2.783v-1.443c1.596,0.55,3.172,1.114,4.73,1.689c2.538,0.936,5.012,1.895,7.4,2.883v8.113
	c0,5.685-4.625,10.31-10.31,10.31h-3.923C364.773,209.829,364.84,209.433,364.913,209.039z M368.618,225.323
	c14.012,0,25.411-11.399,25.411-25.411v-0.965c15.648,8.565,22.909,16.989,22.962,22.686c0,0.006,0.001,0.011,0.001,0.017
	c0.001,0.057,0.001,0.114,0.003,0.171c-0.208,8.415-20.936,42.729-58.341,84.047h-50.711c-3.625-1.805-5.994-5.545-5.994-9.65
	v-6.738c27.247-12.468,48.592-35.666,58.609-64.156h8.06V225.323z M351.696,182.564v5.224h-12.657V187.1
	c0-3.065-0.92-5.915-2.488-8.304C342.088,180.028,347.148,181.305,351.696,182.564z M323.937,187.099v6.985
	c-0.069,0.409-0.113,0.826-0.113,1.254s0.044,0.845,0.113,1.254v12.278c0,0.043-0.035,0.078-0.078,0.078h-38.244
	c-5.24,0-9.503-4.264-9.503-9.504v-12.346c0-0.043,0.035-0.078,0.078-0.078h47.669C323.902,187.022,323.937,187.057,323.937,187.099
	z M256.001,170.268c12.142,0,24.194,0.572,35.995,1.652h-15.805c-8.011,0-14.576,6.243-15.125,14.116h-10.128
	c-0.549-7.874-7.114-14.116-15.125-14.116h-15.805C231.807,170.841,243.859,170.268,256.001,170.268z M188.064,187.099
	c0-0.043,0.035-0.078,0.078-0.078h47.669c0.043,0,0.078,0.035,0.078,0.078v12.346c0,5.24-4.263,9.504-9.503,9.504h-38.244
	c-0.043,0-0.078-0.035-0.078-0.078L188.064,187.099L188.064,187.099z M188.142,224.05h38.244c12.998,0,23.666-10.133,24.54-22.912
	h10.15c0.874,12.78,11.542,22.912,24.54,22.912h38.244c8.37,0,15.179-6.809,15.179-15.18v-5.982h11.596
	c-0.132,0.882-0.27,1.764-0.426,2.642c-0.043,0.239-0.091,0.477-0.136,0.716c-0.137,0.735-0.282,1.467-0.436,2.198
	c-0.09,0.424-0.182,0.847-0.277,1.27c-0.12,0.533-0.247,1.064-0.376,1.594c-0.21,0.861-0.431,1.717-0.663,2.568
	c-0.097,0.355-0.191,0.71-0.291,1.064c-8.316,29.088-30.086,52.551-58.114,63.209c-0.472,0.179-0.944,0.358-1.418,0.53
	c-0.782,0.283-1.569,0.555-2.361,0.819c-0.707,0.235-1.416,0.463-2.128,0.681c-0.588,0.18-1.177,0.358-1.77,0.528
	c-0.916,0.261-1.836,0.506-2.759,0.739c-0.543,0.138-1.088,0.272-1.635,0.4c-0.986,0.231-1.975,0.446-2.969,0.645
	c-0.48,0.096-0.962,0.188-1.444,0.277c-1.072,0.197-2.148,0.38-3.228,0.541c-0.394,0.059-0.789,0.112-1.184,0.166
	c-1.175,0.16-2.353,0.304-3.537,0.42c-0.285,0.028-0.572,0.051-0.858,0.076c-1.291,0.115-2.585,0.212-3.885,0.275
	c-0.155,0.008-0.312,0.011-0.467,0.018c-1.42,0.062-2.843,0.1-4.272,0.1c-43.659,0-80.582-29.389-92.028-69.423
	c-0.101-0.354-0.195-0.709-0.291-1.064c-0.233-0.851-0.454-1.708-0.663-2.568c-0.129-0.531-0.256-1.062-0.376-1.594
	c-0.095-0.422-0.188-0.845-0.277-1.27c-0.154-0.731-0.299-1.464-0.436-2.198c-0.045-0.239-0.093-0.476-0.136-0.716
	c-0.156-0.878-0.295-1.759-0.426-2.642h11.596v5.982C172.963,217.241,179.772,224.05,188.142,224.05z M288.73,305.867h-67.461
	c1.104-2.892,1.698-6.005,1.698-9.21v-2.2c1.758,0.55,3.531,1.037,5.312,1.497c0.09,0.023,0.18,0.045,0.27,0.068
	c1.533,0.392,3.074,0.749,4.622,1.074c0.247,0.052,0.494,0.106,0.742,0.156c0.753,0.152,1.507,0.298,2.264,0.435
	c0.401,0.073,0.805,0.138,1.207,0.207c1.085,0.183,2.172,0.353,3.264,0.504c0.61,0.085,1.222,0.168,1.835,0.243
	c0.553,0.067,1.107,0.132,1.662,0.19c0.946,0.101,1.895,0.191,2.848,0.268c0.391,0.031,0.782,0.06,1.174,0.087
	c1.009,0.071,2.021,0.127,3.037,0.17c0.36,0.015,0.72,0.029,1.081,0.041c1.235,0.041,2.472,0.069,3.717,0.069
	c1.171,0,2.336-0.025,3.498-0.061c0.363-0.011,0.726-0.027,1.089-0.042c0.836-0.034,1.67-0.078,2.501-0.131
	c0.378-0.024,0.757-0.045,1.134-0.072c1.069-0.079,2.134-0.171,3.194-0.28c0.474-0.048,0.945-0.108,1.418-0.163
	c0.631-0.073,1.261-0.149,1.889-0.233c0.577-0.077,1.153-0.157,1.729-0.243c0.504-0.075,1.006-0.158,1.507-0.24
	c1.182-0.193,2.359-0.405,3.533-0.636c0.315-0.062,0.631-0.12,0.945-0.185c0.725-0.149,1.447-0.309,2.169-0.473
	c0.293-0.067,0.585-0.135,0.877-0.204c1.797-0.424,3.588-0.877,5.364-1.392v1.106C286.848,299.585,287.511,302.852,288.73,305.867z
	 M160.306,182.564c4.548-1.259,9.608-2.536,15.146-3.768c-1.568,2.389-2.488,5.239-2.488,8.304v0.688h-12.657L160.306,182.564
	L160.306,182.564z M133.074,191.799c2.388-0.988,4.863-1.948,7.401-2.884c1.558-0.575,3.133-1.139,4.729-1.688v1.443
	c0,0.929,0.012,1.856,0.035,2.783c0.009,0.365,0.027,0.727,0.04,1.091c0.019,0.559,0.036,1.119,0.064,1.677
	c0.022,0.44,0.053,0.878,0.08,1.316c0.003,0.041,0.005,0.082,0.007,0.123c0.007,0.168,0.013,0.336,0.03,0.501
	c0.018,0.271,0.033,0.543,0.053,0.814c0.035,0.47,0.079,0.938,0.12,1.407c0.039,0.446,0.075,0.892,0.119,1.338
	c0.047,0.474,0.103,0.946,0.156,1.418c0.05,0.441,0.097,0.882,0.152,1.322c0.057,0.457,0.122,0.911,0.184,1.367
	c0.063,0.459,0.124,0.918,0.193,1.377c0.063,0.419,0.132,0.835,0.2,1.253c0.081,0.498,0.161,0.996,0.248,1.492
	c0.064,0.365,0.134,0.727,0.201,1.091c0.073,0.394,0.141,0.789,0.219,1.183h-3.922c-5.685,0-10.31-4.625-10.31-10.31v-8.114H133.074
	z M95.006,221.804c0.002-0.054,0.002-0.101,0.003-0.151c0-0.007,0.001-0.013,0.001-0.019c0.053-5.698,7.314-14.121,22.962-22.686
	v0.965c0,14.012,11.4,25.411,25.412,25.411h8.059c9.747,27.723,30.221,50.438,56.423,63.129v8.204c0,3.793-2.005,7.272-5.201,9.21
	h-49.743C117.129,266.123,95.191,230.44,95.006,221.804z M114.699,320.968h282.604c5.2,0,9.431,4.231,9.431,9.431l0,0v140.854
	H105.268V330.4l0,0C105.268,325.199,109.498,320.968,114.699,320.968 M428.521,492.878c0,2.217-1.804,4.021-4.02,4.021h-337
	c-2.217,0-4.02-1.804-4.02-4.021v-2.503c0-2.217,1.804-4.02,4.02-4.02l0,0h337l0,0c2.217,0,4.02,1.804,4.02,4.02V492.878z
	 M475.547,496.075c-0.269,0.308-0.862,0.824-1.813,0.824h-30.536c0.006-0.028,0.008-0.057,0.014-0.085
	c0.089-0.424,0.147-0.859,0.207-1.293c0.03-0.216,0.076-0.427,0.099-0.645c0.069-0.657,0.106-1.324,0.106-1.999v-2.503
	c0-10.543-8.578-19.122-19.122-19.122h-2.665V363.65c38.705,36.83,51.212,108.015,54.276,130.547
	C476.238,495.123,475.812,495.771,475.547,496.075z"/><g></g><g></g><g></g><g></g><g></g><g></g><g></g><g></g><g></g><g></g><g></g><g></g><g></g><g></g><g></g>
</svg>
