<svg id="Capa_1" enable-background="new 0 0 512 512" height="512" viewBox="0 0 512 512" width="512" xmlns="http://www.w3.org/2000/svg"><g><path d="m7.5 331.931v28.085c0 14.988 12.15 27.137 27.137 27.137h442.725c14.987 0 27.137-12.15 27.137-27.137v-28.085z" fill="#d0e2e7"/><path d="m311.109 456.181h-110.218l27.69-69.028h54.838z" fill="#b4d0d5"/><path d="m337.787 483.792h-163.573c-.578 0-1.047-.469-1.047-1.047v-11.76c0-8.176 6.628-14.804 14.804-14.804h136.059c8.176 0 14.804 6.628 14.804 14.804v11.76c-.001.578-.469 1.047-1.047 1.047z" fill="#d0e2e7"/><path d="m392.919 28.209h-273.849c-.625 0-1.131.506-1.131 1.131v191.016c0 .625.506 1.131 1.131 1.131h81.265c.28 0 .549.111.747.309l54.166 54.166c.412.412 1.081.412 1.493 0l54.166-54.166c.198-.198.467-.309.747-.309h81.265c.625 0 1.131-.506 1.131-1.131v-191.016c0-.625-.507-1.131-1.131-1.131z" fill="#8078bc"/><path d="m477.363 55.82h-83.313v164.536c0 .625-.506 1.131-1.131 1.131h-81.265c-.28 0-.549.111-.747.309l-54.166 54.166c-.412.412-1.081.412-1.493 0l-54.166-54.166c-.198-.198-.467-.309-.747-.309h-81.265c-.625 0-1.131-.506-1.131-1.131v-164.536h-83.302c-14.987 0-27.137 12.149-27.137 27.137v248.974h497v-248.974c0-14.988-12.15-27.137-27.137-27.137z" fill="#617881"/><path d="m476.889 83.431h-82.839v136.925c0 .625-.506 1.131-1.131 1.131h-81.265c-.28 0-.549.111-.746.309l-54.166 54.166c-.412.412-1.081.412-1.493 0l-54.166-54.166c-.198-.198-.467-.309-.747-.309h-81.266c-.625 0-1.131-.506-1.131-1.131v-136.925h-82.828v248.5h441.778z" fill="#f1f4f6"/><path d="m392.919 28.209h-38.869v124.455c0 26.964-21.859 48.823-48.823 48.823h-187.288v18.869c0 .625.506 1.131 1.131 1.131h81.265c.28 0 .549.111.747.309l54.166 54.166c.412.412 1.081.412 1.493 0l54.166-54.166c.198-.198.467-.309.747-.309h81.265c.625 0 1.131-.506 1.131-1.131v-191.016c0-.625-.507-1.131-1.131-1.131z" fill="#6b61b1"/><path d="m476.889 83.431h-40v161.494c0 37.006-30 67.006-67.006 67.006h-334.772v20h441.778z" fill="#dfeaef"/><path d="m283.611 352.042h-55.222c-4.142 0-7.5 3.358-7.5 7.5s3.358 7.5 7.5 7.5h55.222c4.143 0 7.5-3.358 7.5-7.5s-3.358-7.5-7.5-7.5z"/><path d="m159.365 187.642c4.142 0 7.5-3.358 7.5-7.5v-33.915h54.025v33.915c0 4.142 3.358 7.5 7.5 7.5s7.5-3.358 7.5-7.5v-75.928c0-23.166-18.847-42.013-42.013-42.013s-42.013 18.847-42.013 42.013v75.928c.001 4.142 3.359 7.5 7.501 7.5zm34.512-110.441c14.895 0 27.013 12.118 27.013 27.013v27.013h-54.025v-27.013c0-14.895 12.117-27.013 27.012-27.013z"/><path d="m359.195 66.065c-1.321-2.385-3.833-3.864-6.56-3.864h-69.025c-4.143 0-7.5 3.358-7.5 7.5s3.357 7.5 7.5 7.5h55.493l-61.854 98.965c-1.444 2.312-1.521 5.226-.199 7.611 1.321 2.385 3.833 3.864 6.56 3.864h69.025c4.143 0 7.5-3.358 7.5-7.5s-3.357-7.5-7.5-7.5h-55.493l61.854-98.965c1.444-2.312 1.521-5.226.199-7.611z"/><path d="m248.5 124.921c0 4.142 3.358 7.5 7.5 7.5h27.61c4.143 0 7.5-3.358 7.5-7.5s-3.357-7.5-7.5-7.5h-27.61c-4.142 0-7.5 3.358-7.5 7.5z"/><path d="m477.363 48.32h-75.813v-18.98c0-4.759-3.872-8.631-8.632-8.631h-219.751c-4.142 0-7.5 3.358-7.5 7.5s3.358 7.5 7.5 7.5h213.383v178.278h-74.896c-2.26 0-4.47.918-6.05 2.506l-49.609 49.609-49.61-49.609c-1.616-1.616-3.765-2.506-6.05-2.506h-74.896v-178.279h12.728c4.142 0 7.5-3.358 7.5-7.5s-3.358-7.5-7.5-7.5h-19.097c-4.759 0-8.631 3.872-8.631 8.631v18.98h-75.802c-19.099.001-34.637 15.539-34.637 34.638v277.059c0 19.099 15.538 34.637 34.637 34.637h182.854l-21.673 54.028h-7.848c-12.298 0-22.304 10.005-22.304 22.304v11.761c0 4.713 3.834 8.547 8.547 8.547h163.573c4.713 0 8.547-3.834 8.547-8.547v-11.761c0-12.298-10.006-22.304-22.304-22.304h-7.848l-21.672-54.028h182.854c19.1 0 34.638-15.538 34.638-34.637v-277.059c-.001-19.099-15.539-34.637-34.638-34.637zm-462.363 34.637c0-10.828 8.809-19.637 19.637-19.637h75.802v12.611h-75.328c-4.142 0-7.5 3.358-7.5 7.5v241h-12.611zm316.333 388.027v5.308h-150.666v-5.308c0-4.027 3.276-7.304 7.304-7.304h136.059c4.027.001 7.303 3.277 7.303 7.304zm-31.314-22.303h-88.039l21.673-54.028h44.694zm177.344-69.028h-442.726c-10.828 0-19.637-8.809-19.637-19.637v-20.585h74.828c4.142 0 7.5-3.358 7.5-7.5s-3.358-7.5-7.5-7.5h-47.217v-233.5h67.828v129.425c0 4.759 3.872 8.631 8.631 8.631h78.596l52.279 52.279c3.336 3.336 8.764 3.336 12.1 0l52.279-52.279h78.595c4.76 0 8.632-3.872 8.632-8.631v-129.425h67.839v40.955c0 4.142 3.357 7.5 7.5 7.5s7.5-3.358 7.5-7.5v-48.455c0-4.142-3.357-7.5-7.5-7.5h-75.34v-12.611h75.812c10.828 0 19.638 8.809 19.638 19.637v241.474h-12.611v-157.545c0-4.142-3.357-7.5-7.5-7.5s-7.5 3.358-7.5 7.5v157.545h-344.561c-4.142 0-7.5 3.358-7.5 7.5s3.358 7.5 7.5 7.5h372.172v20.585c0 10.828-8.809 19.637-19.637 19.637z"/></g></svg>