<?xml version="1.0" encoding="iso-8859-1"?>
<!-- Generator: Adobe Illustrator 19.0.0, SVG Export Plug-In . SVG Version: 6.00 Build 0)  -->
<svg xmlns="http://www.w3.org/2000/svg" xmlns:xlink="http://www.w3.org/1999/xlink" version="1.1" id="Layer_1" x="0px" y="0px" viewBox="0 0 512 512" style="enable-background:new 0 0 512 512;" xml:space="preserve" width="512" height="512">
<g>
	<g>
		<g>
			<g>
				<path style="fill:#5B5C6C;" d="M495.754,343.666H16.246V88.662c0-23.118,18.74-41.858,41.858-41.858h395.791      c23.118,0,41.858,18.74,41.858,41.858V343.666z"/>
			</g>
		</g>
		<g>
			<g>
				<path style="fill:#464655;" d="M495.75,88.661v255.005h-66.797V88.661c0-3.196-0.361-6.303-1.032-9.288      c-4.229-18.647-20.893-32.565-40.823-32.565h66.797C477.012,46.808,495.75,65.545,495.75,88.661z"/>
			</g>
		</g>
		<g>
			<g>
				<path style="fill:#BEC8DC;" d="M16.246,343.666h479.507v28.02c0,23.118-18.74,41.858-41.858,41.858H58.104      c-23.118,0-41.858-18.74-41.858-41.858V343.666z"/>
			</g>
		</g>
		<g>
			<g>
				<path style="fill:#AFBBD0;" d="M428.95,343.666v28.021c0,23.117-18.741,41.857-41.859,41.857h66.803      c23.118,0,41.859-18.74,41.859-41.857v-28.021H428.95z"/>
			</g>
		</g>
		<g>
			<g>
				<rect x="201.461" y="413.544" style="fill:#AFBBD0;" width="109.077" height="68.034"/>
			</g>
		</g>
		<g>
			<g>
				<rect x="201.461" y="413.544" style="fill:#95A5B9;" width="109.077" height="18.297"/>
			</g>
		</g>
		<g>
			<g>
				<path style="fill:#C3B4FA;" d="M463.925,309.599H48.075V91.082c0-6.469,5.244-11.714,11.714-11.714h392.423      c6.469,0,11.714,5.244,11.714,11.714V309.599z"/>
			</g>
		</g>
		<g>
			<g>
				<path style="fill:#A09BFF;" d="M463.925,91.086v218.513h-34.971V88.661c0-3.196-0.361-6.303-1.032-9.288h24.29      C458.684,79.372,463.925,84.613,463.925,91.086z"/>
			</g>
		</g>
		<g>
			<g>
				<path style="fill:#A0FFAA;" d="M372.669,124.161c0,92.143-93.169,168.853-112.99,184.13c-2.191,1.689-5.215,1.748-7.467,0.14      c-20.05-14.312-112.881-85.888-112.881-184.27C139.331,59.731,191.566,7.5,256,7.5S372.669,59.731,372.669,124.161z"/>
			</g>
		</g>
		<g>
			<g>
				<path style="fill:#7DE6C4;" d="M256,7.5c-10.758,0-21.173,1.463-31.065,4.189c46.664,12.93,69.342,37.759,78.495,49.584      c59.352,76.68,20.178,214.076-46.703,247.018c-0.936,0.461-1.742,0.835-2.354,1.112c1.809,0.441,3.763,0.078,5.306-1.112      c19.821-15.277,112.99-91.987,112.99-184.13C372.669,59.731,320.434,7.5,256,7.5z"/>
			</g>
		</g>
	</g>
	<g>
		<path d="M503.25,343.599V88.66c0-27.217-22.138-49.36-49.35-49.36H346.63C323.194,14.282,290.36,0,256,0    c-34.361,0-67.197,14.283-90.63,39.3H58.1c-27.212,0-49.35,22.143-49.35,49.36v254.939c0,0.023-0.003,0.045-0.003,0.068v28.02    c0,27.216,22.142,49.358,49.358,49.358h135.857v53.019h-16.03c-16.776,0-30.424,13.647-30.424,30.422    c0,4.15,3.365,7.515,7.515,7.515s7.515-3.365,7.515-7.515c0-8.488,6.905-15.392,15.393-15.392h156.138    c8.488,0,15.393,6.905,15.393,15.392c0,4.15,3.365,7.515,7.515,7.515s7.515-3.365,7.515-7.515    c0-16.775-13.648-30.422-30.424-30.422h-16.03v-53.019h135.857c27.216,0,49.358-22.142,49.358-49.358v-28.02    C503.253,343.644,503.25,343.622,503.25,343.599z M256,15c31.211,0,60.993,13.404,81.71,36.777    c8.064,9.09,14.495,19.34,19.113,30.468c0.001,0.002,0.002,0.004,0.003,0.006c0.001,0.002,0.001,0.004,0.002,0.005    c5.536,13.276,8.342,27.374,8.342,41.904c0,36.589-15.391,74.967-45.747,114.067c-2.54,3.271-1.947,7.983,1.325,10.523    c1.368,1.062,2.987,1.576,4.594,1.576c2.237,0,4.451-0.997,5.93-2.901c32.446-41.793,48.898-83.266,48.898-123.265    c0-12.624-1.872-24.966-5.564-36.83c-0.046-0.154-0.088-0.303-0.137-0.46h77.741c2.327,0,4.22,1.889,4.22,4.21V302.1H279.04    c9.648-8.348,22.15-19.978,34.981-34.147c2.78-3.07,2.545-7.813-0.525-10.594c-3.071-2.781-7.813-2.544-10.594,0.525    c-19.984,22.07-39.098,37.705-47.08,43.907c-19.92-14.354-108.993-83.826-108.993-177.631c0-14.53,2.807-28.628,8.342-41.904    c0.001-0.001,0.001-0.003,0.001-0.004c0.001-0.003,0.002-0.005,0.003-0.007c4.618-11.127,11.048-21.378,19.116-30.471    C195.007,28.404,224.789,15,256,15z M58.1,54.3h95.245c-4.753,6.964-8.778,14.382-12.016,22.183c0,0,0,0.001-0.001,0.001    s0,0.001,0,0.001c-0.002,0.004-0.003,0.007-0.004,0.01c-0.001,0.003-0.002,0.005-0.003,0.008    c-6.297,15.109-9.49,31.143-9.49,47.657c0,43.434,17.016,86.621,50.576,128.361c17.341,21.567,35.708,38.408,49.299,49.579H55.57    V91.08c0-2.321,1.893-4.21,4.22-4.21H110c4.142,0,7.5-3.358,7.5-7.5s-3.358-7.5-7.5-7.5H59.79c-10.598,0-19.22,8.618-19.22,19.21    V309.6c0,4.142,3.358,7.5,7.5,7.5h207.78h208.08c4.142,0,7.5-3.358,7.5-7.5V91.08c0-10.592-8.622-19.21-19.22-19.21h-83.566    c-2.841-6.125-6.182-11.993-9.988-17.57H453.9c18.941,0,34.35,15.414,34.35,34.36v247.506H23.75V88.66    C23.75,69.714,39.159,54.3,58.1,54.3z M453.896,406.044H296.333c-4.142,0-7.5,3.358-7.5,7.5s3.358,7.5,7.5,7.5h6.705v53.019    h-94.077v-53.019h56.705c4.142,0,7.5-3.358,7.5-7.5s-3.358-7.5-7.5-7.5H58.104c-18.945,0-34.358-15.413-34.358-34.358V351.17    h464.507v20.516C488.253,390.631,472.84,406.044,453.896,406.044z"/>
		<path d="M223.145,170.031c1.437,0.834,3.178,1.249,5.222,1.249c1.967,0,3.689-0.415,5.165-1.249    c1.476-0.832,2.214-1.967,2.214-3.405V92.847c0-1.513-0.72-2.648-2.157-3.405c-1.438-0.755-3.178-1.135-5.222-1.135    c-2.043,0-3.785,0.38-5.222,1.135c-1.439,0.757-2.157,1.892-2.157,3.405v73.779C220.988,168.064,221.707,169.199,223.145,170.031z    "/>
		<path d="M251.524,170.031c1.437,0.834,3.178,1.249,5.222,1.249c1.967,0,3.689-0.415,5.165-1.249    c1.476-0.832,2.214-1.967,2.214-3.405v-26.333h12.714c8.02,0,14.473-2.08,19.354-6.243c4.881-4.161,7.322-10.67,7.322-19.523    v-0.681c0-8.777-2.347-15.227-7.038-19.353c-4.693-4.123-10.936-6.186-18.73-6.186h-22.816c-1.666,0-3.008,0.454-4.03,1.362    c-1.022,0.908-1.532,1.969-1.532,3.178v73.779C249.367,168.064,250.085,169.199,251.524,170.031z M264.124,101.246h12.714    c3.783,0,6.715,1.098,8.797,3.292c2.08,2.196,3.122,5.448,3.122,9.762v1.362c0,4.313-1.041,7.568-3.122,9.762    c-2.082,2.196-5.014,3.292-8.797,3.292h-12.714V101.246z"/>
	</g>
</g>















</svg>
