<svg id="Capa_1" enable-background="new 0 0 511.38 511.38" height="512" viewBox="0 0 511.38 511.38" width="512" xmlns="http://www.w3.org/2000/svg"><g><g><path d="m479.604 481.918h-447.964c-13.368 0-24.205-10.837-24.205-24.205v-106.509c0-13.368 10.837-24.205 24.205-24.205h447.964c13.368 0 24.205 10.837 24.205 24.205v106.509c.001 13.368-10.836 24.205-24.205 24.205z" fill="#fe646f"/><path d="m363.362 52.498v231.98c0 8.35-10.25 12.35-15.9 6.21l-71.673-77.809c-3.159-3.43-7.61-5.381-12.273-5.381h-226.664c-13.25 0-24-10.74-24-24v-131c0-13.255 10.745-24 24-24h302.51c13.26 0 24 10.75 24 24z" fill="#f5f8f9"/><path d="m42.85 52.5v131c0 13.26 10.75 24 24 24h-30c-13.25 0-24-10.74-24-24v-131c0-13.26 10.75-24 24-24h30c-13.25 0-24 10.74-24 24z" fill="#e8edf2"/><path d="m363.36 275.38v9.1c0 8.35-10.25 12.35-15.9 6.21l-71.67-77.81c-3.16-3.43-7.61-5.38-12.27-5.38h30c4.66 0 9.11 1.95 12.27 5.38z" fill="#e8edf2"/><path d="m61.64 481.92h-30c-13.37 0-24.2-10.84-24.2-24.21v-106.51c0-13.36 10.83-24.2 24.2-24.2h30c-13.37 0-24.2 10.84-24.2 24.2v106.51c0 13.37 10.83 24.21 24.2 24.21z" fill="#fd4755"/></g><g><path d="m122.119 386.918c-2.071-3.588-6.658-4.814-10.245-2.745l-20.771 11.992v-23.985c0-4.143-3.358-7.5-7.5-7.5s-7.5 3.357-7.5 7.5v23.985l-20.771-11.992c-3.588-2.07-8.174-.843-10.245 2.745-2.071 3.587-.842 8.174 2.745 10.245l20.771 11.992-20.771 11.992c-3.587 2.071-4.816 6.658-2.745 10.245 1.389 2.406 3.91 3.751 6.502 3.751 1.272 0 2.562-.324 3.743-1.006l20.771-11.992v23.984c0 4.143 3.358 7.5 7.5 7.5s7.5-3.357 7.5-7.5v-23.984l20.771 11.992c1.181.682 2.471 1.006 3.743 1.006 2.592 0 5.113-1.345 6.502-3.751 2.071-3.587.842-8.174-2.745-10.245l-20.771-11.992 20.771-11.992c3.587-2.071 4.816-6.658 2.745-10.245z"/><path d="m351.569 386.918c-2.071-3.588-6.657-4.814-10.245-2.745l-20.771 11.992v-23.985c0-4.143-3.358-7.5-7.5-7.5s-7.5 3.357-7.5 7.5v23.985l-20.771-11.992c-3.588-2.07-8.174-.843-10.245 2.745-2.071 3.587-.842 8.174 2.745 10.245l20.771 11.992-20.771 11.992c-3.587 2.071-4.816 6.658-2.745 10.245 1.389 2.406 3.91 3.751 6.502 3.751 1.272 0 2.562-.324 3.743-1.006l20.771-11.992v23.984c0 4.143 3.358 7.5 7.5 7.5s7.5-3.357 7.5-7.5v-23.984l20.771 11.992c1.181.682 2.471 1.006 3.743 1.006 2.592 0 5.113-1.345 6.502-3.751 2.071-3.587.842-8.174-2.745-10.245l-20.771-11.992 20.771-11.992c3.587-2.071 4.816-6.658 2.745-10.245z"/><path d="m236.844 386.918c-2.071-3.588-6.658-4.814-10.245-2.745l-20.771 11.992v-23.985c0-4.143-3.358-7.5-7.5-7.5s-7.5 3.357-7.5 7.5v23.985l-20.771-11.992c-3.588-2.07-8.174-.843-10.245 2.745-2.071 3.587-.842 8.174 2.745 10.245l20.771 11.992-20.771 11.992c-3.587 2.071-4.816 6.658-2.745 10.245 1.389 2.406 3.91 3.751 6.502 3.751 1.272 0 2.562-.324 3.743-1.006l20.771-11.992v23.984c0 4.143 3.358 7.5 7.5 7.5s7.5-3.357 7.5-7.5v-23.984l20.771 11.992c1.181.682 2.471 1.006 3.743 1.006 2.592 0 5.113-1.345 6.502-3.751 2.071-3.587.842-8.174-2.745-10.245l-20.771-11.992 20.771-11.992c3.587-2.071 4.816-6.658 2.745-10.245z"/><path d="m420.277 446.13c0 4.143 3.358 7.5 7.5 7.5s7.5-3.357 7.5-7.5v-23.984l20.771 11.992c1.181.682 2.471 1.006 3.743 1.006 2.592 0 5.113-1.345 6.502-3.751 2.071-3.587.842-8.174-2.745-10.245l-20.771-11.992 20.771-11.992c3.587-2.071 4.816-6.658 2.745-10.245-2.072-3.588-6.658-4.814-10.245-2.745l-20.771 11.992v-23.986c0-4.143-3.358-7.5-7.5-7.5s-7.5 3.357-7.5 7.5v23.985l-20.771-11.992c-3.587-2.07-8.174-.843-10.245 2.745-2.071 3.587-.842 8.174 2.745 10.245l20.771 11.992-20.771 11.992c-3.587 2.071-4.816 6.658-2.745 10.245 1.389 2.406 3.91 3.751 6.502 3.751 1.272 0 2.562-.324 3.743-1.006l20.771-11.992z"/><path d="m479.67 319.98h-447.96c-17.485 0-31.71 14.225-31.71 31.71v106.5c0 17.485 14.225 31.71 31.71 31.71h350.07c4.142 0 7.5-3.357 7.5-7.5s-3.358-7.5-7.5-7.5h-350.07c-9.214 0-16.71-7.496-16.71-16.71v-106.5c0-9.214 7.496-16.71 16.71-16.71h447.96c9.214 0 16.71 7.496 16.71 16.71v106.5c0 9.214-7.496 16.71-16.71 16.71h-62.89c-4.142 0-7.5 3.357-7.5 7.5s3.358 7.5 7.5 7.5h62.89c17.485 0 31.71-14.225 31.71-31.71v-106.5c0-17.485-14.225-31.71-31.71-31.71z"/><path d="m44.308 70.829c0 4.143 3.358 7.5 7.5 7.5h13.438v90.459c0 4.143 3.358 7.5 7.5 7.5s7.5-3.357 7.5-7.5v-97.959c0-4.143-3.358-7.5-7.5-7.5h-20.938c-4.142 0-7.5 3.357-7.5 7.5z"/><path d="m319.521 76.996c-.53-6.364-4.251-11.523-9.479-13.143-2.466-.766-8.852-1.741-14.88 5.654-5.522 6.775-33.205 56.789-38.698 66.746-1.282 2.323-1.241 5.151.108 7.437 1.349 2.284 3.805 3.687 6.458 3.687h41.438c-.054 7.567-.111 14.863-.167 21.347-.036 4.142 3.293 7.528 7.435 7.564h.066c4.111 0 7.463-3.315 7.498-7.436.022-2.543.092-10.838.168-21.476h5.076c4.142 0 7.5-3.357 7.5-7.5s-3.358-7.5-7.5-7.5h-4.976c.149-24.19.246-51.852-.047-55.38zm-14.954 55.38h-28.802c10.484-18.822 23.425-41.645 28.904-50.281.098 8.524.026 29.081-.102 50.281z"/><path d="m158.009 100.42c.057-.246.102-.494.133-.744l.484-3.79c.041-.315.061-.633.061-.95 0-17.957-14.609-32.565-32.565-32.565-15.527 0-28.966 11.045-31.955 26.262-.798 4.064 1.85 8.007 5.914 8.805 4.066.798 8.006-1.85 8.805-5.914 1.611-8.2 8.859-14.152 17.236-14.152 9.54 0 17.329 7.645 17.56 17.13l-.367 2.879c-1.303 5.318-4.387 11.477-9.17 18.312-15.56 22.231-24.849 34.395-29.839 40.929-6 7.856-7.811 10.228-6.463 14.61.765 2.489 2.663 4.403 5.207 5.252.989.329 2.339.78 21.148.78 7.38 0 17.45-.069 31.237-.243 4.142-.052 7.457-3.451 7.405-7.594-.052-4.109-3.399-7.405-7.498-7.405-.032 0-.064 0-.096.001-12.905.161-26.729.254-36.362.217 5.452-7.177 14.238-18.926 27.55-37.945 5.993-8.568 9.888-16.599 11.575-23.875z"/><path d="m209.185 162.44c-8.715 0-16.194-6.494-17.396-15.107-.113-.808-.17-1.634-.17-2.458 0-4.143-3.358-7.5-7.5-7.5s-7.5 3.357-7.5 7.5c0 1.516.106 3.041.314 4.532 2.23 15.981 16.095 28.033 32.252 28.033 17.957 0 32.566-14.608 32.566-32.565 0-10.071-4.596-19.088-11.8-25.066 7.204-5.978 11.8-14.995 11.8-25.066 0-17.957-14.609-32.565-32.566-32.565-15.527 0-28.966 11.045-31.955 26.262-.798 4.064 1.85 8.007 5.914 8.805 4.066.796 8.007-1.85 8.805-5.914 1.61-8.2 8.859-14.152 17.236-14.152 9.686 0 17.566 7.88 17.566 17.565s-7.88 17.565-17.566 17.565c-4.142 0-7.5 3.357-7.5 7.5s3.358 7.5 7.5 7.5c9.686 0 17.566 7.88 17.566 17.566 0 9.685-7.88 17.565-17.566 17.565z"/><path d="m36.92 215.48h226.66c2.564 0 5.03 1.08 6.763 2.961l71.668 77.809c3.233 3.513 7.66 5.394 12.212 5.393 2.04 0 4.105-.378 6.099-1.155 6.444-2.514 10.608-8.608 10.608-15.527v-231.981c0-17.369-14.131-31.5-31.5-31.5h-242.8c-4.142 0-7.5 3.357-7.5 7.5s3.358 7.5 7.5 7.5h242.8c9.098 0 16.5 7.401 16.5 16.5v231.979c0 .756-.356 1.279-1.06 1.554-.698.273-1.313.132-1.824-.424l-71.671-77.812c-4.566-4.956-11.052-7.798-17.795-7.798h-226.66c-9.098 0-16.5-7.402-16.5-16.5v-131c0-9.099 7.402-16.5 16.5-16.5h24.71c4.142 0 7.5-3.357 7.5-7.5s-3.358-7.5-7.5-7.5h-24.71c-17.369 0-31.5 14.131-31.5 31.5v131c0 17.37 14.131 31.501 31.5 31.501z"/></g></g></svg>