<?xml version="1.0" encoding="UTF-8"?>
<svg width="239px" height="132px" viewBox="0 0 239 132" version="1.1" xmlns="http://www.w3.org/2000/svg" xmlns:xlink="http://www.w3.org/1999/xlink">
    <title>logo</title>
    <g id="Page-1" stroke="none" stroke-width="1" fill="none" fill-rule="evenodd">
        <g id="logo" transform="translate(0.500000, 0.000000)" fill="#5C7CFA" fill-rule="nonzero">
            <path d="M84,132 C91.6666667,132 98.25,130.666667 103.75,128 C109.25,125.333333 114.833333,121.5 120.5,116.5 C125.166667,112.5 129.833333,107.083333 134.5,100.25 C139.166667,93.4166667 143.416667,85.75 147.25,77.25 C151.083333,68.75 154.25,59.75 156.75,50.25 C159.25,40.75 160.5,31.5 160.5,22.5 C160.5,20.8333333 160.75,19.3333333 161.25,18 C161.75,16.6666667 162.833333,15.8333333 164.5,15.5 C168.166667,15.1666667 173.083333,14.6666667 179.25,14 C185.416667,13.3333333 191.916667,12.5 198.75,11.5 C205.583333,10.5 212.25,9.41666667 218.75,8.25 C225.25,7.08333333 230.666667,5.83333333 235,4.5 C237.333333,3.83333333 238.25,3 237.75,2 C237.25,1 236.333333,0.666666667 235,1 C231,2.33333333 224,3.75 214,5.25 C204,6.75 194.166667,7.5 184.5,7.5 C176.5,7.5 170.333333,7.08333333 166,6.25 C161.666667,5.41666667 158.416667,4.58333333 156.25,3.75 C154.083333,2.91666667 152.666667,2.08333333 152,1.25 C151.333333,0.416666667 150.666667,0 150,0 C148.666667,0 146.5,0.75 143.5,2.25 C140.5,3.75 138,4.5 136,4.5 C134.333333,5.16666667 134.166667,6.16666667 135.5,7.5 C140.833333,8.16666667 143.916667,11 144.75,16 C145.583333,21 146,27.5 146,35.5 C146,44.5 145,54 143,64 C141,74 138.083333,83.1666667 134.25,91.5 C130.416667,99.8333333 125.5,106.75 119.5,112.25 C113.5,117.75 106.5,120.5 98.5,120.5 C93.1666667,120.5 88.8333333,119.333333 85.5,117 C82.1666667,114.666667 79.5,111.666667 77.5,108 C75.5,104.333333 74.1666667,100.166667 73.5,95.5 C72.8333333,90.8333333 72.5,86.1666667 72.5,81.5 C83.1666667,72.8333333 91.6666667,64.5833333 98,56.75 C104.333333,48.9166667 109.333333,41.75 113,35.25 C116.666667,28.75 119.083333,23.1666667 120.25,18.5 C121.416667,13.8333333 122,10.6666667 122,9 C122,8 121.75,6.58333333 121.25,4.75 C120.75,2.91666667 119.166667,2 116.5,2 C111.166667,2 106.5,3.83333333 102.5,7.5 C98.5,11.1666667 95.6666667,14 94,16 C85.6666667,26 78.3333333,37.25 72,49.75 C65.6666667,62.25 61,75 58,88 C49.3333333,93.6666667 42.4166667,97.3333333 37.25,99 C32.0833333,100.666667 28.6666667,101.5 27,101.5 C24.6666667,101.5 22.8333333,100.666667 21.5,99 C20.1666667,97.3333333 19.5,95.5 19.5,93.5 C19.5,89.5 20.6666667,84 23,77 C25.3333333,70 28.5,62.5833333 32.5,54.75 C36.5,46.9166667 40.9166667,39.0833333 45.75,31.25 C50.5833333,23.4166667 55.5,16.8333333 60.5,11.5 C63.5,8.5 65.9166667,6.66666667 67.75,6 C69.5833333,5.33333333 70.5,4.66666667 70.5,4 C70.5,3 69.8333333,2.5 68.5,2.5 C66.5,2.83333333 63.8333333,3.41666667 60.5,4.25 C59.1111111,4.59722222 57.7800926,4.92997685 56.5069444,5.24826389 L55.0069444,5.62326389 C53.7800926,5.92997685 52.6111111,6.22222222 51.5,6.5 C49.5,7.16666667 47.75,8.25 46.25,9.75 C44.75,11.25 43.5,12.6666667 42.5,14 C40.1666667,17 36.6666667,21.75 32,28.25 C27.3333333,34.75 22.5833333,41.9166667 17.75,49.75 C12.9166667,57.5833333 8.75,65.4166667 5.25,73.25 C1.75,81.0833333 0,88 0,94 C0,99 1.25,102.75 3.75,105.25 C6.25,107.75 9.5,109 13.5,109 C20.8333333,109 28.3333333,107.166667 36,103.5 C43.6666667,99.8333333 50.6666667,96.1666667 57,92.5 C56.3333333,95.8333333 56,99.3333333 56,103 C56,111.666667 58.5,118.666667 63.5,124 C68.5,129.333333 75.3333333,132 84,132 Z M72.5,77 C74.1666667,66 76.5,56.4166667 79.5,48.25 C82.5,40.0833333 85.5833333,33.3333333 88.75,28 C91.9166667,22.6666667 95,18.6666667 98,16 C101,13.3333333 103.333333,12 105,12 C107,12 108.25,13 108.75,15 C109.25,17 109.5,18.3333333 109.5,19 C109.5,26 106.666667,34.75 101,45.25 C95.3333333,55.75 85.8333333,66.3333333 72.5,77 Z" id="w"></path>
        </g>
    </g>
</svg>