<svg enable-background="new 0 0 800 800" id="Layer_1" version="1.1" viewBox="0 0 800 800" xml:space="preserve" xmlns="http://www.w3.org/2000/svg" xmlns:xlink="http://www.w3.org/1999/xlink"><g><g><path d="M499,150.3H301v197.9c0,1.7,0,3.4,0.1,5.1c14.5-42.3,54.6-72.6,101.8-72.6c59.4,0,107.6,48.2,107.6,107.6     c0,59.4-48.2,107.6-107.6,107.6c-16.8,0-32.7-3.8-46.8-10.7c36,37.6,86.7,61,142.9,61h0c109.3,0,197.9-88.6,197.9-197.9v0     C696.9,238.9,608.3,150.3,499,150.3z" fill="#FFF200"/><path d="M442.8,150.3H301V292c0,15.7,2.6,30.8,7.3,44.9c18.2-33.5,53.8-56.3,94.6-56.3     c59.4,0,107.6,48.2,107.6,107.6c0,10.7-1.6,21-4.5,30.8c46.6-23.2,78.6-71.4,78.6-127v0C584.6,213.7,521.1,150.3,442.8,150.3z" fill="#FFC60B"/><path d="M402.9,495.8c-59.4,0-107.6-48.2-107.6-107.6c0-58.6,46.8-106.2,105.1-107.6     c-29.2-17-63.1-26.7-99.3-26.7h0c-109.3,0-197.9,88.6-197.9,197.9v0c0,109.3,88.6,197.9,197.9,197.9H499V451.8     c0-4.8-0.2-9.5-0.5-14.1C480.5,472.2,444.5,495.8,402.9,495.8z" fill="#00AAAD"/><path d="M402.9,495.8c-59.4,0-107.6-48.2-107.6-107.6c0-11.2,1.7-22.1,4.9-32.3c-59.8,20-102.8,76.5-102.8,143v0     c0,83.3,67.5,150.8,150.8,150.8H499V499c0-17.1-2.8-33.5-8.1-48.8C471.4,477.8,439.3,495.8,402.9,495.8z" fill="#00AEEF"/></g></g></svg>