<svg id="Layer_1" enable-background="new 0 0 512 512" height="512" viewBox="0 0 512 512" width="512" xmlns="http://www.w3.org/2000/svg"><g><g clip-rule="evenodd" fill-rule="evenodd"><path d="m13.323 48.375h485.354c3.203 0 5.84 2.608 5.84 5.812v51.25c0 3.203-2.637 5.84-5.84 5.84h-485.354c-3.203 0-5.812-2.637-5.812-5.84v-51.25c.001-3.204 2.609-5.812 5.812-5.812z" fill="#365e7d"/><path d="m469.565 48.375h29.112c3.203 0 5.84 2.608 5.84 5.812v51.25c0 3.203-2.637 5.84-5.84 5.84h-29.112c3.203 0 5.811-2.637 5.811-5.84v-51.25c0-3.204-2.608-5.812-5.811-5.812z" fill="#2b4d66"/><path d="m7.512 105.437h497.005v352.379c0 3.203-2.637 5.811-5.84 5.811h-485.354c-3.203 0-5.812-2.607-5.812-5.811.001-117.469.001-234.91.001-352.379z" fill="#b1e4f9"/><path d="m61.371 179.705h389.258v209.682h-389.258z" fill="#fff9df"/><path d="m475.376 105.437h29.141v352.379c0 3.203-2.637 5.811-5.84 5.811h-29.112c3.203 0 5.811-2.607 5.811-5.811 0-117.469 0-234.91 0-352.379z" fill="#90d8f9"/><path d="m241.94 159.807h28.147c3.203 0 5.812 2.607 5.812 5.811v28.148c0 3.203-2.608 5.839-5.812 5.839h-28.147c-3.203 0-5.84-2.636-5.84-5.839v-28.148c.001-3.204 2.637-5.811 5.84-5.811zm-194.628 0h28.147c3.203 0 5.812 2.607 5.812 5.811v28.148c0 3.203-2.608 5.839-5.812 5.839h-28.147c-3.203 0-5.841-2.636-5.841-5.839v-28.148c0-3.204 2.637-5.811 5.841-5.811zm0 104.825h28.147c3.203 0 5.812 2.637 5.812 5.84v28.148c0 3.204-2.608 5.812-5.812 5.812h-28.147c-3.203 0-5.841-2.607-5.841-5.812v-28.148c0-3.203 2.637-5.84 5.841-5.84zm0 104.854h28.147c3.203 0 5.812 2.608 5.812 5.812v28.148c0 3.203-2.608 5.84-5.812 5.84h-28.147c-3.203 0-5.841-2.637-5.841-5.84v-28.148c0-3.203 2.637-5.812 5.841-5.812zm194.628 0h28.147c3.203 0 5.812 2.608 5.812 5.812v28.148c0 3.203-2.608 5.84-5.812 5.84h-28.147c-3.203 0-5.84-2.637-5.84-5.84v-28.148c.001-3.203 2.637-5.812 5.84-5.812zm194.628 0h28.148c3.203 0 5.811 2.608 5.811 5.812v28.148c0 3.203-2.608 5.84-5.811 5.84h-28.148c-3.203 0-5.839-2.637-5.839-5.84v-28.148c0-3.203 2.636-5.812 5.839-5.812zm0-104.854h28.148c3.203 0 5.811 2.637 5.811 5.84v28.148c0 3.204-2.608 5.812-5.811 5.812h-28.148c-3.203 0-5.839-2.607-5.839-5.812v-28.148c0-3.203 2.636-5.84 5.839-5.84zm0-104.825h28.148c3.203 0 5.811 2.607 5.811 5.811v28.148c0 3.203-2.608 5.839-5.811 5.839h-28.148c-3.203 0-5.839-2.636-5.839-5.839v-28.148c0-3.204 2.636-5.811 5.839-5.811z" fill="#78c2a4"/></g><path d="m497.005 434.515c0-4.139 3.373-7.512 7.512-7.512s7.483 3.373 7.483 7.512v29.111c0 4.168-3.345 7.512-7.483 7.512h-497.005c-4.138 0-7.512-3.344-7.512-7.512v-295.089c0-4.139 3.374-7.484 7.512-7.484 4.139 0 7.483 3.346 7.483 7.484v287.607h482.01zm-213.594-262.322h139.835v-12.387c0-4.139 3.345-7.513 7.483-7.513h39.799c4.139 0 7.513 3.374 7.513 7.513v39.798c0 4.139-3.374 7.512-7.513 7.512h-12.388v50.033h12.388c4.139 0 7.513 3.344 7.513 7.482v39.8c0 4.139-3.374 7.512-7.513 7.512h-12.388v50.031h12.388c4.139 0 7.513 3.373 7.513 7.512v39.8c0 4.139-3.374 7.483-7.513 7.483h-39.799c-4.139 0-7.483-3.345-7.483-7.483v-12.416h-139.835v12.416c0 4.139-3.373 7.483-7.512 7.483h-39.799c-4.139 0-7.483-3.345-7.483-7.483v-12.416h-139.835v12.416c0 4.139-3.373 7.483-7.512 7.483h-39.8c-4.138 0-7.483-3.345-7.483-7.483v-39.8c0-4.139 3.346-7.512 7.483-7.512h12.417v-50.031h-12.416c-4.138 0-7.483-3.373-7.483-7.512v-39.8c0-4.139 3.346-7.482 7.483-7.482h12.417v-50.033h-12.417c-4.138 0-7.483-3.373-7.483-7.512v-39.798c0-4.139 3.346-7.513 7.483-7.513h39.8c4.139 0 7.512 3.374 7.512 7.513v12.387h139.835v-12.387c0-4.139 3.345-7.513 7.483-7.513h39.799c4.139 0 7.512 3.374 7.512 7.513v12.387zm139.835 15.024h-139.835v12.388c0 4.139-3.373 7.512-7.512 7.512h-39.799c-4.139 0-7.483-3.373-7.483-7.512v-12.388h-139.835v12.388c0 4.139-3.373 7.512-7.512 7.512h-12.387v50.033h12.388c4.139 0 7.512 3.344 7.512 7.482v39.8c0 4.139-3.373 7.512-7.512 7.512h-12.388v50.031h12.388c4.139 0 7.512 3.373 7.512 7.512v12.388h139.835v-12.388c0-4.139 3.345-7.512 7.483-7.512h39.799c4.139 0 7.512 3.373 7.512 7.512v12.388h139.835v-12.388c0-4.139 3.345-7.512 7.483-7.512h12.416v-50.031h-12.416c-4.139 0-7.483-3.373-7.483-7.512v-39.8c0-4.139 3.345-7.482 7.483-7.482h12.416v-50.033h-12.416c-4.139 0-7.483-3.373-7.483-7.512v-12.388zm-349.459-19.899h-24.803v24.774h24.803zm389.258 0h-24.804v24.774h24.804zm0 209.653h-24.804v24.804h24.804zm0-104.827h-24.804v24.805h24.804zm-194.629 104.827h-24.804v24.804h24.804zm0-209.653h-24.804v24.774h24.804zm-194.629 209.653h-24.803v24.804h24.803zm0-104.827h-24.803v24.805h24.803zm156.871-37.899c4.139 0 7.483 3.373 7.483 7.512s-3.345 7.483-7.483 7.483h-28.234v27.411h25.599c4.138 0 7.512 3.345 7.512 7.512 0 4.139-3.374 7.483-7.512 7.483h-25.599v27.412h28.234c4.139 0 7.483 3.345 7.483 7.483s-3.345 7.512-7.483 7.512h-35.746c-4.139 0-7.483-3.373-7.483-7.512v-84.785c0-4.139 3.345-7.512 7.483-7.512h35.746zm116.902 14.995c-4.138 0-7.512-3.345-7.512-7.483 0-4.139 3.374-7.512 7.512-7.512h47.255c4.139 0 7.512 3.373 7.512 7.512s-3.373 7.483-7.512 7.483h-16.215v78.096c0 4.139-3.373 7.483-7.512 7.483s-7.483-3.345-7.483-7.483v-78.096zm-230.374 0c-4.139 0-7.483-3.345-7.483-7.483 0-4.139 3.345-7.512 7.483-7.512h47.283c4.138 0 7.483 3.373 7.483 7.512s-3.346 7.483-7.483 7.483h-16.243v78.096c0 4.139-3.345 7.483-7.483 7.483-4.167 0-7.512-3.345-7.512-7.483v-78.096zm137.822-3.175c-2.381-3.401-1.587-8.051 1.814-10.432 3.373-2.381 8.05-1.559 10.432 1.814l21.826 31.039 21.885-31.039c2.381-3.373 7.059-4.195 10.432-1.814s4.195 7.03 1.813 10.432l-24.974 35.434 29.226 41.528c2.353 3.373 1.56 8.05-1.842 10.432-3.373 2.381-8.051 1.559-10.403-1.815l-26.137-37.134-26.164 37.135c-2.381 3.373-7.029 4.195-10.431 1.815-3.374-2.382-4.195-7.059-1.814-10.432l29.254-41.528zm218.383-176.657c4.14 0 7.485 3.345 7.485 7.483 0 4.167-3.346 7.512-7.485 7.512h-17.914c-4.139 0-7.513-3.345-7.513-7.512 0-4.139 3.374-7.483 7.513-7.483zm-94.083 0c4.167 0 7.513 3.345 7.513 7.483 0 4.167-3.346 7.512-7.513 7.512h-17.886c-4.167 0-7.513-3.345-7.513-7.512 0-4.139 3.346-7.483 7.513-7.483zm47.056 0c4.139 0 7.483 3.345 7.483 7.483 0 4.167-3.345 7.512-7.483 7.512h-17.915c-4.139 0-7.512-3.345-7.512-7.512 0-4.139 3.373-7.483 7.512-7.483zm-418.852-28.546h497.005c4.139 0 7.483 3.374 7.483 7.513v352.181c0 4.139-3.345 7.483-7.483 7.483s-7.512-3.345-7.512-7.483v-287.608h-482.01v21.63c0 4.139-3.345 7.483-7.483 7.483s-7.512-3.345-7.512-7.483v-86.203c0-4.139 3.374-7.513 7.512-7.513zm489.493 14.996h-482.01v42.095h482.01z"/></g></svg>