<?xml version="1.0" ?><svg viewBox="0 0 64 64" xmlns="http://www.w3.org/2000/svg"><title/><g id="analyse"><circle cx="43" cy="21" r="19" style="fill:#fcf1c3"/><path d="M30.5,55H55.742A2.258,2.258,0,0,0,58,52.742V16H3V52.742A2.258,2.258,0,0,0,5.258,55H30.5" style="fill:#6b4f5b;stroke:#4c241d;stroke-linecap:round;stroke-linejoin:round;stroke-width:2px"/><path d="M5.258,10H55.742A2.258,2.258,0,0,1,58,12.258V16a0,0,0,0,1,0,0H3a0,0,0,0,1,0,0V12.258A2.258,2.258,0,0,1,5.258,10Z" style="fill:#fff;stroke:#4c241d;stroke-linecap:round;stroke-linejoin:round;stroke-width:2px"/><circle cx="7" cy="13" r="1" style="fill:#f53e28"/><circle cx="10" cy="13" r="1" style="fill:#ffce56"/><circle cx="13" cy="13" r="1" style="fill:#a9ba5a"/><line style="fill:none;stroke:#4c241d;stroke-linecap:round;stroke-linejoin:round;stroke-width:2px" x1="55" x2="55" y1="22" y2="34"/><circle cx="42" cy="3" r="1" style="fill:#4c241d"/><line style="fill:none;stroke:#4c241d;stroke-linecap:round;stroke-linejoin:round;stroke-width:2px" x1="51.586" x2="54.414" y1="3.586" y2="6.414"/><line style="fill:none;stroke:#4c241d;stroke-linecap:round;stroke-linejoin:round;stroke-width:2px" x1="54.414" x2="51.586" y1="3.586" y2="6.414"/><line style="fill:none;stroke:#fff;stroke-linecap:round;stroke-linejoin:round;stroke-width:2px" x1="8" x2="18" y1="20" y2="20"/><line style="fill:none;stroke:#fff;stroke-linecap:round;stroke-linejoin:round;stroke-width:2px" x1="25" x2="48" y1="28" y2="28"/><line style="fill:none;stroke:#fff;stroke-linecap:round;stroke-linejoin:round;stroke-width:2px" x1="35" x2="48" y1="24" y2="24"/><line style="fill:none;stroke:#fff;stroke-linecap:round;stroke-linejoin:round;stroke-width:2px" x1="8" x2="21" y1="44" y2="44"/><line style="fill:none;stroke:#fff;stroke-linecap:round;stroke-linejoin:round;stroke-width:2px" x1="8" x2="21" y1="28" y2="28"/><line style="fill:none;stroke:#fff;stroke-linecap:round;stroke-linejoin:round;stroke-width:2px" x1="38" x2="42" y1="20" y2="20"/><line style="fill:none;stroke:#a9ba5a;stroke-linecap:round;stroke-linejoin:round;stroke-width:2px" x1="22" x2="34" y1="20" y2="20"/><line style="fill:none;stroke:#a9ba5a;stroke-linecap:round;stroke-linejoin:round;stroke-width:2px" x1="8" x2="15" y1="36" y2="36"/><line style="fill:none;stroke:#a9ba5a;stroke-linecap:round;stroke-linejoin:round;stroke-width:2px" x1="19" x2="26" y1="36" y2="36"/><line style="fill:none;stroke:#02eae6;stroke-linecap:round;stroke-linejoin:round;stroke-width:2px" x1="8" x2="29" y1="32" y2="32"/><line style="fill:none;stroke:#02eae6;stroke-linecap:round;stroke-linejoin:round;stroke-width:2px" x1="8" x2="27" y1="40" y2="40"/><line style="fill:none;stroke:#a9ba5a;stroke-linecap:round;stroke-linejoin:round;stroke-width:2px" x1="8" x2="31" y1="24" y2="24"/><path d="M53.146,50.99h3a0,0,0,0,1,0,0V62.218a1.5,1.5,0,0,1-1.5,1.5h0a1.5,1.5,0,0,1-1.5-1.5V50.99a0,0,0,0,1,0,0Z" style="fill:#f53e28;stroke:#4c241d;stroke-linecap:round;stroke-linejoin:round;stroke-width:2px" transform="translate(-24.55 55.439) rotate(-45)"/><circle cx="43" cy="45" r="12" style="fill:#ffce56;stroke:#4c241d;stroke-linecap:round;stroke-linejoin:round;stroke-width:2px"/><polyline points="35 49.886 35 48 40 48 40 53.389" style="fill:#ffce56;stroke:#4c241d;stroke-linecap:round;stroke-linejoin:round;stroke-width:2px"/><line style="fill:none;stroke:#4c241d;stroke-linecap:round;stroke-linejoin:round;stroke-width:2px" x1="44" x2="44" y1="48" y2="53"/><line style="fill:none;stroke:#4c241d;stroke-linecap:round;stroke-linejoin:round;stroke-width:2px" x1="48" x2="48" y1="48" y2="53"/><line style="fill:none;stroke:#4c241d;stroke-linecap:round;stroke-linejoin:round;stroke-width:2px" x1="48" x2="48" y1="38" y2="45"/><rect height="7" style="fill:none;stroke:#4c241d;stroke-linecap:round;stroke-linejoin:round;stroke-width:2px" width="5" x="39" y="38"/></g></svg>