<svg viewBox="0 0 64 64" xmlns="http://www.w3.org/2000/svg"><defs><style>.cls-1{fill:#cdcdcd;}.cls-2{fill:#787d82;}.cls-3{fill:#3b869e;}.cls-4{fill:#fdc9a6;}.cls-5{fill:#f9d7c0;}.cls-6{fill:#69b0bb;}.cls-7{fill:#f9e0a0;}.cls-8{fill:#a8a8a8;}.cls-9{fill:#b9b9b9;}</style></defs><title/><g data-name="filled outline" id="filled_outline"><path class="cls-1" d="M32,7H9a4,4,0,0,0-4,4V21a4,4,0,0,0,4,4H27l5,5V25a4,4,0,0,0,4-4V11A4,4,0,0,0,32,7Z"/><path class="cls-2" d="M22,52a1,1,0,0,1-.707-1.707L22.586,49l-1.293-1.293a1,1,0,0,1,0-1.414L22.586,45l-1.293-1.293a1,1,0,0,1,0-1.414l.823-.824A1,1,0,0,1,22,41V38a1,1,0,0,1,2,0v2a1,1,0,0,1,.707,1.707L23.414,43l1.293,1.293a1,1,0,0,1,0,1.414L23.414,47l1.293,1.293a1,1,0,0,1,0,1.414l-2,2A1,1,0,0,1,22,52Z"/><path class="cls-3" d="M42,48H40.236a2.985,2.985,0,0,1-2.683-1.658l-1.342-2.684A2.986,2.986,0,0,0,33.528,42H3a1,1,0,0,1,0-2H33.528A4.974,4.974,0,0,1,38,42.764l1.342,2.683a.993.993,0,0,0,.894.553H42a1,1,0,0,0,1-1V41a1,1,0,0,1,2,0v4A3,3,0,0,1,42,48Z"/><path class="cls-4" d="M61,23H48.815a4,4,0,0,0-3.01,1.366l-3.63,4.149a3.158,3.158,0,0,0,.4,4.548l0,0a3.16,3.16,0,0,0,4.4-.445L50,29H61Z"/><path class="cls-4" d="M61,35H56a3,3,0,0,1-3-3h0a3,3,0,0,1,3-3h5Z"/><rect class="cls-5" height="2" width="2" x="56" y="31"/><polygon class="cls-6" points="47 38 41 38 39 34 49 34 47 38"/><rect class="cls-6" height="5" width="6" x="41" y="37"/><rect class="cls-7" height="2" width="2" x="41" y="20"/><rect class="cls-7" height="2" width="2" x="41" y="16"/><rect class="cls-7" height="2" width="2" x="41" y="12"/><rect class="cls-7" height="2" width="2" x="34" y="36"/><rect class="cls-7" height="2" width="2" x="30" y="36"/><rect class="cls-7" height="2" width="2" x="26" y="36"/><rect class="cls-8" height="2" width="2" x="8" y="10"/><rect class="cls-8" height="2" width="2" x="8" y="14"/><rect class="cls-8" height="2" width="2" x="19" y="18"/><rect class="cls-8" height="2" width="2" x="23" y="18"/><rect class="cls-8" height="2" width="2" x="12" y="14"/><rect class="cls-8" height="2" width="2" x="27" y="14"/><rect class="cls-8" height="2" width="2" x="31" y="14"/><rect class="cls-8" height="2" width="2" x="22" y="10"/><rect class="cls-9" height="6" width="41" x="3" y="51"/><rect class="cls-1" height="3" width="41" x="3" y="51"/><path class="cls-1" d="M16,52H8V40a4,4,0,0,1,4-4h0a4,4,0,0,1,4,4Z"/><circle class="cls-3" cx="12" cy="39.5" r="1"/><rect class="cls-1" height="8" width="4" x="30" y="45"/><rect class="cls-8" height="2" width="8" x="12" y="10"/><rect class="cls-8" height="2" width="9" x="16" y="14"/><rect class="cls-8" height="2" width="9" x="8" y="18"/><rect class="cls-8" height="2" width="7" x="26" y="10"/><rect class="cls-8" height="2" width="6" x="27" y="18"/><path d="M48.815,22a5,5,0,0,0-3.763,1.708l-3.63,4.148A4.119,4.119,0,0,0,41.176,33H39a1,1,0,0,0-.9,1.447L40,38.236V42a1,1,0,0,0,1,1h2v2a1,1,0,0,1-1,1H40.236a.993.993,0,0,1-.894-.553L38,42.764A4.974,4.974,0,0,0,33.528,40H24V38a1,1,0,0,0-2,0v2H17A5,5,0,0,0,7,40H3a1,1,0,0,0,0,2H7v8H3a1,1,0,0,0-1,1v6a1,1,0,0,0,1,1H44a1,1,0,0,0,1-1V51a1,1,0,0,0-1-1H35V45a1,1,0,0,0-1-1H30a1,1,0,0,0-1,1v5H24.414l.293-.293a1,1,0,0,0,0-1.414L23.414,47l1.293-1.293a1,1,0,0,0,0-1.414L23.414,43l1-1h9.114a2.986,2.986,0,0,1,2.683,1.658l1.342,2.684A2.985,2.985,0,0,0,40.236,48H42a3,3,0,0,0,3-3V43h2a1,1,0,0,0,1-1V38.236l1.9-3.789A1,1,0,0,0,49,33H47.969l2.5-3h2.087A3.959,3.959,0,0,0,52,32a4,4,0,0,0,4,4h6V22ZM9,40a3,3,0,0,1,6,0V50H9ZM43,56H4V52H43ZM31,46h2v4H31Zm-9.707-2.293L22.586,45l-1.293,1.293a1,1,0,0,0,0,1.414L22.586,49l-1,1H17V42h4.586l-.293.293A1,1,0,0,0,21.293,43.707ZM47.382,35l-1,2H41.618l-1-2ZM46,41H42V39h4Zm14-7H56a2,2,0,0,1,0-4h4Zm-4-6H49.531l-3.316,3.98a2.175,2.175,0,0,1-2.982.327l-.029-.025a2.158,2.158,0,0,1-.276-3.109l3.63-4.149A3,3,0,0,1,48.815,24H60v4Z"/><rect height="2" width="2" x="56" y="31"/><path d="M12,38.5a1,1,0,1,0,1,1A1,1,0,0,0,12,38.5Zm0,1h0Z"/><rect height="2" width="2" x="41" y="20"/><rect height="2" width="2" x="41" y="16"/><rect height="2" width="2" x="41" y="12"/><rect height="2" width="2" x="34" y="36"/><rect height="2" width="2" x="30" y="36"/><rect height="2" width="2" x="26" y="36"/><rect height="2" width="2" x="8" y="10"/><rect height="2" width="2" x="8" y="14"/><rect height="2" width="2" x="19" y="18"/><rect height="2" width="2" x="23" y="18"/><rect height="2" width="2" x="12" y="14"/><rect height="2" width="2" x="27" y="14"/><rect height="2" width="2" x="31" y="14"/><rect height="2" width="2" x="22" y="10"/><rect height="2" width="8" x="12" y="10"/><rect height="2" width="9" x="16" y="14"/><rect height="2" width="9" x="8" y="18"/><rect height="2" width="7" x="26" y="10"/><rect height="2" width="6" x="27" y="18"/><path d="M9,26H26.586l4.707,4.707A1,1,0,0,0,32,31a.987.987,0,0,0,.383-.076A1,1,0,0,0,33,30V25.9A5.008,5.008,0,0,0,37,21V11a5.006,5.006,0,0,0-5-5H9a5.006,5.006,0,0,0-5,5V21A5.006,5.006,0,0,0,9,26ZM6,11A3,3,0,0,1,9,8H32a3,3,0,0,1,3,3V21a3,3,0,0,1-3,3,1,1,0,0,0-1,1v2.586l-3.293-3.293A1,1,0,0,0,27,24H9a3,3,0,0,1-3-3Z"/></g></svg>