<svg id="Layer_1" enable-background="new 0 0 512 512" height="512" viewBox="0 0 512 512" width="512" xmlns="http://www.w3.org/2000/svg"><g><path d="m283.5 307.5h-252c-13.255 0-24-10.745-24-24v-252c0-13.255 10.745-24 24-24h252c13.255 0 24 10.745 24 24v252c0 13.255-10.745 24-24 24z" fill="#7be492"/><path d="m283.5 7.5h-30c13.255 0 24 10.745 24 24v252c0 13.255-10.745 24-24 24h30c13.255 0 24-10.745 24-24v-252c0-13.255-10.745-24-24-24z" fill="#45d987"/><path d="m37.5 273.5v-232c0-2.209 1.791-4 4-4h232c2.209 0 4 1.791 4 4v232c0 2.209-1.791 4-4 4h-232c-2.209 0-4-1.791-4-4z" fill="#f78e36"/><path d="m273.5 37.5h-30c2.209 0 4 1.791 4 4v232c0 2.209-1.791 4-4 4h30c2.209 0 4-1.791 4-4v-232c0-2.209-1.791-4-4-4z" fill="#f86f1b"/><path d="m273.5 277.5h-232c-2.209 0-4-1.791-4-4v-48h240v48c0 2.209-1.791 4-4 4z" fill="#29cef6"/><path d="m247.5 225.5v48c0 2.209-1.791 4-4 4h30c2.209 0 4-1.791 4-4v-48z" fill="#22b5ed"/><path d="m143.88 225.5 64.135-59.34c1.534-1.419 3.902-1.419 5.435.002l64.05 59.338z" fill="#d2d2d2"/><path d="m247.5 225.5h30l-30-27.793z" fill="#bbb"/><circle cx="202" cy="97" fill="#ffc328" r="23"/><path d="m480.259 504.5h-113.518c-13.388 0-24.241-10.853-24.241-24.241v-113.518c0-13.388 10.853-24.241 24.241-24.241h113.518c13.388 0 24.241 10.853 24.241 24.241v113.518c0 13.388-10.853 24.241-24.241 24.241z" fill="#7be492"/><path d="m480.259 342.5h-30c13.388 0 24.241 10.853 24.241 24.241v113.518c0 13.388-10.853 24.241-24.241 24.241h30c13.388 0 24.241-10.853 24.241-24.241v-113.518c0-13.388-10.853-24.241-24.241-24.241z" fill="#45d987"/><path d="m372.5 472.5v-98c0-1.105.895-2 2-2h98c1.105 0 2 .895 2 2v98c0 1.105-.895 2-2 2h-98c-1.105 0-2-.895-2-2z" fill="#f78e36"/><path d="m472.5 474.5h-98c-1.105 0-2-.895-2-2v-32.573h102v32.573c0 1.105-.895 2-2 2z" fill="#29cef6"/><path d="m423.5 439.927h51l-23.934-30.139c-.801-1.008-2.332-1.008-3.132 0z" fill="#e4e4e4"/><path d="m372.5 439.927h62.961l-29.914-37.67c-.801-1.008-2.332-1.008-3.132 0z" fill="#f3f3f3"/><path d="m37.5 225.5 86.32-79.867c1.534-1.419 3.902-1.419 5.435.002l86.206 79.865z" fill="#f3f3f3"/><g><path d="m472.5 365h-98c-5.238 0-9.5 4.262-9.5 9.5v98c0 5.238 4.262 9.5 9.5 9.5h98c5.238 0 9.5-4.262 9.5-9.5v-98c0-5.238-4.262-9.5-9.5-9.5zm-5.5 15v38.422l-10.562-13.3c-1.813-2.281-4.524-3.59-7.438-3.59s-5.626 1.309-7.439 3.592l-12.08 15.212-18.062-22.745c-1.813-2.281-4.524-3.59-7.438-3.59s-5.626 1.309-7.439 3.592l-16.542 20.829v-38.422zm-27.918 52.427-.024-.031 9.942-12.52 9.967 12.551zm-19.203 0h-31.846l15.947-20.082 15.923 20.051zm-39.879 34.573v-19.573h87v19.573z"/><path d="m504.5 435.037c4.143 0 7.5-3.357 7.5-7.5v-60.796c0-17.502-14.239-31.741-31.741-31.741h-113.518c-17.502 0-31.741 14.239-31.741 31.741v113.518c0 17.502 14.239 31.741 31.741 31.741h113.518c17.502 0 31.741-14.239 31.741-31.741v-20.628c0-4.143-3.357-7.5-7.5-7.5s-7.5 3.357-7.5 7.5v20.628c0 9.231-7.51 16.741-16.741 16.741h-113.518c-9.231 0-16.741-7.51-16.741-16.741v-113.518c0-9.231 7.51-16.741 16.741-16.741h113.518c9.231 0 16.741 7.51 16.741 16.741v60.796c0 4.143 3.357 7.5 7.5 7.5z"/><path d="m283.5 0h-252c-17.369 0-31.5 14.131-31.5 31.5v194c0 4.143 3.357 7.5 7.5 7.5s7.5-3.357 7.5-7.5v-194c0-9.098 7.402-16.5 16.5-16.5h252c9.098 0 16.5 7.402 16.5 16.5v252c0 9.098-7.402 16.5-16.5 16.5h-252c-9.098 0-16.5-7.402-16.5-16.5v-25.814c0-4.143-3.357-7.5-7.5-7.5s-7.5 3.357-7.5 7.5v25.814c0 17.369 14.131 31.5 31.5 31.5h252c17.369 0 31.5-14.131 31.5-31.5v-252c0-17.369-14.131-31.5-31.5-31.5z"/><path d="m225 30h-183.5c-6.341 0-11.5 5.159-11.5 11.5v232c0 6.341 5.159 11.5 11.5 11.5h232c6.341 0 11.5-5.159 11.5-11.5v-232c0-6.341-5.159-11.5-11.5-11.5h-17.5c-4.143 0-7.5 3.357-7.5 7.5s3.357 7.5 7.5 7.5h14v163.328l-51.448-47.666c-4.384-4.067-11.252-4.066-15.626-.007l-23.227 21.489-45.348-42.012c-4.379-4.055-11.241-4.059-15.624-.004l-73.727 68.215v-163.343h180c4.143 0 7.5-3.357 7.5-7.5s-3.357-7.5-7.5-7.5zm45 240h-225v-37h225zm-59.267-96.133 47.636 44.133h-39.967l-27.667-25.631zm-84.198-20.528 69.796 64.661h-139.682z"/><path d="m202 66.5c-16.817 0-30.5 13.683-30.5 30.5s13.683 30.5 30.5 30.5 30.5-13.683 30.5-30.5-13.683-30.5-30.5-30.5zm0 46c-8.547 0-15.5-6.953-15.5-15.5s6.953-15.5 15.5-15.5 15.5 6.953 15.5 15.5-6.953 15.5-15.5 15.5z"/><path d="m412.057 278.165-14.94-1.01c-4.105-.249-7.71 2.844-7.989 6.978-.279 4.133 2.845 7.709 6.978 7.989l34.441 2.328c.169.011.338.017.506.017 1.966 0 3.861-.772 5.27-2.163 1.529-1.51 2.337-3.603 2.219-5.748l-1.915-34.854c-.227-4.137-3.764-7.317-7.899-7.077-4.136.227-7.305 3.764-7.077 7.899l.815 14.834-47.419-47.419c-2.93-2.928-7.678-2.928-10.607 0-2.929 2.93-2.929 7.678 0 10.607z"/><path d="m292.034 396.29c-.228-4.136-3.747-7.325-7.9-7.076-4.136.227-7.304 3.764-7.076 7.9l.815 14.835-47.42-47.421c-2.929-2.927-7.677-2.929-10.607 0-2.929 2.93-2.929 7.678 0 10.607l47.619 47.62-14.939-1.01c-4.134-.267-7.71 2.844-7.989 6.978-.278 4.133 2.845 7.71 6.978 7.989l34.442 2.327c.169.011.338.017.506.017 1.966 0 3.861-.772 5.27-2.163 1.529-1.51 2.337-3.604 2.219-5.749z"/></g></g></svg>