<svg id="Capa_1" enable-background="new 0 0 512 512" height="512" viewBox="0 0 512 512" width="512" xmlns="http://www.w3.org/2000/svg"><g><g><path d="m484.5 456.892h-457c-11.046 0-20-8.954-20-20v-361.784c0-11.046 8.954-20 20-20h457c11.046 0 20 8.954 20 20v361.784c0 11.046-8.954 20-20 20z" fill="#e8edf1"/><path d="m504.5 75.11v361.78c0 11.05-8.95 20-20 20h-38.5c11.04 0 20-8.95 20-20v-361.78c0-11.05-8.96-20-20-20h38.5c11.05 0 20 8.95 20 20z" fill="#c5d3dd"/><path d="m504.5 75.11v49.54h-497v-49.54c0-11.05 8.95-20 20-20h457c11.05 0 20 8.95 20 20z" fill="#fcc16d"/><path d="m504.5 75.11v49.54h-38.5v-49.54c0-11.05-8.96-20-20-20h38.5c11.05 0 20 8.95 20 20z" fill="#fca62f"/><g><g><g><g><path d="m174.049 349.601h-36.187c-4.894 0-8.862-3.968-8.862-8.862v-36.187c0-4.894 3.968-8.862 8.862-8.862h36.187c4.894 0 8.862 3.968 8.862 8.862v36.187c0 4.894-3.968 8.862-8.862 8.862z" fill="#fcb44d"/><path d="m182.91 304.551v36.189c0 4.892-3.97 8.862-8.862 8.862h-19.625c4.901 0 8.862-3.97 8.862-8.862v-36.189c0-4.892-3.961-8.862-8.862-8.862h19.625c4.892 0 8.862 3.97 8.862 8.862z" fill="#fb9927"/></g></g></g><g><g><path d="m372.951 290.036h-152.693c-5.55 0-10.049-4.499-10.049-10.049v-25.186c0-5.55 4.499-10.049 10.049-10.049h152.693c5.55 0 10.049 4.499 10.049 10.049v25.186c0 5.55-4.499 10.049-10.049 10.049z" fill="#21c1f8"/><path d="m382.996 254.805v25.183c0 5.547-4.492 10.049-10.049 10.049h-28.901c5.547 0 10.049-4.502 10.049-10.049v-25.183c0-5.557-4.502-10.049-10.049-10.049h28.901c5.557 0 10.049 4.492 10.049 10.049z" fill="#1faaee"/></g><g><path d="m372.951 360.079h-152.693c-5.55 0-10.049-4.499-10.049-10.049v-25.186c0-5.55 4.499-10.049 10.049-10.049h152.693c5.55 0 10.049 4.499 10.049 10.049v25.186c0 5.55-4.499 10.049-10.049 10.049z" fill="#21c1f8"/><path d="m382.996 324.849v25.183c0 5.547-4.492 10.049-10.049 10.049h-28.901c5.547 0 10.049-4.502 10.049-10.049v-25.183c0-5.557-4.502-10.049-10.049-10.049h28.901c5.557 0 10.049 4.492 10.049 10.049z" fill="#1faaee"/></g></g></g></g><g><path d="m484.5 47.608h-313.676c-4.143 0-7.5 3.358-7.5 7.5s3.357 7.5 7.5 7.5h313.676c6.893 0 12.5 5.607 12.5 12.5v42.041h-482v-42.041c0-6.893 5.607-12.5 12.5-12.5h110.001c4.143 0 7.5-3.358 7.5-7.5s-3.357-7.5-7.5-7.5h-110.001c-15.164 0-27.5 12.336-27.5 27.5v361.784c0 15.164 12.336 27.5 27.5 27.5h457c15.164 0 27.5-12.336 27.5-27.5v-114.642c0-4.142-3.357-7.5-7.5-7.5s-7.5 3.358-7.5 7.5v114.642c0 6.893-5.607 12.5-12.5 12.5h-457c-6.893 0-12.5-5.607-12.5-12.5v-304.743h482v156.777c0 4.142 3.357 7.5 7.5 7.5s7.5-3.358 7.5-7.5v-213.818c0-15.164-12.336-27.5-27.5-27.5z"/><path d="m89.22 152.669h-16.824c-4.143 0-7.5 3.358-7.5 7.5v48.805c0 4.142 3.357 7.5 7.5 7.5s7.5-3.358 7.5-7.5v-16.903h9.323c9.649 0 17.5-7.851 17.5-17.5v-4.402c.001-9.649-7.85-17.5-17.499-17.5zm2.5 21.903c0 1.378-1.121 2.5-2.5 2.5h-9.323v-9.402h9.323c1.379 0 2.5 1.122 2.5 2.5z"/><path d="m137.595 152.669h-6.824c-9.649 0-17.5 7.851-17.5 17.5v38.805c0 4.142 3.357 7.5 7.5 7.5s7.5-3.358 7.5-7.5v-13.037h11.824v13.037c0 4.142 3.357 7.5 7.5 7.5s7.5-3.358 7.5-7.5v-38.805c0-9.649-7.851-17.5-17.5-17.5zm-9.324 28.269v-10.768c0-1.378 1.121-2.5 2.5-2.5h6.824c1.379 0 2.5 1.122 2.5 2.5v10.768z"/><path d="m267.036 152.669c-4.143 0-7.5 3.358-7.5 7.5v48.805c0 3.253 2.098 6.135 5.192 7.136 3.097 1.001 6.484-.108 8.388-2.745l7.332-10.152 7.332 10.152c1.438 1.99 3.718 3.109 6.081 3.109.769 0 1.547-.119 2.307-.364 3.095-1.001 5.192-3.883 5.192-7.136v-48.805c0-4.142-3.357-7.5-7.5-7.5s-7.5 3.358-7.5 7.5v25.62c-1.418-1.817-3.598-2.885-5.912-2.885s-4.494 1.068-5.912 2.885v-25.62c0-4.142-3.357-7.5-7.5-7.5z"/><path d="m332.234 216.475c9.649 0 17.5-7.851 17.5-17.5v-28.805c0-9.649-7.851-17.5-17.5-17.5h-6.823c-9.649 0-17.5 7.851-17.5 17.5v28.805c0 9.649 7.851 17.5 17.5 17.5zm-9.323-17.5v-28.805c0-1.378 1.121-2.5 2.5-2.5h6.823c1.379 0 2.5 1.122 2.5 2.5v28.805c0 1.378-1.121 2.5-2.5 2.5h-6.823c-1.379 0-2.5-1.122-2.5-2.5z"/><path d="m398.729 174.572v-4.402c0-9.649-7.851-17.5-17.5-17.5h-16.824c-4.143 0-7.5 3.358-7.5 7.5v48.805c0 4.142 3.357 7.5 7.5 7.5s7.5-3.358 7.5-7.5v-16.903h4.293l8.092 19.747c1.188 2.902 3.988 4.658 6.942 4.658.947 0 1.91-.181 2.841-.562 3.833-1.571 5.667-5.951 4.096-9.784l-7.029-17.152c4.579-3.159 7.589-8.436 7.589-14.407zm-26.824-6.903h9.324c1.379 0 2.5 1.122 2.5 2.5v4.402c0 1.378-1.121 2.5-2.5 2.5h-9.324z"/><path d="m417.78 216.475h9.823c10.752 0 19.5-8.748 19.5-19.5v-24.805c0-10.752-8.748-19.5-19.5-19.5h-9.823c-6.893 0-12.5 5.607-12.5 12.5v38.805c0 6.892 5.608 12.5 12.5 12.5zm2.5-48.806h7.323c2.481 0 4.5 2.019 4.5 4.5v24.805c0 2.481-2.019 4.5-4.5 4.5h-7.323z"/><path d="m185.969 201.475h-9.34c-.257-3.909-3.51-7-7.483-7-4.143 0-7.5 3.358-7.5 7.5 0 7.995 6.505 14.5 14.5 14.5h9.823c9.649 0 17.5-7.851 17.5-17.5v-4.403c0-9.649-7.851-17.5-17.5-17.5h-6.823c-1.379 0-2.5-1.122-2.5-2.5v-4.402c0-1.378 1.121-2.5 2.5-2.5h9.34c.257 3.909 3.51 7 7.483 7 4.143 0 7.5-3.358 7.5-7.5 0-7.995-6.505-14.5-14.5-14.5h-9.823c-9.649 0-17.5 7.851-17.5 17.5v4.402c0 9.649 7.851 17.5 17.5 17.5h6.823c1.379 0 2.5 1.122 2.5 2.5v4.403c0 1.378-1.121 2.5-2.5 2.5z"/><path d="m234.344 201.475h-9.341c-.257-3.909-3.51-7-7.483-7-4.143 0-7.5 3.358-7.5 7.5 0 7.995 6.505 14.5 14.5 14.5h9.824c9.649 0 17.5-7.851 17.5-17.5v-4.403c0-9.649-7.851-17.5-17.5-17.5h-6.824c-1.379 0-2.5-1.122-2.5-2.5v-4.402c0-1.378 1.121-2.5 2.5-2.5h9.341c.257 3.909 3.51 7 7.483 7 4.143 0 7.5-3.358 7.5-7.5 0-7.995-6.505-14.5-14.5-14.5h-9.824c-9.649 0-17.5 7.851-17.5 17.5v4.402c0 9.649 7.851 17.5 17.5 17.5h6.824c1.379 0 2.5 1.122 2.5 2.5v4.403c0 1.378-1.121 2.5-2.5 2.5z"/><path d="m37.133 89.828v.104c0 4.142 3.357 7.5 7.5 7.5s7.5-3.358 7.5-7.5v-.104c0-4.142-3.357-7.5-7.5-7.5s-7.5 3.358-7.5 7.5z"/><path d="m60.649 89.828v.104c0 4.142 3.357 7.5 7.5 7.5s7.5-3.358 7.5-7.5v-.104c0-4.142-3.357-7.5-7.5-7.5s-7.5 3.358-7.5 7.5z"/><path d="m84.166 89.828v.104c0 4.142 3.357 7.5 7.5 7.5s7.5-3.358 7.5-7.5v-.104c0-4.142-3.357-7.5-7.5-7.5s-7.5 3.358-7.5 7.5z"/><path d="m446.699 97.432c4.143 0 7.5-3.358 7.5-7.5s-3.357-7.5-7.5-7.5h-120.283c-4.143 0-7.5 3.358-7.5 7.5s3.357 7.5 7.5 7.5z"/><path d="m128.579 275.108v15.986c-4.271 2.955-7.079 7.883-7.079 13.458v36.187c0 9.022 7.34 16.362 16.362 16.362h36.187c9.022 0 16.362-7.34 16.362-16.362v-36.187c0-5.576-2.808-10.503-7.079-13.458v-15.986c0-15.096-12.281-27.377-27.377-27.377-15.095 0-27.376 12.281-27.376 27.377zm46.832 65.631c0 .751-.611 1.362-1.362 1.362h-36.187c-.751 0-1.362-.611-1.362-1.362v-36.187c0-.751.611-1.362 1.362-1.362h35.672c.434.14.887.237 1.352.296.317.25.525.632.525 1.066zm-7.079-65.631v13.083h-24.753v-13.083c0-6.825 5.553-12.377 12.377-12.377s12.376 5.552 12.376 12.377z"/><path d="m155.955 312.356c-4.143 0-7.5 3.358-7.5 7.5v4.962c0 4.142 3.357 7.5 7.5 7.5s7.5-3.358 7.5-7.5v-4.962c0-4.142-3.357-7.5-7.5-7.5z"/><path d="m202.709 254.801v25.187c0 9.676 7.872 17.549 17.549 17.549h152.693c9.677 0 17.549-7.873 17.549-17.549v-25.187c0-9.676-7.872-17.549-17.549-17.549h-152.693c-9.677 0-17.549 7.873-17.549 17.549zm15 0c0-1.405 1.144-2.549 2.549-2.549h152.693c1.405 0 2.549 1.144 2.549 2.549v25.187c0 1.405-1.144 2.549-2.549 2.549h-152.693c-1.405 0-2.549-1.144-2.549-2.549z"/><path d="m390.5 350.03v-25.186c0-9.677-7.872-17.549-17.549-17.549h-96.301c-4.143 0-7.5 3.358-7.5 7.5s3.357 7.5 7.5 7.5h96.301c1.405 0 2.549 1.144 2.549 2.549v25.186c0 1.406-1.144 2.549-2.549 2.549h-152.693c-1.405 0-2.549-1.144-2.549-2.549v-25.186c0-1.406 1.144-2.549 2.549-2.549h23.068c4.143 0 7.5-3.358 7.5-7.5s-3.357-7.5-7.5-7.5h-23.068c-9.677 0-17.549 7.873-17.549 17.549v25.186c0 9.677 7.872 17.549 17.549 17.549h152.693c9.677.001 17.549-7.872 17.549-17.549z"/><path d="m226.657 337.394v.092c0 4.142 3.357 7.454 7.5 7.454s7.5-3.404 7.5-7.546-3.357-7.5-7.5-7.5-7.5 3.358-7.5 7.5z"/><path d="m247.061 337.486c0 4.142 3.357 7.454 7.5 7.454s7.5-3.404 7.5-7.546-3.357-7.5-7.5-7.5-7.5 3.358-7.5 7.5z"/><path d="m282.465 337.394c0-4.142-3.357-7.5-7.5-7.5s-7.5 3.358-7.5 7.5v.092c0 4.142 3.357 7.454 7.5 7.454s7.5-3.404 7.5-7.546z"/><path d="m302.869 337.394c0-4.142-3.357-7.5-7.5-7.5s-7.5 3.358-7.5 7.5v.092c0 4.142 3.357 7.454 7.5 7.454s7.5-3.404 7.5-7.546z"/><path d="m323.272 337.394c0-4.142-3.357-7.5-7.5-7.5s-7.5 3.358-7.5 7.5v.092c0 4.142 3.357 7.454 7.5 7.454s7.5-3.404 7.5-7.546z"/><path d="m234.157 274.897c4.143 0 7.5-3.404 7.5-7.546s-3.357-7.5-7.5-7.5-7.5 3.358-7.5 7.5v.093c0 4.141 3.358 7.453 7.5 7.453z"/><path d="m254.561 274.897c4.143 0 7.5-3.404 7.5-7.546s-3.357-7.5-7.5-7.5-7.5 3.358-7.5 7.5v.093c0 4.141 3.357 7.453 7.5 7.453z"/><path d="m274.965 274.897c4.143 0 7.5-3.404 7.5-7.546s-3.357-7.5-7.5-7.5-7.5 3.358-7.5 7.5v.093c0 4.141 3.357 7.453 7.5 7.453z"/><path d="m295.369 274.897c4.143 0 7.5-3.404 7.5-7.546s-3.357-7.5-7.5-7.5-7.5 3.358-7.5 7.5v.093c0 4.141 3.358 7.453 7.5 7.453z"/><path d="m315.772 274.897c4.143 0 7.5-3.404 7.5-7.546s-3.357-7.5-7.5-7.5-7.5 3.358-7.5 7.5v.093c0 4.141 3.358 7.453 7.5 7.453z"/><path d="m158.51 385.739c-4.143 0-7.5 3.358-7.5 7.5s3.357 7.5 7.5 7.5h194c4.143 0 7.5-3.358 7.5-7.5s-3.357-7.5-7.5-7.5z"/><path d="m113.136 426.484h284.748c4.143 0 7.5-3.358 7.5-7.5s-3.357-7.5-7.5-7.5h-284.748c-4.143 0-7.5 3.358-7.5 7.5s3.357 7.5 7.5 7.5z"/></g></g></svg>