<svg version="1.1" id="Layer_1" xmlns="http://www.w3.org/2000/svg" xmlns:xlink="http://www.w3.org/1999/xlink" x="0px" y="0px" viewBox="0 0 512 512" style="enable-background:new 0 0 512 512;" xml:space="preserve">
	<polyline style="fill:#FCD577;" points="9.908,178.702 9.908,502.736 503.38,502.736 503.38,9.264 9.908,9.264 9.908,148.439 "/>
	<path d="M502.737,0H9.265C4.148,0,0.001,4.148,0.001,9.264v139.175c0,5.116,4.148,9.264,9.264,9.264s9.264-4.148,9.264-9.264
		v-47.865l50.242,50.242l-50.242,50.242v-22.355c0-5.116-4.148-9.264-9.264-9.264s-9.264,4.148-9.264,9.264v324.034
		c0,5.116,4.148,9.264,9.264,9.264h493.471c5.116,0,9.264-4.148,9.264-9.264V9.264C512.001,4.148,507.853,0,502.737,0z
		M443.231,361.186l50.241-50.253v100.493L443.231,361.186z M493.473,284.736c-0.025,0.023-0.051,0.044-0.075,0.068l-63.267,63.282
		l-56.73-56.729l120.071-120.072v113.452H493.473z M163.918,361.182l56.727-56.725l127.437,127.437l-56.725,56.727L163.918,361.182z
		M24.269,80.101l56.719-56.719l127.439,127.434L151.7,207.542L24.269,80.101z M305.042,107.777c3.618,3.618,9.484,3.618,13.1,0
		c3.618-3.618,3.618-9.483,0-13.101l-14.57-14.57l56.723-56.723l127.44,127.433l-56.727,56.727l-91.869-91.869
		c-3.618-3.618-9.484-3.618-13.1,0c-3.618,3.618-3.618,9.483,0,13.101l22.042,22.042l-56.725,56.727L163.919,80.106l56.723-56.723
		L305.042,107.777z M150.817,348.082l-56.725-56.725l127.437-127.438l56.727,56.725L150.817,348.082z M24.269,361.187l56.723-56.729
		l127.436,127.435L151.7,488.619L24.269,361.187z M493.473,130.343l-50.242-50.242l50.242-50.242V130.343z M430.128,67L381.65,18.528
		h96.951L430.128,67z M290.474,67l-48.483-48.472h96.954L290.474,67z M150.821,67l-48.48-48.472h96.952L150.821,67z M81.872,163.916
		l56.723,56.728L18.529,340.716V227.252c0.021-0.02,0.043-0.037,0.063-0.057L81.872,163.916z M18.529,381.652l50.245,50.245
		l-50.245,50.234V381.652z M81.877,444.998l48.474,48.474H33.392L81.877,444.998z M221.529,444.995l48.477,48.477h-96.953
		L221.529,444.995z M361.183,444.995l48.477,48.477h-96.953L361.183,444.995z M303.573,361.182l18.819-18.819
		c3.618-3.618,3.618-9.483,0-13.101c-3.618-3.618-9.484-3.618-13.101,0l-18.819,18.819l-56.727-56.727l127.437-127.437l56.727,56.727
		l-90.089,90.089c-3.618,3.618-3.618,9.483,0,13.101c3.618,3.618,9.484,3.618,13.1,0l19.378-19.378l127.435,127.439L431.01,488.62
		L303.573,361.182z M59.639,18.528l-41.11,41.11v-41.11H59.639z M452.36,493.472l41.111-41.111v41.111H452.36z"/>
</svg>
