<svg height="512pt" viewBox="0 -4 512 512" width="512pt" xmlns="http://www.w3.org/2000/svg"><path d="m342.429688 407.585938h-322.9375c-6.628907 0-12-5.371094-12-12v-376.09375c0-6.628907 5.371093-12 12-12h322.9375c6.625 0 12 5.371093 12 12v376.09375c0 6.628906-5.375 12-12 12zm0 0" fill="#738c96"/><path d="m342.441406 7.492188h-30.617187v368.785156c0 4.484375-3.632813 8.117187-8.113281 8.117187h-296.21875v11.203125c0 6.621094 5.367187 11.988282 11.988281 11.988282h322.960937c6.621094 0 11.988282-5.367188 11.988282-11.988282v-376.121094c0-6.617187-5.367188-11.984374-11.988282-11.984374zm0 0" fill="#607882"/><path d="m314.820312 120.058594h-267.722656c-5.523437 0-10-4.476563-10-10v-71.828125c0-5.519531 4.476563-10 10-10h267.722656c5.523438 0 10 4.480469 10 10v71.828125c0 5.523437-4.476562 10-10 10zm0 0" fill="#607882"/><path d="m314.820312 229.964844h-267.722656c-5.523437 0-10-4.476563-10-10v-71.828125c0-5.523438 4.476563-10 10-10h267.722656c5.523438 0 10 4.476562 10 10v71.828125c0 5.523437-4.476562 10-10 10zm0 0" fill="#607882"/><path d="m314.820312 339.867188h-267.722656c-5.523437 0-10-4.476563-10-10v-71.824219c0-5.523438 4.476563-10 10-10h267.722656c5.523438 0 10 4.476562 10 10v71.824219c0 5.523437-4.476562 10-10 10zm0 0" fill="#607882"/><path d="m314.832031 28.230469h-25.128906v71.828125c0 4.480468-3.632813 8.113281-8.113281 8.113281h-244.492188v1.898437c0 5.515626 4.472656 9.988282 9.992188 9.988282h267.742187c5.515625 0 9.988281-4.472656 9.988281-9.988282v-71.847656c0-5.519531-4.472656-9.992187-9.988281-9.992187zm0 0" fill="#495959"/><path d="m314.832031 138.136719h-25.128906v71.828125c0 4.480468-3.632813 8.113281-8.113281 8.113281h-244.492188v1.898437c0 5.515626 4.472656 9.988282 9.992188 9.988282h267.742187c5.515625 0 9.988281-4.472656 9.988281-9.988282v-71.847656c0-5.519531-4.472656-9.992187-9.988281-9.992187zm0 0" fill="#495959"/><path d="m314.832031 248.042969h-25.128906v71.824219c0 4.480468-3.632813 8.113281-8.113281 8.113281h-244.492188v1.898437c0 5.519532 4.472656 9.988282 9.992188 9.988282h267.742187c5.515625 0 9.988281-4.46875 9.988281-9.988282v-71.847656c0-5.515625-4.472656-9.988281-9.988281-9.988281zm0 0" fill="#495959"/><path d="m298.152344 192.835938h-130.46875c-4.746094 0-8.597656-3.851563-8.597656-8.597657v-13.21875c0-4.746093 3.851562-8.59375 8.597656-8.59375h130.46875c4.75 0 8.597656 3.847657 8.597656 8.59375v13.21875c0 4.746094-3.847656 8.597657-8.597656 8.597657zm0 0" fill="#95dae8"/><path d="m297.75 82.929688h-130.066406c-4.746094 0-8.597656-3.851563-8.597656-8.597657v-13.21875c0-4.746093 3.851562-8.59375 8.597656-8.59375h130.066406c4.972656 0 9 4.027344 9 9v12.410157c0 4.96875-4.03125 9-9 9zm0 0" fill="#95dae8"/><path d="m298.152344 302.738281h-130.46875c-4.746094 0-8.597656-3.847656-8.597656-8.59375v-13.21875c0-4.746093 3.851562-8.597656 8.597656-8.597656h130.46875c4.75 0 8.597656 3.851563 8.597656 8.597656v13.21875c0 4.746094-3.847656 8.59375-8.597656 8.59375zm0 0" fill="#95dae8"/><g fill="#495959"><path d="m83.234375 54.957031c0 7.171875-5.8125 12.984375-12.984375 12.984375s-12.984375-5.8125-12.984375-12.984375 5.8125-12.984375 12.984375-12.984375 12.984375 5.8125 12.984375 12.984375zm0 0"/><path d="m124.183594 54.957031c0 7.171875-5.8125 12.984375-12.984375 12.984375s-12.984375-5.8125-12.984375-12.984375 5.8125-12.984375 12.984375-12.984375 12.984375 5.8125 12.984375 12.984375zm0 0"/><path d="m83.234375 89.421875c0 7.171875-5.8125 12.984375-12.984375 12.984375s-12.984375-5.8125-12.984375-12.984375 5.8125-12.984375 12.984375-12.984375 12.984375 5.8125 12.984375 12.984375zm0 0"/><path d="m124.183594 89.421875c0 7.171875-5.8125 12.984375-12.984375 12.984375s-12.984375-5.8125-12.984375-12.984375 5.8125-12.984375 12.984375-12.984375 12.984375 5.8125 12.984375 12.984375zm0 0"/><path d="m83.234375 164.859375c0 7.171875-5.8125 12.988281-12.984375 12.988281s-12.984375-5.816406-12.984375-12.988281c0-7.167969 5.8125-12.984375 12.984375-12.984375s12.984375 5.816406 12.984375 12.984375zm0 0"/><path d="m124.183594 164.859375c0 7.171875-5.8125 12.988281-12.984375 12.988281s-12.984375-5.816406-12.984375-12.988281c0-7.167969 5.8125-12.984375 12.984375-12.984375s12.984375 5.816406 12.984375 12.984375zm0 0"/><path d="m83.234375 199.328125c0 7.171875-5.8125 12.984375-12.984375 12.984375s-12.984375-5.8125-12.984375-12.984375 5.8125-12.984375 12.984375-12.984375 12.984375 5.8125 12.984375 12.984375zm0 0"/><path d="m124.183594 199.328125c0 7.171875-5.8125 12.984375-12.984375 12.984375s-12.984375-5.8125-12.984375-12.984375 5.8125-12.984375 12.984375-12.984375 12.984375 5.8125 12.984375 12.984375zm0 0"/><path d="m83.234375 274.941406c0 7.171875-5.8125 12.984375-12.984375 12.984375s-12.984375-5.8125-12.984375-12.984375 5.8125-12.988281 12.984375-12.988281 12.984375 5.816406 12.984375 12.988281zm0 0"/><path d="m124.183594 274.941406c0 7.171875-5.8125 12.984375-12.984375 12.984375s-12.984375-5.8125-12.984375-12.984375 5.8125-12.988281 12.984375-12.988281 12.984375 5.816406 12.984375 12.988281zm0 0"/><path d="m83.234375 309.40625c0 7.171875-5.8125 12.984375-12.984375 12.984375s-12.984375-5.8125-12.984375-12.984375 5.8125-12.984375 12.984375-12.984375 12.984375 5.8125 12.984375 12.984375zm0 0"/><path d="m124.183594 309.40625c0 7.171875-5.8125 12.984375-12.984375 12.984375s-12.984375-5.8125-12.984375-12.984375 5.8125-12.984375 12.984375-12.984375 12.984375 5.8125 12.984375 12.984375zm0 0"/></g><path d="m297.761719 52.519531h-8.058594v30.410157h8.058594c4.964843 0 8.988281-4.027344 8.988281-8.992188v-12.429688c0-4.964843-4.023438-8.988281-8.988281-8.988281zm0 0" fill="#7cd2e3"/><path d="m364.804688 497.203125h-4.039063c-13.417969 0-24.296875-10.878906-24.296875-24.296875v-109.574219h52.632812v109.574219c0 13.417969-10.878906 24.296875-24.296874 24.296875zm0 0" fill="#eec707"/><path d="m371.46875 363.332031v107.554688c0 11.441406-7.304688 21.171875-17.5 24.796875 2.757812.980468 5.722656 1.519531 8.816406 1.519531 14.535156 0 26.316406-11.78125 26.316406-26.316406v-107.554688zm0 0" fill="#fba72d"/><path d="m504.507812 244.878906c0 78.269532-63.453124 141.722656-141.722656 141.722656-78.273437 0-141.722656-63.453124-141.722656-141.722656 0-78.273437 63.449219-141.722656 141.722656-141.722656 78.269532 0 141.722656 63.449219 141.722656 141.722656zm0 0" fill="#eec707"/><path d="m362.785156 103.15625c-5.792968 0-11.503906.355469-17.113281 1.03125 70.199219 8.449219 124.609375 68.210938 124.609375 140.691406 0 72.476563-54.410156 132.238282-124.609375 140.691406 5.609375.671876 11.320313 1.03125 17.113281 1.03125 78.269532 0 141.722656-63.453124 141.722656-141.722656 0-78.273437-63.449218-141.722656-141.722656-141.722656zm0 0" fill="#fba72d"/><path d="m483.25 244.878906c0 66.53125-53.933594 120.464844-120.464844 120.464844s-120.464844-53.933594-120.464844-120.464844 53.933594-120.464844 120.464844-120.464844 120.464844 53.933594 120.464844 120.464844zm0 0" fill="#95dae8"/><path d="m362.785156 124.414062c-4.214844 0-8.378906.21875-12.480468.640626 60.664062 6.246093 107.980468 57.507812 107.980468 119.824218s-47.316406 113.578125-107.980468 119.824219c4.101562.421875 8.265624.640625 12.480468.640625 66.53125 0 120.464844-53.933594 120.464844-120.464844s-53.933594-120.464844-120.464844-120.464844zm0 0" fill="#7cd2e3"/><path d="m445.1875 246.1875c.601562 1.15625.601562 2.53125-.007812 3.683594-5.101563 9.703125-31.394532 54.457031-82.394532 54.457031-52.074218 0-77.582031-44.878906-82.449218-54.496094-.574219-1.136719-.574219-2.46875.003906-3.601562 4.902344-9.609375 30.566406-54.5 82.445312-54.5 51.195313 0 77.332032 44.746093 82.402344 54.457031zm0 0" fill="#fff"/><path d="m437.101562 233.210938c-8.6875 15.613281-41.589843 66.320312-102.488281 66.320312-.019531 0-.039062 0-.058593 0 8.371093 2.976562 17.761718 4.796875 28.230468 4.796875 50.996094 0 77.292969-44.75 82.394532-54.457031.609374-1.15625.609374-2.527344.003906-3.6875-1.296875-2.480469-3.96875-7.25-8.082032-12.972656zm0 0" fill="#ffece9"/><path d="m392.15625 249.269531c0 16.21875-13.148438 29.371094-29.371094 29.371094s-29.371094-13.152344-29.371094-29.371094c0-16.222656 13.148438-29.371093 29.371094-29.371093s29.371094 13.148437 29.371094 29.371093zm0 0" fill="#607882"/><path d="m362.785156 219.898438c-2.976562 0-5.847656.445312-8.554687 1.269531 12.046875 3.664062 20.8125 14.855469 20.8125 28.101562 0 13.242188-8.765625 24.4375-20.8125 28.101563 2.707031.820312 5.578125 1.269531 8.554687 1.269531 16.222656 0 29.371094-13.152344 29.371094-29.371094 0-16.222656-13.148438-29.371093-29.371094-29.371093zm0 0" fill="#495959"/><path d="m297.761719 45.027344h-130.089844c-8.863281 0-16.078125 7.210937-16.078125 16.078125v13.238281c0 8.863281 7.214844 16.078125 16.078125 16.078125h130.089844c9.085937 0 16.480469-7.394531 16.480469-16.484375v-12.429688c0-9.085937-7.394532-16.480468-16.480469-16.480468zm1.496093 28.910156c0 .828125-.671874 1.5-1.496093 1.5h-130.089844c-.601563 0-1.09375-.492188-1.09375-1.09375v-13.238281c0-.601563.492187-1.09375 1.09375-1.09375h130.089844c.824219 0 1.496093.671875 1.496093 1.496093zm0 0"/><path d="m83.234375 54.957031c0 7.171875-5.8125 12.984375-12.984375 12.984375s-12.984375-5.8125-12.984375-12.984375 5.8125-12.984375 12.984375-12.984375 12.984375 5.8125 12.984375 12.984375zm0 0"/><path d="m124.183594 54.957031c0 7.171875-5.8125 12.984375-12.984375 12.984375s-12.984375-5.8125-12.984375-12.984375 5.8125-12.984375 12.984375-12.984375 12.984375 5.8125 12.984375 12.984375zm0 0"/><path d="m83.234375 89.421875c0 7.171875-5.8125 12.984375-12.984375 12.984375s-12.984375-5.8125-12.984375-12.984375 5.8125-12.984375 12.984375-12.984375 12.984375 5.8125 12.984375 12.984375zm0 0"/><path d="m124.183594 89.421875c0 7.171875-5.8125 12.984375-12.984375 12.984375s-12.984375-5.8125-12.984375-12.984375 5.8125-12.984375 12.984375-12.984375 12.984375 5.8125 12.984375 12.984375zm0 0"/><path d="m83.234375 164.859375c0 7.171875-5.8125 12.988281-12.984375 12.988281s-12.984375-5.816406-12.984375-12.988281c0-7.167969 5.8125-12.984375 12.984375-12.984375s12.984375 5.816406 12.984375 12.984375zm0 0"/><path d="m124.183594 164.859375c0 7.171875-5.8125 12.988281-12.984375 12.988281s-12.984375-5.816406-12.984375-12.988281c0-7.167969 5.8125-12.984375 12.984375-12.984375s12.984375 5.816406 12.984375 12.984375zm0 0"/><path d="m83.234375 199.328125c0 7.171875-5.8125 12.984375-12.984375 12.984375s-12.984375-5.8125-12.984375-12.984375 5.8125-12.984375 12.984375-12.984375 12.984375 5.8125 12.984375 12.984375zm0 0"/><path d="m124.183594 199.328125c0 7.171875-5.8125 12.984375-12.984375 12.984375s-12.984375-5.8125-12.984375-12.984375 5.8125-12.984375 12.984375-12.984375 12.984375 5.8125 12.984375 12.984375zm0 0"/><path d="m83.234375 274.941406c0 7.171875-5.8125 12.984375-12.984375 12.984375s-12.984375-5.8125-12.984375-12.984375 5.8125-12.988281 12.984375-12.988281 12.984375 5.816406 12.984375 12.988281zm0 0"/><path d="m124.183594 274.941406c0 7.171875-5.8125 12.984375-12.984375 12.984375s-12.984375-5.8125-12.984375-12.984375 5.8125-12.988281 12.984375-12.988281 12.984375 5.816406 12.984375 12.988281zm0 0"/><path d="m83.234375 309.40625c0 7.171875-5.8125 12.984375-12.984375 12.984375s-12.984375-5.8125-12.984375-12.984375 5.8125-12.984375 12.984375-12.984375 12.984375 5.8125 12.984375 12.984375zm0 0"/><path d="m124.183594 309.40625c0 7.171875-5.8125 12.984375-12.984375 12.984375s-12.984375-5.8125-12.984375-12.984375 5.8125-12.984375 12.984375-12.984375 12.984375 5.8125 12.984375 12.984375zm0 0"/><path d="m512 244.878906c0-82.277344-66.9375-149.214844-149.214844-149.214844-.289062 0-.578125.007813-.863281.011719v-76.195312c0-10.742188-8.742187-19.480469-19.480469-19.480469h-322.960937c-10.742188 0-19.480469 8.738281-19.480469 19.480469v376.117187c0 10.742188 8.738281 19.480469 19.480469 19.480469h59.054687c4.140625 0 7.492188-3.355469 7.492188-7.492187 0-4.136719-3.351563-7.492188-7.492188-7.492188h-59.054687c-2.480469 0-4.496094-2.015625-4.496094-4.496094v-376.117187c0-2.480469 2.015625-4.496094 4.496094-4.496094h322.960937c2.480469 0 4.496094 2.015625 4.496094 4.496094v77.027343c-4.953125.523438-9.832031 1.289063-14.625 2.289063v-60.574219c0-9.640625-7.84375-17.484375-17.480469-17.484375h-267.742187c-9.640625 0-17.484375 7.84375-17.484375 17.484375v71.847656c0 9.636719 7.84375 17.480469 17.484375 17.480469h223.601562c-10.089844 7.933594-19.128906 17.148438-26.882812 27.382813h-76.136719c-8.863281 0-16.078125 7.210937-16.078125 16.078125v13.234375c0 8.867187 7.214844 16.078125 16.078125 16.078125h52.691406c-2.246093 7.167969-3.964843 14.566406-5.109375 22.148437h-168.164062c-1.378906 0-2.5-1.121094-2.5-2.496094v-71.847656c0-1.378906 1.121094-2.5 2.5-2.5h179.835937c4.136719 0 7.492188-3.351562 7.492188-7.492187 0-4.136719-3.355469-7.492188-7.492188-7.492188h-179.835937c-9.640625 0-17.484375 7.84375-17.484375 17.484375v71.847656c0 9.636719 7.84375 17.480469 17.484375 17.480469h166.667968c-.054687 1.027344-.089843 2.058594-.121093 3.09375h-166.546875c-9.640625 0-17.484375 7.84375-17.484375 17.480469v71.847656c0 9.640625 7.84375 17.480469 17.484375 17.480469h206.050781c.410156 0 .804687-.039063 1.195313-.101563 19.808593 20.96875 45.613281 36.21875 74.640624 42.972657v9.863281h-216.78125c-4.136718 0-7.492187 3.355469-7.492187 7.492188 0 4.140624 3.355469 7.492187 7.492187 7.492187h216.78125v57.855469c0 17.511718 14.25 31.761718 31.765626 31.761718h4.089843c17.511719 0 31.761719-14.25 31.761719-31.761718v-82.703125c66.046875-15.359375 115.40625-74.699219 115.40625-145.351563zm-464.910156-132.3125c-1.378906 0-2.5-1.121094-2.5-2.496094v-71.847656c0-1.378906 1.121094-2.5 2.5-2.5h267.742187c1.375 0 2.496094 1.121094 2.496094 2.5v64.527344c-8.148437 2.613281-15.992187 5.90625-23.464844 9.816406zm120.582031 72.777344c-.601563 0-1.09375-.492188-1.09375-1.097656v-13.234375c0-.605469.492187-1.097657 1.09375-1.097657h66.136719c-2.898438 4.96875-5.511719 10.117188-7.832032 15.425782h-58.304687zm54.65625 109.902344h-54.652344c-.605469 0-1.097656-.488282-1.097656-1.09375v-13.238282c0-.601562.492187-1.09375 1.097656-1.09375h50.039063c1.261718 5.257813 2.804687 10.402344 4.613281 15.425782zm-175.238281 37.132812c-1.378906 0-2.5-1.121094-2.5-2.5v-71.847656c0-1.375 1.121094-2.496094 2.5-2.496094h166.863281c.222656 3.128906.542969 6.230469.957031 9.304688h-47.238281c-8.863281 0-16.078125 7.210937-16.078125 16.078125v13.234375c0 8.867187 7.214844 16.078125 16.078125 16.078125h60.992187c3.808594 7.785156 8.277344 15.191406 13.332032 22.148437zm334.519531 140.554688c0 9.25-7.527344 16.777344-16.777344 16.777344h-4.089843c-9.253907 0-16.78125-7.527344-16.78125-16.777344v-80.023438c6.167968.78125 12.449218 1.183594 18.824218 1.183594s12.65625-.40625 18.824219-1.183594zm-18.824219-93.824219c-74.015625 0-134.230468-60.214844-134.230468-134.230469s60.214843-134.230468 134.230468-134.230468 134.230469 60.214843 134.230469 134.230468-60.214844 134.230469-134.230469 134.230469zm0 0"/><path d="m362.785156 116.921875c-70.554687 0-127.957031 57.402344-127.957031 127.957031 0 70.554688 57.402344 127.957032 127.957031 127.957032 31.402344 0 61.605469-11.488282 85.042969-32.347657 3.089844-2.753906 3.363281-7.488281.613281-10.578125s-7.488281-3.367187-10.574218-.617187c-20.691407 18.417969-47.355469 28.558593-75.082032 28.558593-62.292968 0-112.972656-50.679687-112.972656-112.972656 0-62.292968 50.679688-112.972656 112.972656-112.972656 62.292969 0 112.972656 50.679688 112.972656 112.972656 0 21.519532-6.070312 42.441406-17.554687 60.511719-2.21875 3.492187-1.1875 8.121094 2.304687 10.34375 3.488282 2.214844 8.121094 1.1875 10.339844-2.304687 13.015625-20.476563 19.894532-44.179688 19.894532-68.550782 0-70.554687-57.402344-127.957031-127.957032-127.957031zm0 0"/><path d="m362.785156 184.238281c-56.386718 0-84.132812 48.808594-89.121094 58.59375-1.652343 3.246094-1.660156 7.128907-.015624 10.382813 4.953124 9.789062 32.535156 58.605468 89.136718 58.605468 55.476563 0 83.894532-48.699218 89.023438-58.460937 1.753906-3.328125 1.757812-7.308594.015625-10.644531-5.101563-9.773438-33.351563-58.476563-89.039063-58.476563zm0 112.601563c-45.324218 0-68.953125-37.683594-74.933594-48.796875 6.023438-11.117188 29.78125-48.816407 74.933594-48.816407 44.527344 0 68.6875 37.621094 74.878906 48.792969-6.230468 11.175781-30.527343 48.820313-74.878906 48.820313zm75.757813-47.191406v.003906c.003906 0 .003906 0 .003906.003906 0-.003906-.003906-.003906-.003906-.007812zm0 0"/><path d="m362.785156 212.40625c-20.324218 0-36.863281 16.535156-36.863281 36.863281 0 20.324219 16.539063 36.863281 36.863281 36.863281 20.328125 0 36.863282-16.539062 36.863282-36.863281 0-20.328125-16.535157-36.863281-36.863282-36.863281zm0 58.742188c-12.0625 0-21.878906-9.816407-21.878906-21.878907 0-12.066406 9.816406-21.878906 21.878906-21.878906s21.878906 9.8125 21.878906 21.878906c0 12.0625-9.816406 21.878907-21.878906 21.878907zm0 0"/></svg>