<?xml version="1.0" standalone="no"?>
<!DOCTYPE svg PUBLIC "-//W3C//DTD SVG 20010904//EN"
 "http://www.w3.org/TR/2001/REC-SVG-20010904/DTD/svg10.dtd">
<svg version="1.0" xmlns="http://www.w3.org/2000/svg"
 width="512.000000pt" height="512.000000pt" viewBox="0 0 512.000000 512.000000"
 preserveAspectRatio="xMidYMid meet">
<metadata>
Created by potrace 1.11, written by Peter Selinger 2001-2013
</metadata>
<g transform="translate(0.000000,512.000000) scale(0.100000,-0.100000)"
fill="#000000" stroke="none">
<path d="M1928 4153 c-3 -4 -4 -153 -4 -330 1 -178 -1 -323 -4 -324 -3 -1 -32
-3 -65 -5 -428 -29 -811 -266 -1024 -633 -62 -107 -127 -276 -145 -376 -17
-95 -20 -132 -20 -250 -1 -149 5 -209 33 -317 58 -224 168 -416 336 -583 131
-131 271 -223 440 -290 61 -24 225 -65 298 -74 40 -5 376 -8 747 -7 l675 1 0
322 c0 177 3 325 7 328 4 4 26 9 50 11 119 10 170 17 243 35 44 11 89 24 100
29 11 5 31 12 45 16 42 11 202 94 265 138 235 162 410 395 493 656 27 87 33
111 51 225 10 63 9 344 -1 361 -4 5 -9 30 -13 54 -9 63 -68 236 -106 312 -31
63 -100 174 -135 219 -49 63 -216 219 -279 261 -152 100 -304 166 -463 200
-91 19 -137 21 -808 25 -392 3 -714 1 -716 -4z m778 -844 c388 -71 639 -472
535 -854 -109 -398 -557 -613 -934 -449 -339 149 -502 542 -365 884 86 217
295 384 528 423 52 9 178 7 236 -4z"/>
</g>
</svg>
