<?xml version="1.0" standalone="no"?>
<!DOCTYPE svg PUBLIC "-//W3C//DTD SVG 20010904//EN"
 "http://www.w3.org/TR/2001/REC-SVG-20010904/DTD/svg10.dtd">
<svg version="1.0" xmlns="http://www.w3.org/2000/svg"
 width="717.000000pt" height="717.000000pt" viewBox="0 0 717.000000 717.000000"
 preserveAspectRatio="xMidYMid meet">
<metadata>
Created by potrace 1.14, written by Peter Selinger 2001-2017
</metadata>
<g transform="translate(0.000000,717.000000) scale(0.100000,-0.100000)"
fill="#000000" stroke="none">
<path d="M4442 5554 c-20 -6 -82 -32 -138 -57 -82 -37 -152 -58 -206 -62 -12
0 -48 -34 -48 -44 0 -22 40 -49 90 -61 133 -31 206 -128 226 -297 3 -32 8 -71
10 -88 22 -178 22 -615 0 -820 -2 -16 -7 -57 -10 -90 -4 -33 -8 -71 -11 -85
-2 -14 -7 -43 -10 -65 -13 -92 -49 -285 -65 -345 -5 -19 -11 -46 -14 -60 -2
-14 -14 -59 -25 -100 -12 -41 -28 -99 -37 -129 -27 -97 -115 -324 -175 -451
-104 -217 -213 -377 -366 -533 -216 -221 -421 -310 -713 -309 -203 2 -332 54
-470 192 -187 188 -265 418 -286 845 l-6 130 43 35 c174 139 530 475 629 594
19 23 52 62 72 86 21 25 60 74 88 110 28 36 56 72 63 80 27 34 138 191 194
275 170 256 307 542 353 738 31 132 48 235 44 268 -17 129 -31 160 -84 184
-85 38 -289 -2 -407 -80 -70 -46 -95 -68 -218 -190 -116 -115 -160 -166 -279
-325 -47 -63 -89 -119 -94 -125 -20 -27 -202 -305 -202 -310 0 -3 -12 -24 -27
-48 -28 -42 -35 -55 -105 -182 -100 -182 -298 -611 -298 -647 0 -8 -4 -18 -9
-23 -21 -23 -166 -488 -186 -597 -7 -36 -15 -42 -149 -125 -253 -155 -450
-242 -676 -299 -155 -39 -251 -6 -311 106 -82 155 46 628 324 1200 137 280
365 681 520 915 55 83 184 263 197 275 3 3 28 32 55 65 121 147 235 246 335
291 62 28 83 56 58 80 -7 8 -25 15 -38 16 -25 1 -170 -26 -225 -43 -16 -5 -95
-25 -175 -45 -98 -24 -162 -46 -199 -67 -64 -39 -141 -119 -241 -252 -41 -55
-78 -104 -83 -110 -26 -30 -275 -385 -376 -535 -394 -587 -665 -1116 -736
-1440 -59 -268 -29 -471 87 -589 85 -86 186 -117 353 -108 61 4 146 14 190 22
44 9 90 18 103 21 113 22 494 197 802 367 74 41 136 73 138 72 2 -2 -2 -43 -9
-91 -13 -100 -15 -279 -4 -369 46 -370 298 -641 652 -699 173 -29 443 -9 621
46 296 91 686 386 941 713 159 203 282 401 424 685 86 171 102 208 160 350
130 317 262 778 292 1015 3 22 8 60 11 85 3 25 7 56 9 69 2 13 7 87 10 165 8
194 14 245 35 287 26 50 54 61 195 74 140 13 238 23 385 41 69 8 145 16 170
19 61 7 130 16 159 21 13 2 45 6 70 10 25 3 57 8 71 10 14 2 59 8 101 14 41 6
86 13 100 15 13 3 69 12 124 20 55 8 111 17 125 20 27 5 186 33 235 41 134 21
418 89 502 121 46 17 60 41 43 73 -14 26 -48 26 -142 0 -40 -10 -84 -21 -98
-24 -14 -3 -81 -16 -150 -30 -69 -13 -150 -28 -180 -31 -30 -4 -57 -8 -60 -10
-3 -2 -33 -6 -65 -10 -33 -3 -67 -8 -75 -10 -8 -2 -42 -7 -75 -10 -33 -4 -67
-8 -75 -10 -8 -2 -55 -7 -105 -11 -49 -3 -93 -8 -96 -10 -10 -5 -366 -18 -514
-17 -281 0 -426 15 -631 63 -154 37 -235 70 -295 120 -50 42 -68 45 -137 24z
m-1228 -353 c85 -33 107 -225 51 -446 -87 -344 -304 -736 -565 -1019 -158
-173 -491 -479 -505 -464 -7 7 63 365 99 500 52 198 89 311 167 503 168 418
351 706 543 854 93 72 154 93 210 72z"/>
</g>
</svg>
