<svg id="Capa_1" enable-background="new 0 0 512 512" height="512" viewBox="0 0 512 512" width="512" xmlns="http://www.w3.org/2000/svg"><g><g><g><path d="m246.517 421.666h-189.326c-18.299 0-33.132-14.834-33.132-33.132v-33.134h254.283z" fill="#d3dcfb"/><path d="m454.824 156.6v139.197 92.736h-397.633c-18.299 0-33.132-14.834-33.132-33.133v-198.8l231.949-82.834z" fill="#ebf5fc"/><g fill="#3c58a0"><path d="m82.336 222.867h-17.133c-4.418 0-8-3.582-8-8v-17.133c0-4.418 3.582-8 8-8h17.133c4.418 0 8 3.582 8 8v17.133c0 4.418-3.582 8-8 8z"/><path d="m148.603 222.867h-17.133c-4.418 0-8-3.582-8-8v-17.133c0-4.418 3.582-8 8-8h17.133c4.418 0 8 3.582 8 8v17.133c0 4.418-3.582 8-8 8z"/><path d="m214.869 222.867h-17.133c-4.418 0-8-3.582-8-8v-17.133c0-4.418 3.582-8 8-8h17.133c4.418 0 8 3.582 8 8v17.133c0 4.418-3.581 8-8 8z"/><path d="m281.136 222.867h-17.133c-4.418 0-8-3.582-8-8v-17.133c0-4.418 3.582-8 8-8h17.133c4.418 0 8 3.582 8 8v17.133c0 4.418-3.582 8-8 8z"/><path d="m347.392 222.867h-17.133c-4.418 0-8-3.582-8-8v-17.133c0-4.418 3.582-8 8-8h17.133c4.418 0 8 3.582 8 8v17.133c0 4.418-3.582 8-8 8z"/><path d="m413.658 222.867h-17.133c-4.418 0-8-3.582-8-8v-17.133c0-4.418 3.582-8 8-8h17.133c4.418 0 8 3.582 8 8v17.133c0 4.418-3.581 8-8 8z"/><path d="m82.336 289.133h-17.133c-4.418 0-8-3.582-8-8v-17.133c0-4.418 3.582-8 8-8h17.133c4.418 0 8 3.582 8 8v17.133c0 4.419-3.582 8-8 8z"/><path d="m148.603 289.133h-17.133c-4.418 0-8-3.582-8-8v-17.133c0-4.418 3.582-8 8-8h17.133c4.418 0 8 3.582 8 8v17.133c0 4.419-3.582 8-8 8z"/><path d="m214.869 289.133h-17.133c-4.418 0-8-3.582-8-8v-17.133c0-4.418 3.582-8 8-8h17.133c4.418 0 8 3.582 8 8v17.133c0 4.419-3.581 8-8 8z"/><path d="m289.136 289.133v-24.85c0-4.575-3.709-8.283-8.283-8.283h-16.567c-4.575 0-8.283 3.709-8.283 8.283v16.567c0 4.575 3.709 8.283 8.283 8.283z"/><path d="m82.336 355.4h-17.133c-4.418 0-8-3.582-8-8v-17.133c0-4.418 3.582-8 8-8h17.133c4.418 0 8 3.582 8 8v17.133c0 4.418-3.582 8-8 8z"/><path d="m148.603 355.4h-17.133c-4.418 0-8-3.582-8-8v-17.133c0-4.418 3.582-8 8-8h17.133c4.418 0 8 3.582 8 8v17.133c0 4.418-3.582 8-8 8z"/><path d="m214.869 355.4h-17.133c-4.418 0-8-3.582-8-8v-17.133c0-4.418 3.582-8 8-8h17.133c4.418 0 8 3.582 8 8v17.133c0 4.418-3.581 8-8 8z"/></g><path d="m413.658 189.733h-17.133c-1.037 0-2.024.204-2.933.563 2.965 1.171 5.067 4.056 5.067 7.438v17.133c0 3.382-2.101 6.267-5.067 7.437.909.359 1.897.563 2.933.563h17.133c4.418 0 8-3.582 8-8v-17.133c0-4.419-3.581-8.001-8-8.001z" fill="#2a428c"/><path d="m347.392 189.733h-17.133c-1.037 0-2.024.204-2.933.563 2.965 1.171 5.067 4.056 5.067 7.438v17.133c0 3.382-2.101 6.267-5.067 7.437.909.359 1.896.563 2.933.563h17.133c4.418 0 8-3.582 8-8v-17.133c0-4.419-3.582-8.001-8-8.001z" fill="#2a428c"/><path d="m281.136 189.733h-17.133c-1.037 0-2.024.204-2.933.563 2.965 1.171 5.067 4.056 5.067 7.438v17.133c0 3.382-2.101 6.267-5.067 7.437.909.359 1.896.563 2.933.563h17.133c4.418 0 8-3.582 8-8v-17.133c0-4.419-3.582-8.001-8-8.001z" fill="#2a428c"/><path d="m214.869 189.733h-17.133c-1.037 0-2.024.204-2.933.563 2.965 1.171 5.067 4.056 5.067 7.438v17.133c0 3.382-2.101 6.267-5.067 7.437.909.359 1.896.563 2.933.563h17.133c4.418 0 8-3.582 8-8v-17.133c0-4.419-3.581-8.001-8-8.001z" fill="#2a428c"/><path d="m148.603 189.733h-17.133c-1.037 0-2.024.204-2.933.563 2.965 1.171 5.067 4.056 5.067 7.438v17.133c0 3.382-2.101 6.267-5.067 7.437.909.359 1.896.563 2.933.563h17.133c4.418 0 8-3.582 8-8v-17.133c0-4.419-3.582-8.001-8-8.001z" fill="#2a428c"/><path d="m82.336 189.733h-17.133c-1.037 0-2.024.204-2.933.563 2.965 1.171 5.067 4.056 5.067 7.438v17.133c0 3.382-2.101 6.267-5.067 7.437.909.359 1.897.563 2.933.563h17.133c4.418 0 8-3.582 8-8v-17.133c0-4.419-3.582-8.001-8-8.001z" fill="#2a428c"/><path d="m82.336 256h-17.133c-1.037 0-2.024.204-2.933.563 2.965 1.171 5.067 4.056 5.067 7.438v17.133c0 3.382-2.101 6.267-5.067 7.437.909.359 1.897.563 2.933.563h17.133c4.418 0 8-3.582 8-8v-17.134c0-4.418-3.582-8-8-8z" fill="#2a428c"/><path d="m82.336 322.267h-17.133c-1.037 0-2.024.204-2.933.563 2.965 1.171 5.067 4.056 5.067 7.438v17.132c0 3.382-2.101 6.267-5.067 7.437.909.359 1.897.563 2.933.563h17.133c4.418 0 8-3.582 8-8v-17.133c0-4.419-3.582-8-8-8z" fill="#2a428c"/><path d="m148.603 256h-17.133c-1.037 0-2.024.204-2.933.563 2.965 1.171 5.067 4.056 5.067 7.438v17.133c0 3.382-2.101 6.267-5.067 7.437.909.359 1.896.563 2.933.563h17.133c4.418 0 8-3.582 8-8v-17.134c0-4.418-3.582-8-8-8z" fill="#2a428c"/><path d="m148.603 322.267h-17.133c-1.037 0-2.024.204-2.933.563 2.965 1.171 5.067 4.056 5.067 7.438v17.132c0 3.382-2.101 6.267-5.067 7.437.909.359 1.896.563 2.933.563h17.133c4.418 0 8-3.582 8-8v-17.133c0-4.419-3.582-8-8-8z" fill="#2a428c"/><path d="m214.869 256h-17.133c-1.037 0-2.024.204-2.933.563 2.965 1.171 5.067 4.056 5.067 7.438v17.133c0 3.382-2.101 6.267-5.067 7.437.909.359 1.896.563 2.933.563h17.133c4.418 0 8-3.582 8-8v-17.134c0-4.418-3.581-8-8-8z" fill="#2a428c"/><path d="m289.136 289.133v-25.133c0-4.418-3.582-8-8-8h-17.133c-1.037 0-2.024.204-2.933.563 2.965 1.171 5.067 4.056 5.067 7.438v17.133c0 3.382-2.101 6.267-5.067 7.437.909.359 1.896.563 2.933.563h25.133z" fill="#2a428c"/><path d="m214.869 322.267h-17.133c-1.037 0-2.024.204-2.933.563 2.965 1.171 5.067 4.056 5.067 7.438v17.132c0 3.382-2.101 6.267-5.067 7.437.909.359 1.896.563 2.933.563h17.133c4.418 0 8-3.582 8-8v-17.133c0-4.419-3.581-8-8-8z" fill="#2a428c"/><path d="m431.808 147.01v148.787 92.736h23.016v-92.736-139.197z" fill="#d3dcfb"/><path d="m454.824 156.6v-82.834c0-18.299-14.834-33.132-33.132-33.132h-364.501c-18.299 0-33.132 14.834-33.132 33.132v82.834z" fill="#ff4155"/><path d="m164.875 69.625c0 11.437-9.271 20.708-20.708 20.708s-20.708-9.272-20.708-20.708v-41.417c0-11.437 9.271-20.708 20.708-20.708s20.708 9.271 20.708 20.708z" fill="#ebf5fc"/><path d="m355.403 69.625c0 11.437-9.271 20.708-20.708 20.708s-20.708-9.272-20.708-20.708v-41.417c0-11.437 9.271-20.708 20.708-20.708s20.708 9.271 20.708 20.708z" fill="#ebf5fc"/><path d="m334.694 7.5c-4.251 0-8.201 1.285-11.489 3.482 5.557 3.714 9.219 10.04 9.219 17.226v41.417c0 7.185-3.662 13.512-9.219 17.226 3.288 2.197 7.237 3.482 11.489 3.482 11.437 0 20.708-9.272 20.708-20.708v-41.417c.001-11.437-9.271-20.708-20.708-20.708z" fill="#d3dcfb"/><path d="m144.167 7.5c-4.251 0-8.201 1.285-11.489 3.482 5.557 3.714 9.219 10.04 9.219 17.226v41.417c0 7.185-3.662 13.512-9.219 17.226 3.288 2.197 7.237 3.482 11.489 3.482 11.437 0 20.708-9.272 20.708-20.708v-41.417c0-11.437-9.271-20.708-20.708-20.708z" fill="#d3dcfb"/><path d="m421.692 40.633h-23.008c18.298 0 33.132 14.834 33.132 33.132v82.835h23.008v-82.834c0-18.299-14.834-33.133-33.132-33.133z" fill="#e80054"/></g><circle cx="363.691" cy="380.25" fill="#4fabf7" r="124.25"/><circle cx="363.691" cy="380.25" fill="#ebf5fc" r="91.117"/><path d="m363.691 256c-3.878 0-7.712.187-11.5.535 63.229 5.804 112.75 58.972 112.75 123.715s-49.521 117.911-112.75 123.715c3.788.348 7.622.535 11.5.535 68.621 0 124.25-55.629 124.25-124.25s-55.628-124.25-124.25-124.25z" fill="#1886ea"/><path d="m363.691 289.133c-3.893 0-7.728.246-11.492.719 44.897 5.65 79.625 43.968 79.625 90.397s-34.727 84.747-79.625 90.397c3.764.474 7.599.719 11.492.719 50.322 0 91.117-40.794 91.117-91.117s-40.794-91.115-91.117-91.115z" fill="#d3dcfb"/><circle cx="363.691" cy="380.25" fill="#ffdd40" r="16.567"/></g><g><path d="m65.202 230.367h17.134c8.547 0 15.5-6.953 15.5-15.5v-17.133c0-8.547-6.953-15.5-15.5-15.5h-17.134c-8.547 0-15.5 6.953-15.5 15.5v17.133c0 8.547 6.953 15.5 15.5 15.5zm-.5-32.634c0-.276.225-.5.5-.5h17.134c.275 0 .5.224.5.5v17.133c0 .276-.225.5-.5.5h-17.134c-.275 0-.5-.224-.5-.5z"/><path d="m131.47 230.367h17.133c8.547 0 15.5-6.953 15.5-15.5v-17.133c0-8.547-6.953-15.5-15.5-15.5h-17.133c-8.547 0-15.5 6.953-15.5 15.5v17.133c0 8.547 6.953 15.5 15.5 15.5zm-.5-32.634c0-.276.225-.5.5-.5h17.133c.275 0 .5.224.5.5v17.133c0 .276-.225.5-.5.5h-17.133c-.275 0-.5-.224-.5-.5z"/><path d="m197.736 230.367h17.133c8.547 0 15.5-6.953 15.5-15.5v-17.133c0-8.547-6.953-15.5-15.5-15.5h-17.133c-8.547 0-15.5 6.953-15.5 15.5v17.133c0 8.547 6.953 15.5 15.5 15.5zm-.5-32.634c0-.276.225-.5.5-.5h17.133c.275 0 .5.224.5.5v17.133c0 .276-.225.5-.5.5h-17.133c-.275 0-.5-.224-.5-.5z"/><path d="m281.136 230.367c8.547 0 15.5-6.953 15.5-15.5v-17.133c0-8.547-6.953-15.5-15.5-15.5h-17.133c-8.547 0-15.5 6.953-15.5 15.5v17.133c0 8.547 6.953 15.5 15.5 15.5zm-17.633-15.5v-17.133c0-.276.225-.5.5-.5h17.133c.275 0 .5.224.5.5v17.133c0 .276-.225.5-.5.5h-17.133c-.275 0-.5-.224-.5-.5z"/><path d="m347.392 230.367c8.547 0 15.5-6.953 15.5-15.5v-17.133c0-8.547-6.953-15.5-15.5-15.5h-17.133c-8.547 0-15.5 6.953-15.5 15.5v17.133c0 8.547 6.953 15.5 15.5 15.5zm-17.633-15.5v-17.133c0-.276.225-.5.5-.5h17.133c.275 0 .5.224.5.5v17.133c0 .276-.225.5-.5.5h-17.133c-.276 0-.5-.224-.5-.5z"/><path d="m413.658 230.367c8.547 0 15.5-6.953 15.5-15.5v-17.133c0-8.547-6.953-15.5-15.5-15.5h-17.133c-8.547 0-15.5 6.953-15.5 15.5v17.133c0 8.547 6.953 15.5 15.5 15.5zm-17.633-15.5v-17.133c0-.276.225-.5.5-.5h17.133c.275 0 .5.224.5.5v17.133c0 .276-.225.5-.5.5h-17.133c-.275 0-.5-.224-.5-.5z"/><path d="m49.702 281.133c0 8.547 6.953 15.5 15.5 15.5h17.134c8.547 0 15.5-6.953 15.5-15.5v-17.133c0-8.547-6.953-15.5-15.5-15.5h-17.134c-8.547 0-15.5 6.953-15.5 15.5zm15-17.133c0-.276.225-.5.5-.5h17.134c.275 0 .5.224.5.5v17.133c0 .276-.225.5-.5.5h-17.134c-.275 0-.5-.224-.5-.5z"/><path d="m115.97 281.133c0 8.547 6.953 15.5 15.5 15.5h17.133c8.547 0 15.5-6.953 15.5-15.5v-17.133c0-8.547-6.953-15.5-15.5-15.5h-17.133c-8.547 0-15.5 6.953-15.5 15.5zm15-17.133c0-.276.225-.5.5-.5h17.133c.275 0 .5.224.5.5v17.133c0 .276-.225.5-.5.5h-17.133c-.275 0-.5-.224-.5-.5z"/><path d="m182.236 281.133c0 8.547 6.953 15.5 15.5 15.5h17.133c8.547 0 15.5-6.953 15.5-15.5v-17.133c0-8.547-6.953-15.5-15.5-15.5h-17.133c-8.547 0-15.5 6.953-15.5 15.5zm15-17.133c0-.276.225-.5.5-.5h17.133c.275 0 .5.224.5.5v17.133c0 .276-.225.5-.5.5h-17.133c-.275 0-.5-.224-.5-.5z"/><path d="m49.702 347.4c0 8.547 6.953 15.5 15.5 15.5h17.134c8.547 0 15.5-6.953 15.5-15.5v-17.133c0-8.547-6.953-15.5-15.5-15.5h-17.134c-8.547 0-15.5 6.953-15.5 15.5zm15-17.133c0-.276.225-.5.5-.5h17.134c.275 0 .5.224.5.5v17.133c0 .276-.225.5-.5.5h-17.134c-.275 0-.5-.224-.5-.5z"/><path d="m115.97 347.4c0 8.547 6.953 15.5 15.5 15.5h17.133c8.547 0 15.5-6.953 15.5-15.5v-17.133c0-8.547-6.953-15.5-15.5-15.5h-17.133c-8.547 0-15.5 6.953-15.5 15.5zm15-17.133c0-.276.225-.5.5-.5h17.133c.275 0 .5.224.5.5v17.133c0 .276-.225.5-.5.5h-17.133c-.275 0-.5-.224-.5-.5z"/><path d="m182.236 347.4c0 8.547 6.953 15.5 15.5 15.5h17.133c8.547 0 15.5-6.953 15.5-15.5v-17.133c0-8.547-6.953-15.5-15.5-15.5h-17.133c-8.547 0-15.5 6.953-15.5 15.5zm15-17.133c0-.276.225-.5.5-.5h17.133c.275 0 .5.224.5.5v17.133c0 .276-.225.5-.5.5h-17.133c-.275 0-.5-.224-.5-.5z"/><path d="m462.324 293.006v-219.24c0-22.405-18.227-40.632-40.633-40.632h-58.789v-4.925c0-15.555-12.654-28.209-28.208-28.209s-28.208 12.654-28.208 28.208v4.925h-134.111v-4.925c0-15.554-12.654-28.208-28.208-28.208-15.555 0-28.209 12.654-28.209 28.208v4.925h-58.767c-22.405 0-40.633 18.228-40.633 40.632v117.535c0 4.142 3.357 7.5 7.5 7.5s7.5-3.358 7.5-7.5v-27.2h415.766v114.423c-22.765-18.749-51.907-30.023-83.633-30.023-24.471 0-47.4 6.714-67.056 18.385v-2.602c0-8.703-7.08-15.783-15.783-15.783h-16.566c-8.703 0-15.783 7.08-15.783 15.783v16.567c0 7.956 5.923 14.538 13.587 15.612-18.826 22.788-30.149 51.99-30.149 83.788 0 .262.008.521.01.783h-174.76c-14.134 0-25.633-11.499-25.633-25.632v-134.101c0-4.142-3.357-7.5-7.5-7.5s-7.5 3.358-7.5 7.5v167.234c0 22.405 18.227 40.632 40.633 40.632h18.145c4.143 0 7.5-3.358 7.5-7.5s-3.357-7.5-7.5-7.5h-18.145c-14.134 0-25.633-11.499-25.633-25.632v-1.635c6.997 5.705 15.921 9.134 25.633 9.134h175.699c.742 6.186 1.914 12.24 3.485 18.134h-131.04c-4.143 0-7.5 3.358-7.5 7.5s3.357 7.5 7.5 7.5h136.027c19.463 48.496 66.959 82.833 122.329 82.833 72.647 0 131.75-59.103 131.75-131.75 0-33.432-12.523-63.989-33.117-87.244zm-140.838-264.798c0-7.283 5.925-13.208 13.208-13.208s13.208 5.925 13.208 13.208v41.417c0 7.283-5.925 13.209-13.208 13.209s-13.208-5.925-13.208-13.209zm-190.528 0c0-7.283 5.926-13.208 13.209-13.208s13.208 5.925 13.208 13.208v41.417c0 7.283-5.925 13.209-13.208 13.209s-13.209-5.925-13.209-13.209zm-73.767 19.925h58.767v18.133h-9.066c-4.143 0-7.5 3.358-7.5 7.5s3.357 7.5 7.5 7.5h11.591c4.442 9.76 14.28 16.567 25.684 16.567s21.242-6.806 25.683-16.567h11.591c4.143 0 7.5-3.358 7.5-7.5s-3.357-7.5-7.5-7.5h-9.066v-18.133h134.111v18.133h-9.067c-4.143 0-7.5 3.358-7.5 7.5s3.357 7.5 7.5 7.5h11.592c4.442 9.76 14.28 16.567 25.683 16.567s21.242-6.806 25.683-16.567h11.592c4.143 0 7.5-3.358 7.5-7.5s-3.357-7.5-7.5-7.5h-9.067v-18.133h58.789c14.134 0 25.633 11.499 25.633 25.632v42.201h-415.765v-42.2c0-14.134 11.499-25.633 25.632-25.633zm-25.632 100.967v-18.133h415.766v18.133zm231.944 115.183c0-.432.352-.783.783-.783h16.566c.432 0 .783.352.783.783v12.969c-1.774 1.416-3.509 2.877-5.207 4.381h-12.143c-.432 0-.783-.352-.783-.783v-16.567zm100.188 232.717c-64.376 0-116.75-52.374-116.75-116.75s52.374-116.75 116.75-116.75 116.75 52.374 116.75 116.75-52.374 116.75-116.75 116.75z"/><path d="m363.691 281.633c-54.377 0-98.616 44.239-98.616 98.617s44.239 98.617 98.616 98.617c54.378 0 98.617-44.239 98.617-98.617s-44.239-98.617-98.617-98.617zm0 182.234c-46.107 0-83.616-37.51-83.616-83.617s37.51-83.617 83.616-83.617 83.617 37.51 83.617 83.617-37.51 83.617-83.617 83.617z"/><path d="m405.108 372.75h-18.553c-2.383-7.246-8.117-12.981-15.363-15.364v-35.119c0-4.142-3.357-7.5-7.5-7.5s-7.5 3.358-7.5 7.5v35.119c-9.608 3.16-16.566 12.212-16.566 22.864 0 13.271 10.796 24.067 24.066 24.067 10.652 0 19.704-6.959 22.863-16.567h18.553c4.143 0 7.5-3.358 7.5-7.5s-3.357-7.5-7.5-7.5zm-41.417 16.567c-4.999 0-9.066-4.067-9.066-9.067s4.067-9.067 9.066-9.067 9.066 4.067 9.066 9.067-4.067 9.067-9.066 9.067z"/></g></g></svg>