<?xml version="1.0" ?><svg viewBox="0 0 64 64" xmlns="http://www.w3.org/2000/svg"><defs><style>.cls-1{fill:#f0f4f7;}.cls-2{fill:#dd5891;}.cls-3{fill:#e0e9ee;}.cls-4{fill:#d9387c;}.cls-5{fill:#748a95;}.cls-6{fill:#617880;}.cls-7{fill:#f6e782;}.cls-8{fill:#f5d96d;}.cls-9{fill:#94d8e5;}.cls-10{fill:#00244c;}</style></defs><g id="Backlink"><path class="cls-1" d="M45.82,22.64V41A4.81,4.81,0,0,1,41,45.82H18.18v4.77H56V27.12H53.14a2.43,2.43,0,0,1-2.26-1.51l-.45-1.09a3,3,0,0,0-2.8-1.88Z" id="path363370-2"/><path class="cls-2" d="M45.82,18.18v4.46h1.81a3,3,0,0,1,2.8,1.88l.45,1.09a2.43,2.43,0,0,0,2.26,1.51H56V23a4.81,4.81,0,0,0-4.82-4.82Z" id="path363368-6"/><path class="cls-3" d="M53.42,27.12V51.18A4.81,4.81,0,0,1,48.6,56h2.58A4.81,4.81,0,0,0,56,51.18V27.12Z" id="path31407-17-1-6"/><path class="cls-4" d="M48.6,18.18A4.81,4.81,0,0,1,53.42,23v4.12H56V23a4.81,4.81,0,0,0-4.82-4.82Z" id="path31409-27-0-4"/><path class="cls-5" d="M18.18,50.59v.59A4.81,4.81,0,0,0,23,56H51.18A4.81,4.81,0,0,0,56,51.18v-.59Z" id="path363372-9"/><path class="cls-6" d="M53.42,50.59v.59A4.81,4.81,0,0,1,48.6,56h2.58A4.81,4.81,0,0,0,56,51.18v-.59Z" id="path355955-5"/><path class="cls-7" d="M12.82,8A4.81,4.81,0,0,0,8,12.82v4.12H21.38a2.43,2.43,0,0,0,2.26-1.51l.45-1.09a3,3,0,0,1,2.8-1.88H37.45a3,3,0,0,1,2.8,1.88l.45,1.09A2.44,2.44,0,0,0,43,16.94h2.86V12.82A4.81,4.81,0,0,0,41,8Zm-1,3.69a1.25,1.25,0,1,1-1.25,1.25A1.25,1.25,0,0,1,11.85,11.69Zm4,0a1.25,1.25,0,1,1-1.25,1.25A1.25,1.25,0,0,1,15.84,11.69Zm4,0a1.25,1.25,0,1,1-1.25,1.25A1.25,1.25,0,0,1,19.83,11.69Z" id="path18569-7-0"/><path class="cls-1" d="M26.89,12.46a3,3,0,0,0-2.8,1.87l-.45,1.1a2.43,2.43,0,0,1-2.26,1.51H8V41a4.81,4.81,0,0,0,4.82,4.83H41A4.81,4.81,0,0,0,45.82,41v-24H43a2.44,2.44,0,0,1-2.26-1.51l-.45-1.1a3,3,0,0,0-2.8-1.87ZM16,19.77a4.91,4.91,0,1,1-4.91,4.91A4.9,4.9,0,0,1,16,19.77ZM37.82,30.88a4.91,4.91,0,1,1-4.91,4.9A4.9,4.9,0,0,1,37.82,30.88Z" id="path81671-8-4"/><path class="cls-3" d="M43.24,16.94V41a4.81,4.81,0,0,1-4.82,4.82H41A4.81,4.81,0,0,0,45.82,41V16.94Z" id="path31407-17-8"/><path class="cls-8" d="M38.42,8a4.81,4.81,0,0,1,4.82,4.82v4.12h2.58V12.82A4.81,4.81,0,0,0,41,8Z" id="path31409-27-7"/><path class="cls-9" d="M32.91,35.78a4.91,4.91,0,1,0,4.91-4.9A4.91,4.91,0,0,0,32.91,35.78Z" id="path88161-4"/><path class="cls-9" d="M20.9,24.68A4.91,4.91,0,1,1,16,19.77,4.9,4.9,0,0,1,20.9,24.68Z" id="path88590-3"/><circle class="cls-10" cx="11.85" cy="12.94" r="1.25"/><circle class="cls-10" cx="15.84" cy="12.94" r="1.25"/><circle class="cls-10" cx="19.83" cy="12.94" r="1.25"/><path class="cls-10" d="M51.18,17.18H46.82V12.82A5.83,5.83,0,0,0,41,7H12.82A5.83,5.83,0,0,0,7,12.82V41a5.83,5.83,0,0,0,5.82,5.82h4.36v4.36A5.83,5.83,0,0,0,23,57H51.18A5.83,5.83,0,0,0,57,51.18V23A5.83,5.83,0,0,0,51.18,17.18Zm0,2A3.82,3.82,0,0,1,55,23v3.12H53.14a1.45,1.45,0,0,1-1.34-.89l-.44-1.09a4,4,0,0,0-3.73-2.5h-.81V19.18Zm-4.36,4.46h.81a2,2,0,0,1,1.88,1.26c.24.57.31.78.51,1.22h-3.2ZM12.82,9H41a3.83,3.83,0,0,1,3.82,3.82v3.12H43a1.45,1.45,0,0,1-1.34-.89L41.17,14a4,4,0,0,0-3.72-2.49H26.89A4,4,0,0,0,23.17,14l-.45,1.1a1.44,1.44,0,0,1-1.34.89H9V12.82A3.82,3.82,0,0,1,12.82,9Zm27,6.94H24.5c.2-.42.3-.71.52-1.23a2,2,0,0,1,1.87-1.25H37.45a2,2,0,0,1,1.87,1.25C39.54,15.23,39.64,15.51,39.84,15.94ZM9,41V17.94H44.82V41A3.83,3.83,0,0,1,41,44.82H12.82A3.83,3.83,0,0,1,9,41Zm32,5.82a5.83,5.83,0,0,0,5.71-4.71h5.56a1,1,0,0,0,0-2H46.82V35.55h5.45a1,1,0,0,0,0-2H46.82V28.12H55V49.59H19.18V46.82ZM51.18,55H23a3.82,3.82,0,0,1-3.78-3.41H55A3.82,3.82,0,0,1,51.18,55Z"/><path class="cls-10" d="M11.29,48.08a1,1,0,0,0-1,1v3.74a1,1,0,0,0,1,1H15a1,1,0,1,0,0-2H12.29V49.08A1,1,0,0,0,11.29,48.08Z"/><path class="cls-10" d="M52.71,15.92a1,1,0,0,0,1-1V11.18a1,1,0,0,0-1-1H49a1,1,0,0,0,0,2h2.74v2.74A1,1,0,0,0,52.71,15.92Z"/><path class="cls-10" d="M52.27,30.26H49.7a1,1,0,0,0,0,2h2.57a1,1,0,0,0,0-2Z"/><path class="cls-10" d="M52.27,36.83H49.7a1,1,0,0,0,0,2h2.57a1,1,0,0,0,0-2Z"/><path class="cls-10" d="M49.7,45.39h2.57a1,1,0,0,0,0-2H49.7a1,1,0,0,0,0,2Z"/><path class="cls-10" d="M21,32.69a3.81,3.81,0,0,0,5.39,5.39l4-4a3.79,3.79,0,0,0,.6-4.57l1.8-1.79a3.8,3.8,0,0,0,0-5.39,3.9,3.9,0,0,0-5.39,0l-4,4a3.74,3.74,0,0,0-.6,4.57ZM24.3,29a1.81,1.81,0,0,1,.53-1.28l4-4a1.83,1.83,0,0,1,2.55,0A1.76,1.76,0,0,1,31.92,25a1.78,1.78,0,0,1-.54,1.28l-5.55,5.56a1,1,0,0,0,0,1.41,1,1,0,0,0,1.41,0L29.48,31A1.83,1.83,0,0,1,29,32.67l-4,4a1.8,1.8,0,0,1-2.55-2.55L28,28.55a1,1,0,0,0-1.41-1.41l-2.24,2.24A1.47,1.47,0,0,1,24.3,29Z"/><path class="cls-10" d="M31.92,35.78a5.91,5.91,0,1,0,5.9-5.9A5.91,5.91,0,0,0,31.92,35.78Zm5.9-3.9a3.91,3.91,0,1,1-3.9,3.9A3.91,3.91,0,0,1,37.82,31.88Z"/><path class="cls-10" d="M36.68,37.69a1,1,0,0,0,.71.29,1,1,0,0,0,.7-.29l1.2-1.2a1,1,0,0,0,.3-.71,1,1,0,0,0-.3-.7l-1.2-1.2a1,1,0,0,0-1.41,1.41l.49.49-.49.5A1,1,0,0,0,36.68,37.69Z"/><path class="cls-10" d="M21.9,24.68A5.91,5.91,0,1,0,16,30.59,5.91,5.91,0,0,0,21.9,24.68ZM16,28.59a3.91,3.91,0,1,1,3.9-3.91A3.92,3.92,0,0,1,16,28.59Z"/><path class="cls-10" d="M17.14,22.77a1,1,0,0,0-1.42,0L14.53,24a1,1,0,0,0,0,1.42l1.19,1.2a1,1,0,0,0,.71.29,1,1,0,0,0,.71-.29,1,1,0,0,0,0-1.42l-.49-.49.49-.49A1,1,0,0,0,17.14,22.77Z"/></g></svg>