<svg id="Capa_1" enable-background="new 0 0 512.001 512.001" height="512" viewBox="0 0 512.001 512.001" width="512" xmlns="http://www.w3.org/2000/svg"><g><g><path d="m293.276 380.244 78.691 49.7-33.133-92.578-59.316-57.572z" fill="#bdd3dd"/><path d="m7.501 15.777 331.333 321.588-124.317 117.919c-4.008 3.802-10.572 2.493-12.816-2.555z" fill="#f9eae0"/><path d="m7.501 15.777 484.294 161.431c5.743 1.914 7.361 9.266 2.953 13.415l-106.213 99.965z" fill="#f9eae0"/><path d="m338.834 337.366 33.133 92.578 16.567-139.355-381.033-274.812z" fill="#abc4d6"/><g fill="#f9f5f3"><path d="m496.984 182.751c-.65-2.46-2.441-4.626-5.19-5.543l-484.293-161.431 281.633 203.122z"/><path d="m207.68 457.358 48.321-200.389-248.5-241.192 194.201 436.951c1.157 2.605 3.465 4.204 5.978 4.63z"/></g></g><g><path d="m511.826 179.832c-.567-2.578-2.449-4.668-4.953-5.503l-171.361-57.12c-3.928-1.308-8.177.814-9.487 4.743-1.31 3.93.814 8.178 4.744 9.487l143.14 47.713-182.946 31.817-239.242-172.546 247.016 82.339c3.929 1.307 8.177-.813 9.487-4.743s-.814-8.178-4.744-9.487l-293.608-97.87c-.1-.033-.171-.04-.257-.062-2.128-.626-4.487-.314-6.406 1.027-2.947 2.056-4.021 5.913-2.562 9.196l198.8 447.3c.989 2.227 2.998 3.833 5.387 4.31.488.097.979.145 1.466.145 1.902 0 3.755-.725 5.162-2.059l82.954-78.684 73.546 46.45c.034.022.072.027.107.042 1.155.705 2.49 1.117 3.893 1.117.281 0 .563-.016.848-.048 3.458-.391 6.193-3.11 6.604-6.566l16.245-136.648 113.981-107.276c1.923-1.809 2.753-4.496 2.186-7.074zm-30.67 13.284-93.254 87.768-79.932-57.649zm-153.154 144.188-108.467 102.882 40.675-168.68zm7.647 13.42 21.924 61.258-51.929-32.798zm32.635 46.671-22.389-62.557c-.015-.042-.038-.08-.054-.122-.386-1.02-.985-1.958-1.784-2.733l-110.991-107.726c-2.971-2.884-7.72-2.813-10.605.158-2.885 2.973-2.814 7.721.158 10.605l25.088 24.35-43.521 180.482-174.082-391.685 170.978 165.949c2.971 2.885 7.72 2.815 10.605-.158s2.814-7.721-.158-10.605l-125.031-121.353 294.067 212.089z"/><path d="m487.934 387.744c-1.919 0-3.839-.732-5.303-2.196l-66.267-66.267c-2.929-2.93-2.929-7.678 0-10.607 2.929-2.928 7.678-2.928 10.606 0l66.267 66.267c2.929 2.93 2.929 7.678 0 10.607-1.464 1.464-3.384 2.196-5.303 2.196z"/><path d="m371.968 503.711c-1.919 0-3.839-.732-5.303-2.196l-66.267-66.267c-2.929-2.93-2.929-7.678 0-10.607 2.929-2.928 7.678-2.928 10.606 0l66.267 66.267c2.929 2.93 2.929 7.678 0 10.607-1.465 1.463-3.384 2.196-5.303 2.196z"/><path d="m487.934 503.711c-1.919 0-3.839-.732-5.303-2.196l-66.267-66.267c-2.929-2.93-2.929-7.678 0-10.607 2.929-2.928 7.678-2.928 10.606 0l66.267 66.267c2.929 2.93 2.929 7.678 0 10.607-1.464 1.463-3.384 2.196-5.303 2.196z"/></g></g></svg>