<?xml version="1.0" ?><svg viewBox="0 0 64 64" xmlns="http://www.w3.org/2000/svg"><defs><style>.cls-1{fill:#4c6cb5;}.cls-2{fill:#5e87ca;}.cls-3{fill:#e2e7f6;}.cls-4{fill:#f2f2f2;}.cls-5{fill:#78a0d4;}.cls-6{fill:#93bee5;}</style></defs><g data-name="Layer 13" id="Layer_13"><path class="cls-1" d="M2,10V6A4,4,0,0,1,6,2H58a4,4,0,0,1,4,4v4Z"/><path class="cls-2" d="M53,7a2,2,0,0,0,2-2V2H6A4,4,0,0,0,2,6V7Z"/><path class="cls-3" d="M62,10V58a4,4,0,0,1-4,4H6a4,4,0,0,1-4-4V10Z"/><path class="cls-4" d="M2,10V56H51a4,4,0,0,0,4-4V10Z"/><polyline class="cls-5" points="62 40 21 40 14 56 62 56"/><path class="cls-6" d="M21,40,15.312,53H56.117a2,2,0,0,0,2-2V40Z"/><rect class="cls-4" height="2" width="2" x="7" y="5"/><rect class="cls-4" height="2" width="2" x="11" y="5"/><rect class="cls-4" height="2" width="2" x="15" y="5"/><rect class="cls-4" height="2" width="2" x="19" y="5"/><path class="cls-4" d="M34,43H29a1,1,0,0,0-1,1v4a1,1,0,0,0,1,1h4v2H30V50H28v2a1,1,0,0,0,1,1h5a1,1,0,0,0,1-1V48a1,1,0,0,0-1-1H30V45h3v1h2V44A1,1,0,0,0,34,43Z"/><path class="cls-4" d="M42,43H37a1,1,0,0,0-1,1v4a1,1,0,0,0,1,1h4v2H38V50H36v2a1,1,0,0,0,1,1h5a1,1,0,0,0,1-1V48a1,1,0,0,0-1-1H38V45h3v1h2V44A1,1,0,0,0,42,43Z"/><polygon class="cls-4" points="49 43 49 47 46 47 46 43 44 43 44 53 46 53 46 49 49 49 49 53 51 53 51 43 49 43"/><path class="cls-6" d="M8.6,31.8,7.4,30.2,14.333,25,7.4,19.8l1.2-1.6,8,6a1,1,0,0,1,0,1.6Z"/><rect class="cls-6" height="2" width="26" x="19" y="29"/><rect class="cls-6" height="2" width="12" x="47" y="13"/><rect class="cls-6" height="2" width="12" x="47" y="17"/><rect class="cls-6" height="2" width="12" x="47" y="21"/><path d="M58,1H6A5.006,5.006,0,0,0,1,6V58a5.006,5.006,0,0,0,5,5H58a5.006,5.006,0,0,0,5-5V6A5.006,5.006,0,0,0,58,1ZM6,3H58a3,3,0,0,1,3,3V9H3V6A3,3,0,0,1,6,3ZM58,61H6a3,3,0,0,1-3-3V11H61V39H21a1,1,0,0,0-.916.6l-7,16A1,1,0,0,0,14,57H61v1A3,3,0,0,1,58,61Zm3-20V55H15.529l6.125-14Z"/><rect height="2" width="2" x="7" y="5"/><rect height="2" width="2" x="11" y="5"/><rect height="2" width="2" x="15" y="5"/><rect height="2" width="2" x="19" y="5"/><path d="M29,53h5a1,1,0,0,0,1-1V48a1,1,0,0,0-1-1H30V45h3v1h2V44a1,1,0,0,0-1-1H29a1,1,0,0,0-1,1v4a1,1,0,0,0,1,1h4v2H30V50H28v2A1,1,0,0,0,29,53Z"/><path d="M37,53h5a1,1,0,0,0,1-1V48a1,1,0,0,0-1-1H38V45h3v1h2V44a1,1,0,0,0-1-1H37a1,1,0,0,0-1,1v4a1,1,0,0,0,1,1h4v2H38V50H36v2A1,1,0,0,0,37,53Z"/><polygon points="46 49 49 49 49 53 51 53 51 43 49 43 49 47 46 47 46 43 44 43 44 53 46 53 46 49"/><path d="M17,25a1,1,0,0,0-.4-.8l-8-6L7.4,19.8,14.333,25,7.4,30.2l1.2,1.6,8-6A1,1,0,0,0,17,25Z"/><rect height="2" width="26" x="19" y="29"/><rect height="2" width="12" x="47" y="13"/><rect height="2" width="12" x="47" y="17"/><rect height="2" width="12" x="47" y="21"/></g></svg>