<svg id="Capa_1" enable-background="new 0 0 512 512" height="512" viewBox="0 0 512 512" width="512" xmlns="http://www.w3.org/2000/svg"><g><g><circle cx="256" cy="256" fill="#9dc6fb" r="191.931"/></g><g><path d="m374.592 105.082c25.689 32.645 41.014 73.829 41.014 118.592 0 106.001-85.93 191.931-191.931 191.931-44.763 0-85.947-15.325-118.592-41.014 35.142 44.659 89.68 73.339 150.917 73.339 106.001 0 191.931-85.93 191.931-191.93 0-61.238-28.68-115.775-73.339-150.918z" fill="#80b4fb"/></g><g><g><path d="m7.5 202.461h389.923v107.077h-389.923z" fill="#f4fbff"/></g><g><path d="m7.5 291.355h389.923v18.183h-389.923z" fill="#e4f6ff"/></g><g><path d="m397.423 202.461h107.077v107.077h-107.077z" fill="#95d6a4"/></g><g><path d="m485.307 202.461v82.833c0 3.347-2.714 6.061-6.061 6.061h-81.823v18.183h107.077v-107.077z" fill="#78c2a4"/></g></g><g><path d="m422.248 252.969c0 14.162 11.521 25.683 25.683 25.683 4.357 0 8.462-1.094 12.06-3.016l6.88 6.88c1.464 1.464 3.384 2.197 5.303 2.197s3.839-.732 5.303-2.197c2.929-2.929 2.929-7.678 0-10.606l-6.88-6.88c1.922-3.598 3.016-7.703 3.016-12.06 0-14.162-11.521-25.683-25.683-25.683s-25.682 11.521-25.682 25.682zm36.366 0c0 2.796-1.088 5.337-2.853 7.243-.103.092-.209.18-.308.279s-.186.205-.279.309c-1.906 1.764-4.447 2.853-7.243 2.853-5.891 0-10.683-4.792-10.683-10.683s4.792-10.683 10.683-10.683 10.683 4.792 10.683 10.682z"/><path d="m504.5 194.959h-20.53c-4.142 0-7.5 3.358-7.5 7.5s3.358 7.5 7.5 7.5h13.03v92.08h-56.741c-.023 0-.046 0-.069 0h-35.27v-92.08h35.412c.008 0 .016.002.024.002.009 0 .019-.002.028-.002h8.586c4.142 0 7.5-3.358 7.5-7.5s-3.358-7.5-7.5-7.5h-3.072c-12.332-38.308-36.55-72.703-68.664-97.323-34.704-26.606-76.211-40.802-120.034-41.056-.852-.02.003 0-2.399 0-35.748.214-70.757 9.992-101.248 28.277-3.552 2.13-4.705 6.737-2.575 10.29 2.13 3.552 6.736 4.706 10.29 2.575 14.017-8.406 29.07-14.863 44.727-19.259-15.046 14.135-28.065 34.614-37.995 59.929h-54.049c6.153-7.415 12.887-14.393 20.204-20.832 3.11-2.737 3.412-7.476.676-10.585s-7.476-3.413-10.585-.676c-27.154 23.896-47.171 54.457-58.149 88.66h-58.597c-4.142 0-7.5 3.358-7.5 7.5v107.08c0 4.142 3.358 7.5 7.5 7.5h58.602c12.332 38.308 36.55 72.703 68.664 97.323 34.704 26.606 76.21 40.802 120.035 41.056.389.003.583.021 2.399 0 43.824-.254 85.331-14.45 120.035-41.056 32.114-24.62 56.332-59.015 68.664-97.323h58.601c4.142 0 7.5-3.358 7.5-7.5v-107.08c0-4.142-3.358-7.5-7.5-7.5zm-107.08 0h-38.013c-2.536-14.777-5.929-28.687-10.068-41.568h59.83c8.614 12.759 15.685 26.694 20.908 41.568zm-229.595 0c2.683-14.866 6.3-28.803 10.698-41.568h69.977v41.568zm95.675-41.567h69.978c4.397 12.765 8.014 26.702 10.697 41.568h-80.675zm0-81.204c25.172 4.109 48.303 28.737 64.227 66.204h-64.227zm134.387 66.204h-53.885c-9.889-25.216-22.841-45.63-37.803-59.76 35.911 10.279 67.935 31.303 91.688 59.76zm-149.387-66.196v66.196h-64.225c15.917-37.44 39.037-62.06 64.225-66.196zm-145.765 81.196h59.927c-4.14 12.88-7.532 26.791-10.069 41.568h-70.653c5.16-14.73 12.149-28.682 20.795-41.568zm-12.875 148.648h-74.86v-92.08h374.92v92.08h-265.06c-4.142 0-7.5 3.358-7.5 7.5s3.358 7.5 7.5 7.5h27.733c2.536 14.777 5.929 28.687 10.068 41.568h-59.83c-8.614-12.759-15.685-26.694-20.908-41.568h7.936c4.142 0 7.5-3.358 7.5-7.5s-3.357-7.5-7.499-7.5zm158.64 71.567v66.204c-25.172-4.109-48.303-28.737-64.227-66.204zm-69.978-15c-4.397-12.765-8.014-26.702-10.697-41.568h80.675v41.568zm84.978 81.196v-66.196h64.225c-15.917 37.44-39.037 62.06-64.225 66.196zm0-81.196v-41.567h80.675c-2.683 14.866-6.3 28.803-10.698 41.568h-69.977zm-149.387 15h53.885c9.889 25.216 22.841 45.63 37.803 59.76-35.911-10.279-67.935-31.303-91.688-59.76zm192.061 59.767c14.974-14.13 27.933-34.547 37.826-59.767h53.887c-23.758 28.464-55.791 49.49-91.713 59.767zm102.994-74.767h-59.83c4.14-12.88 7.532-26.791 10.069-41.568h38.013 32.657c-5.224 14.875-12.295 28.809-20.909 41.568z"/></g></g></svg>